<?xml version="1.0" encoding="UTF-8"?>
<!DOCTYPE svg PUBLIC "-//W3C//DTD SVG 1.1//EN" "http://www.w3.org/Graphics/SVG/1.1/DTD/svg11.dtd">
<svg xmlns="http://www.w3.org/2000/svg" version="1.1" width="1024px" height="1280px" style="shape-rendering:geometricPrecision; text-rendering:geometricPrecision; image-rendering:optimizeQuality; fill-rule:evenodd; clip-rule:evenodd" xmlns:xlink="http://www.w3.org/1999/xlink">
<g><path style="opacity:0.965" fill="#020202" d="M 590.5,231.5 C 596.345,243.007 602.011,254.673 607.5,266.5C 606.624,266.369 605.957,266.702 605.5,267.5C 606.154,269.115 606.654,270.782 607,272.5C 610.111,277.325 612.945,282.325 615.5,287.5C 616.831,282.528 617.664,277.528 618,272.5C 617.617,273.056 617.117,273.389 616.5,273.5C 616.927,270.99 617.593,268.657 618.5,266.5C 618.34,268.199 618.506,269.866 619,271.5C 619.833,268.167 620.667,264.833 621.5,261.5C 621.457,260.584 621.124,259.917 620.5,259.5C 620.263,258.209 620.596,257.209 621.5,256.5C 623.597,255.121 623.93,253.455 622.5,251.5C 622.899,247.989 623.566,244.656 624.5,241.5C 624.338,243.527 624.505,245.527 625,247.5C 626.154,243.553 626.987,239.553 627.5,235.5C 629.5,235.833 631.5,236.167 633.5,236.5C 629.628,252.783 625.962,269.116 622.5,285.5C 622.543,286.416 622.876,287.083 623.5,287.5C 623.279,290.067 622.612,292.401 621.5,294.5C 620.233,295.659 619.233,297.659 618.5,300.5C 616.775,299.985 615.108,299.318 613.5,298.5C 605.23,281.508 597.063,264.508 589,247.5C 588.536,248.094 588.369,248.761 588.5,249.5C 587.108,247.727 585.941,245.727 585,243.5C 584.027,246.579 583.194,249.579 582.5,252.5C 582.66,250.801 582.494,249.134 582,247.5C 578.884,260.799 575.384,273.965 571.5,287C 571.645,287.772 571.978,288.439 572.5,289C 570.049,289.306 567.716,288.806 565.5,287.5C 566.886,284.734 567.22,282.067 566.5,279.5C 566.945,272.863 568.278,266.53 570.5,260.5C 570.34,262.199 570.506,263.866 571,265.5C 574.866,251.972 578.2,238.305 581,224.5C 582.825,225.103 584.659,225.77 586.5,226.5C 587.667,228.833 588.833,231.167 590,233.5C 590.464,232.906 590.631,232.239 590.5,231.5 Z"/></g>
<g><path style="opacity:0.973" fill="#010101" d="M 480.5,244.5 C 474.243,247.887 471.577,253.22 472.5,260.5C 471.691,258.708 471.191,256.708 471,254.5C 470.413,261.535 470.746,268.535 472,275.5C 472.497,272.854 472.664,270.187 472.5,267.5C 473.483,271.298 473.817,275.298 473.5,279.5C 472.189,281.56 472.189,283.726 473.5,286C 471.782,286.346 470.115,286.846 468.5,287.5C 466.663,280.315 465.663,272.982 465.5,265.5C 464.435,256.523 463.435,247.523 462.5,238.5C 465.833,238.027 468,239.36 469,242.5C 469.494,240.866 469.66,239.199 469.5,237.5C 470.434,238.568 470.768,239.901 470.5,241.5C 469.65,243.494 469.15,245.494 469,247.5C 472.576,240.545 478.242,236.545 486,235.5C 486.497,237.81 486.663,240.143 486.5,242.5C 484.011,242.298 481.677,242.798 479.5,244C 479.728,244.399 480.062,244.565 480.5,244.5 Z"/></g>
<g><path style="opacity:0.265" fill="#191919" d="M 480.5,244.5 C 480.062,244.565 479.728,244.399 479.5,244C 481.677,242.798 484.011,242.298 486.5,242.5C 486.663,240.143 486.497,237.81 486,235.5C 478.242,236.545 472.576,240.545 469,247.5C 469.15,245.494 469.65,243.494 470.5,241.5C 475.284,236.184 481.118,234.184 488,235.5C 488.497,238.146 488.664,240.813 488.5,243.5C 485.833,243.833 483.167,244.167 480.5,244.5 Z"/></g>
<g><path style="opacity:0.567" fill="#171717" d="M 623.5,287.5 C 622.876,287.083 622.543,286.416 622.5,285.5C 625.962,269.116 629.628,252.783 633.5,236.5C 631.5,236.167 629.5,235.833 627.5,235.5C 626.987,239.553 626.154,243.553 625,247.5C 624.505,245.527 624.338,243.527 624.5,241.5C 624.023,233.609 627.356,231.442 634.5,235C 635.081,235.893 635.415,236.893 635.5,238C 632.069,254.66 628.069,271.16 623.5,287.5 Z"/></g>
<g><path style="opacity:0.444" fill="#141414" d="M 590.5,231.5 C 590.631,232.239 590.464,232.906 590,233.5C 588.833,231.167 587.667,228.833 586.5,226.5C 584.659,225.77 582.825,225.103 581,224.5C 578.2,238.305 574.866,251.972 571,265.5C 570.506,263.866 570.34,262.199 570.5,260.5C 573.324,248.205 575.99,235.872 578.5,223.5C 585.632,221.72 589.632,224.387 590.5,231.5 Z"/></g>
<g><path style="opacity:0.976" fill="#040404" d="M 439.5,270.5 C 430.796,272.009 422.129,274.176 413.5,277C 414.252,277.671 414.586,278.504 414.5,279.5C 413.637,278.537 412.97,278.537 412.5,279.5C 414.363,283.53 417.363,286.363 421.5,288C 432.166,290.414 440.999,287.581 448,279.5C 451.822,280.787 452.322,282.787 449.5,285.5C 449.624,286.107 449.957,286.44 450.5,286.5C 442.423,295.096 432.423,297.929 420.5,295C 405.28,288.062 399.614,276.562 403.5,260.5C 403.343,261.873 403.51,263.207 404,264.5C 408.508,249.305 418.674,243.138 434.5,246C 443.847,249.187 449.513,255.687 451.5,265.5C 445.958,267.442 440.291,268.942 434.5,270C 436.134,270.494 437.801,270.66 439.5,270.5 Z M 441.5,262.5 C 431.978,263.547 422.645,265.547 413.5,268.5C 412.692,268.192 412.025,267.692 411.5,267C 412.423,264.14 413.423,261.307 414.5,258.5C 421.637,251.054 429.637,250.054 438.5,255.5C 440.327,257.487 441.327,259.821 441.5,262.5 Z"/></g>
<g><path style="opacity:0.424" fill="#181818" d="M 439.5,270.5 C 437.801,270.66 436.134,270.494 434.5,270C 440.291,268.942 445.958,267.442 451.5,265.5C 449.513,255.687 443.847,249.187 434.5,246C 418.674,243.138 408.508,249.305 404,264.5C 403.51,263.207 403.343,261.873 403.5,260.5C 404.252,256.737 405.919,253.404 408.5,250.5C 420.693,240.357 433.193,240.024 446,249.5C 449.836,254.174 452.336,259.507 453.5,265.5C 453.392,266.442 453.059,267.275 452.5,268C 448.272,269.412 443.939,270.246 439.5,270.5 Z"/></g>
<g><path style="opacity:0.875" fill="#131313" d="M 469.5,237.5 C 469.66,239.199 469.494,240.866 469,242.5C 468,239.36 465.833,238.027 462.5,238.5C 463.435,247.523 464.435,256.523 465.5,265.5C 464.833,265.5 464.167,265.5 463.5,265.5C 462.355,257.532 461.355,249.532 460.5,241.5C 460.649,239.68 461.316,238.18 462.5,237C 465.039,236.204 467.372,236.371 469.5,237.5 Z"/></g>
<g><path style="opacity:0.374" fill="#272727" d="M 622.5,251.5 C 623.93,253.455 623.597,255.121 621.5,256.5C 621.366,254.708 621.699,253.042 622.5,251.5 Z"/></g>
<g><path style="opacity:0.18" fill="#141414" d="M 582.5,252.5 C 579.909,265.272 576.909,277.938 573.5,290.5C 570.586,291.404 567.753,291.071 565,289.5C 564.326,285.888 564.826,282.554 566.5,279.5C 567.22,282.067 566.886,284.734 565.5,287.5C 567.716,288.806 570.049,289.306 572.5,289C 571.978,288.439 571.645,287.772 571.5,287C 575.384,273.965 578.884,260.799 582,247.5C 582.494,249.134 582.66,250.801 582.5,252.5 Z"/></g>
<g><path style="opacity:0.625" fill="#1f1f1f" d="M 396.5,272.5 C 395.883,272.611 395.383,272.944 395,273.5C 385.434,260.594 373.601,258.094 359.5,266C 357.333,268.167 355.167,270.333 353,272.5C 352.536,271.906 352.369,271.239 352.5,270.5C 353.203,268.284 354.536,266.451 356.5,265C 372.315,254.997 385.648,257.497 396.5,272.5 Z"/></g>
<g><path style="opacity:0.946" fill="#030303" d="M 396.5,272.5 C 401.944,282.485 401.777,292.485 396,302.5C 393.205,304.293 390.705,306.46 388.5,309C 386.913,309.862 385.246,310.529 383.5,311C 377.47,312.432 371.47,312.932 365.5,312.5C 368.164,319.162 370.83,325.828 373.5,332.5C 373.392,333.442 373.059,334.275 372.5,335C 370.5,335.5 368.5,336 366.5,336.5C 364.532,335.9 363.532,334.567 363.5,332.5C 364.043,332.44 364.376,332.107 364.5,331.5C 360.846,319.854 356.346,308.521 351,297.5C 350.617,298.056 350.117,298.389 349.5,298.5C 345.931,290.699 342.931,282.699 340.5,274.5C 342.317,272.99 344.317,271.657 346.5,270.5C 348.011,273.522 349.511,276.522 351,279.5C 351.346,277.782 351.846,276.115 352.5,274.5C 352.376,273.893 352.043,273.56 351.5,273.5C 351.263,272.209 351.596,271.209 352.5,270.5C 352.369,271.239 352.536,271.906 353,272.5C 355.167,270.333 357.333,268.167 359.5,266C 373.601,258.094 385.434,260.594 395,273.5C 395.383,272.944 395.883,272.611 396.5,272.5 Z M 390.5,291.5 C 386.158,302.502 378.158,306.336 366.5,303C 359.225,297.372 355.892,289.872 356.5,280.5C 362.6,268.886 371.6,266.053 383.5,272C 389.096,277.285 391.429,283.785 390.5,291.5 Z"/></g>
<g><path style="opacity:0.337" fill="#222222" d="M 676.5,270.5 C 676.565,270.938 676.399,271.272 676,271.5C 665.169,264.59 654.669,264.924 644.5,272.5C 643.833,272.5 643.167,272.5 642.5,272.5C 650.29,264.555 659.623,262.388 670.5,266C 672.747,267.277 674.747,268.777 676.5,270.5 Z"/></g>
<g><path style="opacity:0.403" fill="#191919" d="M 472.5,260.5 C 472.5,262.833 472.5,265.167 472.5,267.5C 472.664,270.187 472.497,272.854 472,275.5C 470.746,268.535 470.413,261.535 471,254.5C 471.191,256.708 471.691,258.708 472.5,260.5 Z"/></g>
<g><path style="opacity:0.394" fill="#242424" d="M 414.5,258.5 C 413.423,261.307 412.423,264.14 411.5,267C 412.025,267.692 412.692,268.192 413.5,268.5C 422.645,265.547 431.978,263.547 441.5,262.5C 442.496,262.586 443.329,262.252 444,261.5C 444.456,262.744 443.956,263.577 442.5,264C 431.62,266.773 420.62,268.94 409.5,270.5C 408.595,265.018 410.095,260.351 414,256.5C 414.464,257.094 414.631,257.761 414.5,258.5 Z"/></g>
<g><path style="opacity:0.393" fill="#181818" d="M 620.5,259.5 C 621.124,259.917 621.457,260.584 621.5,261.5C 620.667,264.833 619.833,268.167 619,271.5C 618.506,269.866 618.34,268.199 618.5,266.5C 619.015,264.106 619.681,261.772 620.5,259.5 Z"/></g>
<g><path style="opacity:0.979" fill="#030303" d="M 676.5,270.5 C 678.027,270.427 679.027,271.094 679.5,272.5C 679.062,272.435 678.728,272.601 678.5,273C 686.873,283.85 687.706,295.35 681,307.5C 679.5,309 678,310.5 676.5,312C 676.728,312.399 677.062,312.565 677.5,312.5C 674.79,315.417 671.457,317.417 667.5,318.5C 662.528,316.84 657.194,315.673 651.5,315C 637.419,307.766 632.919,296.599 638,281.5C 639.686,278.117 641.853,275.117 644.5,272.5C 654.669,264.924 665.169,264.59 676,271.5C 676.399,271.272 676.565,270.938 676.5,270.5 Z M 678.5,288.5 C 677.631,302.542 670.298,309.375 656.5,309C 650.65,306.981 646.65,303.148 644.5,297.5C 644.483,295.435 644.15,293.435 643.5,291.5C 645.076,281.423 650.909,275.423 661,273.5C 670.41,274.415 676.243,279.415 678.5,288.5 Z"/></g>
<g><path style="opacity:0.141" fill="#111111" d="M 607.5,266.5 C 609.989,271.478 612.489,276.478 615,281.5C 615.567,278.832 616.067,276.166 616.5,273.5C 617.117,273.389 617.617,273.056 618,272.5C 617.664,277.528 616.831,282.528 615.5,287.5C 612.945,282.325 610.111,277.325 607,272.5C 606.654,270.782 606.154,269.115 605.5,267.5C 605.957,266.702 606.624,266.369 607.5,266.5 Z"/></g>
<g><path style="opacity:0.602" fill="#202020" d="M 463.5,265.5 C 464.167,265.5 464.833,265.5 465.5,265.5C 465.663,272.982 466.663,280.315 468.5,287.5C 470.115,286.846 471.782,286.346 473.5,286C 472.189,283.726 472.189,281.56 473.5,279.5C 474.403,282.391 474.736,285.391 474.5,288.5C 471.223,288.784 468.057,288.451 465,287.5C 463.814,280.214 463.314,272.881 463.5,265.5 Z"/></g>
<g><path style="opacity:0.6" fill="#222222" d="M 351.5,273.5 C 352.043,273.56 352.376,273.893 352.5,274.5C 351.846,276.115 351.346,277.782 351,279.5C 349.511,276.522 348.011,273.522 346.5,270.5C 344.317,271.657 342.317,272.99 340.5,274.5C 339.224,273.614 339.224,272.614 340.5,271.5C 345.132,268.361 348.799,269.027 351.5,273.5 Z"/></g>
<g><path style="opacity:0.284" fill="#1e1e1e" d="M 531.5,278.5 C 531.565,278.938 531.399,279.272 531,279.5C 529.136,276.793 526.636,275.959 523.5,277C 522.421,278.859 521.088,280.359 519.5,281.5C 519.634,274.846 522.967,272.679 529.5,275C 530.823,275.816 531.489,276.983 531.5,278.5 Z"/></g>
<g><path style="opacity:0.878" fill="#030303" d="M 531.5,278.5 C 532.789,286.238 529.455,288.905 521.5,286.5C 520.05,285.15 519.383,283.484 519.5,281.5C 521.088,280.359 522.421,278.859 523.5,277C 526.636,275.959 529.136,276.793 531,279.5C 531.399,279.272 531.565,278.938 531.5,278.5 Z"/></g>
<g><path style="opacity:0.582" fill="#1f1f1f" d="M 450.5,286.5 C 449.957,286.44 449.624,286.107 449.5,285.5C 452.322,282.787 451.822,280.787 448,279.5C 440.999,287.581 432.166,290.414 421.5,288C 417.363,286.363 414.363,283.53 412.5,279.5C 412.97,278.537 413.637,278.537 414.5,279.5C 420.961,287.59 428.961,289.424 438.5,285C 441.54,282.49 444.54,279.99 447.5,277.5C 451.741,278.15 453.574,280.483 453,284.5C 452.292,285.381 451.458,286.047 450.5,286.5 Z"/></g>
<g><path style="opacity:0.351" fill="#0c0c0c" d="M 621.5,294.5 C 622.477,302.696 619.31,304.696 612,300.5C 603.716,283.673 595.883,266.673 588.5,249.5C 588.369,248.761 588.536,248.094 589,247.5C 597.063,264.508 605.23,281.508 613.5,298.5C 615.108,299.318 616.775,299.985 618.5,300.5C 619.233,297.659 620.233,295.659 621.5,294.5 Z"/></g>
<g><path style="opacity:0.366" fill="#1a1a1a" d="M 679.5,272.5 C 685.422,277.348 688.422,283.682 688.5,291.5C 688.229,300.379 684.562,307.379 677.5,312.5C 677.062,312.565 676.728,312.399 676.5,312C 678,310.5 679.5,309 681,307.5C 687.706,295.35 686.873,283.85 678.5,273C 678.728,272.601 679.062,272.435 679.5,272.5 Z"/></g>
<g><path style="opacity:0.976" fill="#010101" d="M 311.5,287.5 C 311.082,288.222 310.416,288.722 309.5,289C 330.756,287.253 341.589,297.087 342,318.5C 342.499,314.514 342.666,310.514 342.5,306.5C 346.311,318.56 342.978,328.227 332.5,335.5C 332.083,334.876 331.416,334.543 330.5,334.5C 316.371,341.895 304.538,339.228 295,326.5C 288.09,310.147 292.59,297.981 308.5,290C 307.944,289.617 307.611,289.117 307.5,288.5C 308.708,287.766 310.041,287.433 311.5,287.5 Z M 332.5,322.5 C 329.73,326.605 326.063,329.605 321.5,331.5C 304.754,331.354 297.92,323.02 301,306.5C 309.432,293.26 319.098,292.26 330,303.5C 334.751,309.338 335.585,315.672 332.5,322.5 Z"/></g>
<g><path style="opacity:0.962" fill="#050505" d="M 714.5,347.5 C 714.369,348.239 714.536,348.906 715,349.5C 716.955,347.089 718.789,344.589 720.5,342C 718.171,341.604 716.505,342.438 715.5,344.5C 710.434,344.66 705.434,344.16 700.5,343C 688.934,336.704 684.267,327.204 686.5,314.5C 686.183,317.572 686.516,320.572 687.5,323.5C 686.574,309.221 692.908,299.387 706.5,294C 715.904,292.468 724.071,294.968 731,301.5C 731.399,301.272 731.565,300.938 731.5,300.5C 732.458,300.953 733.292,301.619 734,302.5C 735.072,305.218 736.238,307.885 737.5,310.5C 741.784,303.44 746.451,296.607 751.5,290C 755.195,289.503 757.861,291.003 759.5,294.5C 747.583,314.002 735.417,333.335 723,352.5C 721.412,354.968 719.578,355.134 717.5,353C 716.421,352.044 715.255,351.211 714,350.5C 713.26,349.251 713.427,348.251 714.5,347.5 Z M 729.5,314.5 C 730.189,328.429 723.522,335.762 709.5,336.5C 704.142,334.685 699.642,331.352 696,326.5C 693.137,314.707 697.304,306.541 708.5,302C 719.313,300.064 726.313,304.231 729.5,314.5 Z"/></g>
<g><path style="opacity:0.14" fill="#262626" d="M 643.5,291.5 C 644.15,293.435 644.483,295.435 644.5,297.5C 644.5,298.5 644.5,299.5 644.5,300.5C 643.778,300.082 643.278,299.416 643,298.5C 641.99,293.712 642.157,291.379 643.5,291.5 Z"/></g>
<g><path style="opacity:0.347" fill="#191919" d="M 731.5,300.5 C 731.565,300.938 731.399,301.272 731,301.5C 724.071,294.968 715.904,292.468 706.5,294C 692.908,299.387 686.574,309.221 687.5,323.5C 686.516,320.572 686.183,317.572 686.5,314.5C 690.586,296.787 701.586,289.621 719.5,293C 724.374,294.262 728.374,296.762 731.5,300.5 Z"/></g>
<g><path style="opacity:0.447" fill="#141414" d="M 332.5,322.5 C 335.585,315.672 334.751,309.338 330,303.5C 319.098,292.26 309.432,293.26 301,306.5C 297.92,323.02 304.754,331.354 321.5,331.5C 324.097,331.721 324.097,332.221 321.5,333C 304.25,333.393 296.416,324.893 298,307.5C 304.471,294.416 314.304,291.25 327.5,298C 334.119,303.728 336.952,310.894 336,319.5C 335.252,321.332 334.252,322.999 333,324.5C 332.536,323.906 332.369,323.239 332.5,322.5 Z"/></g>
<g><path style="opacity:0.965" fill="#030303" d="M 276.5,321.5 C 277.906,321.973 278.573,322.973 278.5,324.5C 277.427,325.251 277.26,326.251 278,327.5C 285.463,335.782 292.297,344.449 298.5,353.5C 299.298,353.043 299.631,352.376 299.5,351.5C 302.134,353.54 302.134,355.707 299.5,358C 297.045,359.631 294.545,359.797 292,358.5C 278.91,340.654 265.576,322.987 252,305.5C 251.235,303.934 251.402,302.601 252.5,301.5C 254.53,302.272 256.363,301.606 258,299.5C 264,307.5 270,315.5 276,323.5C 276.464,322.906 276.631,322.239 276.5,321.5 Z"/></g>
<g><path style="opacity:0.8" fill="#151515" d="M 311.5,287.5 C 318.061,286.919 324.395,287.752 330.5,290C 333.64,293.14 336.806,296.306 340,299.5C 341.411,301.65 342.245,303.984 342.5,306.5C 342.666,310.514 342.499,314.514 342,318.5C 341.589,297.087 330.756,287.253 309.5,289C 310.416,288.722 311.082,288.222 311.5,287.5 Z"/></g>
<g><path style="opacity:0.725" fill="#161616" d="M 356.5,280.5 C 355.892,289.872 359.225,297.372 366.5,303C 378.158,306.336 386.158,302.502 390.5,291.5C 391.319,288.695 391.819,285.695 392,282.5C 393.878,291.535 391.044,298.701 383.5,304C 362.853,308.856 353.52,300.689 355.5,279.5C 356.107,279.624 356.44,279.957 356.5,280.5 Z"/></g>
<g><path style="opacity:0.483" fill="#171717" d="M 678.5,288.5 C 679.649,288.791 680.316,289.624 680.5,291C 678.166,306.365 669.499,312.699 654.5,310C 649.253,308.581 645.919,305.415 644.5,300.5C 644.5,299.5 644.5,298.5 644.5,297.5C 646.65,303.148 650.65,306.981 656.5,309C 670.298,309.375 677.631,302.542 678.5,288.5 Z"/></g>
<g><path style="opacity:0.498" fill="#2c2c2c" d="M 361.5,308.5 C 361.56,307.957 361.893,307.624 362.5,307.5C 363.7,308.531 365.034,309.365 366.5,310C 364.216,311.917 362.549,311.417 361.5,308.5 Z"/></g>
<g><path style="opacity:0.557" fill="#111111" d="M 642.5,272.5 C 643.167,272.5 643.833,272.5 644.5,272.5C 641.853,275.117 639.686,278.117 638,281.5C 632.919,296.599 637.419,307.766 651.5,315C 657.194,315.673 662.528,316.84 667.5,318.5C 653.486,320.242 642.986,314.909 636,302.5C 632.068,291.061 634.235,281.061 642.5,272.5 Z"/></g>
<g><path style="opacity:0.749" fill="#161616" d="M 276.5,321.5 C 276.631,322.239 276.464,322.906 276,323.5C 270,315.5 264,307.5 258,299.5C 256.363,301.606 254.53,302.272 252.5,301.5C 254.317,299.158 256.65,297.991 259.5,298C 265.298,305.774 270.965,313.608 276.5,321.5 Z"/></g>
<g><path style="opacity:0.475" fill="#101010" d="M 363.5,332.5 C 358.324,321.468 353.658,310.135 349.5,298.5C 350.117,298.389 350.617,298.056 351,297.5C 356.346,308.521 360.846,319.854 364.5,331.5C 364.376,332.107 364.043,332.44 363.5,332.5 Z"/></g>
<g><path style="opacity:0.441" fill="#181818" d="M 709.5,336.5 C 723.522,335.762 730.189,328.429 729.5,314.5C 730.117,314.389 730.617,314.056 731,313.5C 732.429,325.487 727.596,333.654 716.5,338C 712.705,338.837 709.039,338.504 705.5,337C 706.793,336.51 708.127,336.343 709.5,336.5 Z"/></g>
<g><path style="opacity:0.273" fill="#111111" d="M 307.5,288.5 C 307.611,289.117 307.944,289.617 308.5,290C 292.59,297.981 288.09,310.147 295,326.5C 304.538,339.228 316.371,341.895 330.5,334.5C 331.416,334.543 332.083,334.876 332.5,335.5C 316.534,344.807 303.367,341.807 293,326.5C 286.097,309.269 290.93,296.602 307.5,288.5 Z"/></g>
<g><path style="opacity:0.958" fill="#020202" d="M 786.5,345.5 C 787.404,346.209 787.737,347.209 787.5,348.5C 786.167,352.5 786.167,356.5 787.5,360.5C 787.598,362.553 786.931,364.22 785.5,365.5C 785.565,365.062 785.399,364.728 785,364.5C 783.541,367.756 781.374,370.423 778.5,372.5C 773.187,368.355 768.02,364.021 763,359.5C 762.601,359.728 762.435,360.062 762.5,360.5C 757.54,356.712 752.707,352.712 748,348.5C 743.122,360.028 746.289,368.695 757.5,374.5C 755.265,375.248 755.598,376.081 758.5,377C 761.587,377.259 764.587,377.759 767.5,378.5C 767.5,380.167 767.5,381.833 767.5,383.5C 757.015,385.233 748.682,381.9 742.5,373.5C 743.043,373.44 743.376,373.107 743.5,372.5C 734.837,358.97 736.504,346.804 748.5,336C 764.814,327.55 777.314,331.383 786,347.5C 786.464,346.906 786.631,346.239 786.5,345.5 Z M 778.5,348.5 C 780.165,353.514 779.498,358.181 776.5,362.5C 772.441,358.435 768.107,354.768 763.5,351.5C 760.279,348.727 757.279,345.727 754.5,342.5C 758.072,338.835 762.405,337.668 767.5,339C 772.482,340.798 776.149,343.965 778.5,348.5 Z"/></g>
<g><path style="opacity:0.36" fill="#111111" d="M 779.5,346.5 C 778.662,346.842 778.328,347.508 778.5,348.5C 776.149,343.965 772.482,340.798 767.5,339C 762.405,337.668 758.072,338.835 754.5,342.5C 757.279,345.727 760.279,348.727 763.5,351.5C 762.833,351.5 762.167,351.5 761.5,351.5C 758.096,348.088 754.429,345.088 750.5,342.5C 758.389,335.112 766.722,334.612 775.5,341C 777.439,342.432 778.772,344.265 779.5,346.5 Z"/></g>
<g><path style="opacity:0.495" fill="#252525" d="M 245.5,336.5 C 250.676,336.183 255.676,336.849 260.5,338.5C 260.672,339.492 260.338,340.158 259.5,340.5C 254.228,339.6 248.895,339.267 243.5,339.5C 243.062,339.565 242.728,339.399 242.5,339C 244.119,338.764 245.119,337.931 245.5,336.5 Z"/></g>
<g><path style="opacity:0.966" fill="#020202" d="M 243.5,339.5 C 248.895,339.267 254.228,339.6 259.5,340.5C 263.532,342.196 266.865,344.863 269.5,348.5C 259.316,357.848 249.816,367.514 241,377.5C 244.227,380.414 248.06,382.081 252.5,382.5C 260.661,381.35 266.828,377.35 271,370.5C 272.149,367.607 272.649,364.607 272.5,361.5C 274.781,361.923 276.448,361.256 277.5,359.5C 278.117,359.611 278.617,359.944 279,360.5C 280.468,366.897 279.135,372.564 275,377.5C 257.517,395.344 241.517,394.011 227,373.5C 226.187,371.564 225.687,369.564 225.5,367.5C 226.222,367.918 226.722,368.584 227,369.5C 225.672,358.936 228.839,350.103 236.5,343C 239.069,342.102 241.402,340.935 243.5,339.5 Z M 234.5,357.5 C 235.73,354.055 237.73,351.055 240.5,348.5C 245.576,345.323 250.91,344.823 256.5,347C 258.255,347.72 259.089,348.887 259,350.5C 251.667,357.167 244.333,363.833 237,370.5C 234.826,366.454 233.993,362.121 234.5,357.5 Z"/></g>
<g><path style="opacity:0.145" fill="#161616" d="M 278.5,324.5 C 285.851,333.19 292.851,342.19 299.5,351.5C 299.631,352.376 299.298,353.043 298.5,353.5C 292.297,344.449 285.463,335.782 278,327.5C 277.26,326.251 277.427,325.251 278.5,324.5 Z"/></g>
<g><path style="opacity:0.09" fill="#1b1b1b" d="M 714.5,347.5 C 714.557,346.391 714.89,345.391 715.5,344.5C 716.505,342.438 718.171,341.604 720.5,342C 718.789,344.589 716.955,347.089 715,349.5C 714.536,348.906 714.369,348.239 714.5,347.5 Z"/></g>
<g><path style="opacity:0.537" fill="#121212" d="M 786.5,345.5 C 786.631,346.239 786.464,346.906 786,347.5C 777.314,331.383 764.814,327.55 748.5,336C 736.504,346.804 734.837,358.97 743.5,372.5C 743.376,373.107 743.043,373.44 742.5,373.5C 734.597,364.436 733.43,354.436 739,343.5C 747.064,331.053 758.23,326.886 772.5,331C 779.41,333.742 784.077,338.576 786.5,345.5 Z"/></g>
<g><path style="opacity:0.353" fill="#222222" d="M 787.5,348.5 C 788.833,352.5 788.833,356.5 787.5,360.5C 786.167,356.5 786.167,352.5 787.5,348.5 Z"/></g>
<g><path style="opacity:0.28" fill="#1a1a1a" d="M 779.5,346.5 C 782.441,353.193 781.775,359.526 777.5,365.5C 771.825,361.154 766.492,356.488 761.5,351.5C 762.167,351.5 762.833,351.5 763.5,351.5C 768.107,354.768 772.441,358.435 776.5,362.5C 779.498,358.181 780.165,353.514 778.5,348.5C 778.328,347.508 778.662,346.842 779.5,346.5 Z"/></g>
<g><path style="opacity:0.954" fill="#020202" d="M 836.5,371.5 C 837.965,372.406 838.965,373.739 839.5,375.5C 837.684,377.817 835.684,379.984 833.5,382C 823.243,389.586 813.577,397.919 804.5,407C 792.53,416.596 781.697,415.429 772,403.5C 767.551,397.113 766.717,390.446 769.5,383.5C 769.351,384.552 769.517,385.552 770,386.5C 771.401,384.808 773.234,384.141 775.5,384.5C 773.59,393.848 776.923,400.681 785.5,405C 790.774,405.537 795.44,404.037 799.5,400.5C 809.205,391.46 819.205,382.793 829.5,374.5C 828.675,373.614 827.675,373.281 826.5,373.5C 821.866,368.695 817.366,363.695 813,358.5C 812.517,357.552 812.351,356.552 812.5,355.5C 814.65,355.095 816.65,354.595 818.5,354C 824.542,360.373 830.208,367.04 835.5,374C 836.167,374.667 836.833,374.667 837.5,374C 836.748,373.329 836.414,372.496 836.5,371.5 Z"/></g>
<g><path style="opacity:0.21" fill="#171717" d="M 836.5,371.5 C 836.414,372.496 836.748,373.329 837.5,374C 836.833,374.667 836.167,374.667 835.5,374C 830.208,367.04 824.542,360.373 818.5,354C 816.65,354.595 814.65,355.095 812.5,355.5C 813.957,351.951 816.623,350.784 820.5,352C 825.698,358.689 831.031,365.189 836.5,371.5 Z"/></g>
<g><path style="opacity:0.195" fill="#161616" d="M 234.5,357.5 C 233.993,362.121 234.826,366.454 237,370.5C 244.333,363.833 251.667,357.167 259,350.5C 259.089,348.887 258.255,347.72 256.5,347C 250.91,344.823 245.576,345.323 240.5,348.5C 239.262,348.19 239.262,347.69 240.5,347C 247.696,342.208 254.696,342.541 261.5,348C 262.451,348.718 262.617,349.551 262,350.5C 253.667,358.167 245.333,365.833 237,373.5C 232.277,368.505 231.444,363.172 234.5,357.5 Z"/></g>
<g><path style="opacity:0.291" fill="#191919" d="M 245.5,336.5 C 245.119,337.931 244.119,338.764 242.5,339C 242.728,339.399 243.062,339.565 243.5,339.5C 241.402,340.935 239.069,342.102 236.5,343C 228.839,350.103 225.672,358.936 227,369.5C 226.722,368.584 226.222,367.918 225.5,367.5C 223.974,362.118 224.474,356.784 227,351.5C 231.567,344.424 237.733,339.424 245.5,336.5 Z"/></g>
<g><path style="opacity:0.102" fill="#141414" d="M 785.5,365.5 C 784.363,368.229 783.03,370.896 781.5,373.5C 779.926,374.631 778.259,374.798 776.5,374C 771.938,369.269 767.271,364.769 762.5,360.5C 762.435,360.062 762.601,359.728 763,359.5C 768.02,364.021 773.187,368.355 778.5,372.5C 781.374,370.423 783.541,367.756 785,364.5C 785.399,364.728 785.565,365.062 785.5,365.5 Z"/></g>
<g><path style="opacity:0.086" fill="#151515" d="M 260.5,338.5 C 264.124,340.951 267.624,343.617 271,346.5C 271.667,347.833 271.667,349.167 271,350.5C 261.495,358.396 252.495,366.729 244,375.5C 243.333,376.167 243.333,376.833 244,377.5C 256.603,382.377 265.603,378.377 271,365.5C 271.495,363.527 271.662,361.527 271.5,359.5C 273.5,359.5 275.5,359.5 277.5,359.5C 276.448,361.256 274.781,361.923 272.5,361.5C 272.649,364.607 272.149,367.607 271,370.5C 266.828,377.35 260.661,381.35 252.5,382.5C 248.06,382.081 244.227,380.414 241,377.5C 249.816,367.514 259.316,357.848 269.5,348.5C 266.865,344.863 263.532,342.196 259.5,340.5C 260.338,340.158 260.672,339.492 260.5,338.5 Z"/></g>
<g><path style="opacity:0.965" fill="#030303" d="M 220.5,381.5 C 221.5,381.833 222.167,382.5 222.5,383.5C 221.761,383.369 221.094,383.536 220.5,384C 222.447,389.949 225.28,395.449 229,400.5C 228.891,399.231 229.058,398.231 229.5,397.5C 232.343,403.351 235.343,409.184 238.5,415C 237.324,417.686 235.657,420.019 233.5,422C 222.047,419.457 210.714,416.623 199.5,413.5C 200.873,413.657 202.207,413.49 203.5,413C 195.876,411.355 188.543,408.855 181.5,405.5C 182.48,404.019 183.647,402.685 185,401.5C 192.776,403.924 200.61,406.258 208.5,408.5C 209.416,408.457 210.083,408.124 210.5,407.5C 213.237,407.401 215.904,407.735 218.5,408.5C 216.362,408.938 214.028,409.105 211.5,409C 217.382,411.478 223.382,412.645 229.5,412.5C 228.143,410.435 226.81,408.435 225.5,406.5C 220.266,395.699 214.766,385.032 209,374.5C 208.517,375.448 208.351,376.448 208.5,377.5C 206.028,374.786 206.028,372.119 208.5,369.5C 208.369,370.239 208.536,370.906 209,371.5C 209.833,370.5 210.667,369.5 211.5,368.5C 214.2,372.704 216.7,377.037 219,381.5C 219.69,382.738 220.19,382.738 220.5,381.5 Z"/></g>
<g><path style="opacity:0.282" fill="#191919" d="M 220.5,381.5 C 220.19,382.738 219.69,382.738 219,381.5C 216.7,377.037 214.2,372.704 211.5,368.5C 210.667,369.5 209.833,370.5 209,371.5C 208.536,370.906 208.369,370.239 208.5,369.5C 209.072,366.756 210.738,365.923 213.5,367C 215.695,371.891 218.028,376.724 220.5,381.5 Z"/></g>
<g><path style="opacity:0.298" fill="#1f1f1f" d="M 757.5,374.5 C 760.764,375.324 764.098,375.658 767.5,375.5C 767.5,376.5 767.5,377.5 767.5,378.5C 764.587,377.759 761.587,377.259 758.5,377C 755.598,376.081 755.265,375.248 757.5,374.5 Z"/></g>
<g><path style="opacity:0.429" fill="#191919" d="M 222.5,383.5 C 224.319,388.472 226.653,393.139 229.5,397.5C 229.058,398.231 228.891,399.231 229,400.5C 225.28,395.449 222.447,389.949 220.5,384C 221.094,383.536 221.761,383.369 222.5,383.5 Z"/></g>
<g><path style="opacity:0.522" fill="#131313" d="M 225.5,406.5 C 225.768,408.099 225.434,409.432 224.5,410.5C 223.633,407.092 222.467,403.758 221,400.5C 216.823,392.811 212.656,385.144 208.5,377.5C 208.351,376.448 208.517,375.448 209,374.5C 214.766,385.032 220.266,395.699 225.5,406.5 Z"/></g>
<g><path style="opacity:0.276" fill="#111111" d="M 826.5,373.5 C 827.675,373.281 828.675,373.614 829.5,374.5C 819.205,382.793 809.205,391.46 799.5,400.5C 795.44,404.037 790.774,405.537 785.5,405C 776.923,400.681 773.59,393.848 775.5,384.5C 773.234,384.141 771.401,384.808 770,386.5C 769.517,385.552 769.351,384.552 769.5,383.5C 772.167,383.5 774.833,383.5 777.5,383.5C 775.125,393.417 778.625,400.417 788,404.5C 791.705,403.064 795.205,401.231 798.5,399C 807.73,390.265 817.063,381.765 826.5,373.5 Z"/></g>
<g><path style="opacity:0.975" fill="#050505" d="M 854.5,428.5 C 854.33,429.822 854.663,430.989 855.5,432C 854.934,432.995 854.267,433.828 853.5,434.5C 851.898,432.926 849.898,432.259 847.5,432.5C 846.422,424.845 843.089,418.345 837.5,413C 830.864,409.604 826.864,411.438 825.5,418.5C 826.831,424.326 828.664,429.993 831,435.5C 831.483,434.552 831.649,433.552 831.5,432.5C 835.487,438.927 835.321,445.26 831,451.5C 825.757,455.752 819.924,456.585 813.5,454C 802.008,446.349 796.674,435.682 797.5,422C 800.143,420.564 802.81,420.398 805.5,421.5C 805.806,429.576 808.64,436.576 814,442.5C 818.668,448.259 822.168,447.759 824.5,441C 823.057,434.275 820.89,427.775 818,421.5C 817.333,418.5 817.333,415.5 818,412.5C 818.278,411.584 818.778,410.918 819.5,410.5C 819.369,411.239 819.536,411.906 820,412.5C 825.096,405.286 831.596,403.786 839.5,408C 846.502,414.35 851.002,422.183 853,431.5C 853.232,430.263 853.732,429.263 854.5,428.5 Z"/></g>
<g><path style="opacity:0.804" fill="#121212" d="M 210.5,407.5 C 210.083,408.124 209.416,408.457 208.5,408.5C 200.61,406.258 192.776,403.924 185,401.5C 183.647,402.685 182.48,404.019 181.5,405.5C 188.543,408.855 195.876,411.355 203.5,413C 202.207,413.49 200.873,413.657 199.5,413.5C 192.738,412.143 186.071,410.476 179.5,408.5C 179.691,403.974 182.025,401.308 186.5,400.5C 194.645,402.439 202.645,404.772 210.5,407.5 Z"/></g>
<g><path style="opacity:0.329" fill="#212121" d="M 225.5,406.5 C 226.81,408.435 228.143,410.435 229.5,412.5C 223.382,412.645 217.382,411.478 211.5,409C 214.028,409.105 216.362,408.938 218.5,408.5C 220.579,408.971 222.579,409.637 224.5,410.5C 225.434,409.432 225.768,408.099 225.5,406.5 Z"/></g>
<g><path style="opacity:0.055" fill="#151515" d="M 853.5,434.5 C 851.143,434.663 848.81,434.497 846.5,434C 845.245,427.654 842.745,421.821 839,416.5C 835.791,413.483 832.291,412.983 828.5,415C 827.903,416.062 827.57,417.228 827.5,418.5C 829.321,423.003 830.654,427.67 831.5,432.5C 831.649,433.552 831.483,434.552 831,435.5C 828.664,429.993 826.831,424.326 825.5,418.5C 826.864,411.438 830.864,409.604 837.5,413C 843.089,418.345 846.422,424.845 847.5,432.5C 849.898,432.259 851.898,432.926 853.5,434.5 Z"/></g>
<g><path style="opacity:0.502" fill="#1a1a1a" d="M 854.5,428.5 C 853.732,429.263 853.232,430.263 853,431.5C 851.002,422.183 846.502,414.35 839.5,408C 831.596,403.786 825.096,405.286 820,412.5C 819.536,411.906 819.369,411.239 819.5,410.5C 824.23,403.894 830.564,402.06 838.5,405C 844.729,408.601 849.229,413.767 852,420.5C 853.136,423.096 853.969,425.763 854.5,428.5 Z"/></g>
<g><path style="opacity:0.968" fill="#020202" d="M 184.5,453.5 C 183.828,456.343 182.495,458.843 180.5,461C 181.858,461.934 183.192,462.768 184.5,463.5C 193.249,465.378 200.082,461.045 205,450.5C 206.663,446.54 206.83,442.54 205.5,438.5C 207.045,437.548 208.712,437.215 210.5,437.5C 212.46,458.202 203.127,469.535 182.5,471.5C 172.99,470.491 165.823,465.825 161,457.5C 157.996,450.177 157.829,442.844 160.5,435.5C 161.117,435.611 161.617,435.944 162,436.5C 171.094,421.185 183.261,418.019 198.5,427C 193.541,435.084 188.707,443.251 184,451.5C 183.308,452.437 183.475,453.103 184.5,453.5 Z M 181.5,429.5 C 188.907,428.654 190.241,430.987 185.5,436.5C 184.326,437.514 183.66,438.847 183.5,440.5C 179.932,445.259 176.932,450.426 174.5,456C 172.332,456.249 170.665,455.416 169.5,453.5C 164.976,441.333 168.976,433.333 181.5,429.5 Z"/></g>
<g><path style="opacity:0.496" fill="#1b1b1b" d="M 185.5,436.5 C 190.241,430.987 188.907,428.654 181.5,429.5C 182.334,428.252 183.667,427.585 185.5,427.5C 188.057,427.442 190.39,428.109 192.5,429.5C 191,431.833 189.5,434.167 188,436.5C 187.23,437.598 186.397,437.598 185.5,436.5 Z"/></g>
<g><path style="opacity:0.58" fill="#171717" d="M 169.5,453.5 C 170.665,455.416 172.332,456.249 174.5,456C 176.932,450.426 179.932,445.259 183.5,440.5C 184.363,439.537 185.03,439.537 185.5,440.5C 181.694,446.616 178.027,452.783 174.5,459C 172.544,458.778 170.71,457.945 169,456.5C 168.26,455.251 168.427,454.251 169.5,453.5 Z"/></g>
<g><path style="opacity:0.435" fill="#161616" d="M 184.5,453.5 C 183.475,453.103 183.308,452.437 184,451.5C 188.707,443.251 193.541,435.084 198.5,427C 183.261,418.019 171.094,421.185 162,436.5C 161.617,435.944 161.117,435.611 160.5,435.5C 169.344,419.946 182.01,416.113 198.5,424C 199.591,426.064 199.758,428.231 199,430.5C 194.248,438.325 189.414,445.992 184.5,453.5 Z"/></g>
<g><path style="opacity:0.283" fill="#171717" d="M 829.5,461.5 C 829.631,462.239 829.464,462.906 829,463.5C 824.034,461.242 820.868,462.742 819.5,468C 815.112,469.407 810.779,470.907 806.5,472.5C 805.226,471.811 805.226,470.977 806.5,470C 809.73,468.692 813.064,467.692 816.5,467C 818.289,464.721 820.289,462.721 822.5,461C 825.039,460.204 827.372,460.371 829.5,461.5 Z"/></g>
<g><path style="opacity:0.972" fill="#030303" d="M 829.5,461.5 C 832.408,465.24 832.075,468.74 828.5,472C 821.589,474.42 814.589,475.586 807.5,475.5C 806.873,474.583 806.539,473.583 806.5,472.5C 810.779,470.907 815.112,469.407 819.5,468C 820.868,462.742 824.034,461.242 829,463.5C 829.464,462.906 829.631,462.239 829.5,461.5 Z"/></g>
<g><path style="opacity:0.301" fill="#0e0e0e" d="M 182.5,471.5 C 203.127,469.535 212.46,458.202 210.5,437.5C 208.712,437.215 207.045,437.548 205.5,438.5C 206.83,442.54 206.663,446.54 205,450.5C 200.082,461.045 193.249,465.378 184.5,463.5C 199.434,460.65 205.767,451.65 203.5,436.5C 206.554,435.679 209.554,435.679 212.5,436.5C 214.786,450.772 209.786,461.939 197.5,470C 192.599,471.325 187.599,471.825 182.5,471.5 Z"/></g>
<g><path style="opacity:0.929" fill="#030303" d="M 167.5,472.5 C 181.549,482.301 186.382,495.634 182,512.5C 177.754,522.244 174.254,532.244 171.5,542.5C 169.073,542.477 166.74,541.977 164.5,541C 145.557,533.356 126.557,526.022 107.5,519C 106.978,518.439 106.645,517.772 106.5,517C 108.816,511.874 110.816,506.708 112.5,501.5C 112.393,503.379 112.893,503.712 114,502.5C 116.881,494.407 120.547,486.74 125,479.5C 126.873,477.291 129.04,475.458 131.5,474C 137.13,472.068 142.797,470.234 148.5,468.5C 152.552,469.709 156.552,471.042 160.5,472.5C 162.777,472.015 164.944,472.681 167,474.5C 167.464,473.906 167.631,473.239 167.5,472.5 Z M 173.5,495.5 C 173.443,497.884 173.777,500.218 174.5,502.5C 171.837,511.162 169.17,519.828 166.5,528.5C 165.277,529.614 163.944,529.781 162.5,529C 154.371,526.431 146.371,523.598 138.5,520.5C 131.505,518.277 124.838,515.277 118.5,511.5C 121.361,503.426 124.527,495.426 128,487.5C 140.68,474.894 154.013,474.228 168,485.5C 170.13,488.767 171.963,492.1 173.5,495.5 Z"/></g>
<g><path style="opacity:0.325" fill="#151515" d="M 167.5,472.5 C 167.631,473.239 167.464,473.906 167,474.5C 164.944,472.681 162.777,472.015 160.5,472.5C 156.552,471.042 152.552,469.709 148.5,468.5C 142.797,470.234 137.13,472.068 131.5,474C 129.04,475.458 126.873,477.291 125,479.5C 120.547,486.74 116.881,494.407 114,502.5C 112.893,503.712 112.393,503.379 112.5,501.5C 120.409,471.555 138.742,461.889 167.5,472.5 Z"/></g>
<g><path style="opacity:0.963" fill="#020202" d="M 910.5,505.5 C 911.461,507.265 911.795,509.265 911.5,511.5C 913.226,531.61 903.892,541.11 883.5,540C 879.127,538.287 875.293,535.787 872,532.5C 866.436,538.25 861.769,544.584 858,551.5C 857.333,552.167 856.667,552.833 856,553.5C 855.71,551.956 855.044,550.623 854,549.5C 853.536,550.094 853.369,550.761 853.5,551.5C 852.661,550.359 851.994,549.026 851.5,547.5C 851.624,546.893 851.957,546.56 852.5,546.5C 854.017,546.489 855.184,545.823 856,544.5C 860.113,538.053 864.613,531.886 869.5,526C 866.345,519.369 863.678,512.536 861.5,505.5C 859.813,504.432 858.146,504.599 856.5,506C 857.094,506.464 857.761,506.631 858.5,506.5C 852.734,509.972 846.401,511.638 839.5,511.5C 838.477,508.607 838.477,505.774 839.5,503C 850.018,498.994 860.684,495.494 871.5,492.5C 871.735,493.097 872.235,493.43 873,493.5C 882.17,490.436 891.336,487.436 900.5,484.5C 903.085,491.083 905.585,497.75 908,504.5C 908.919,507.402 909.752,507.735 910.5,505.5 Z M 898.5,498.5 C 900.784,504.682 902.45,511.015 903.5,517.5C 903.913,521.299 902.913,524.633 900.5,527.5C 887.798,535.933 878.798,532.933 873.5,518.5C 873.204,516.597 872.537,514.93 871.5,513.5C 871.353,510.557 870.687,507.724 869.5,505C 876.718,500.977 884.384,497.81 892.5,495.5C 893.93,495.579 895.264,495.246 896.5,494.5C 897.172,495.949 897.839,497.282 898.5,498.5 Z"/></g>
<g><path style="opacity:0.694" fill="#161616" d="M 910.5,505.5 C 909.752,507.735 908.919,507.402 908,504.5C 905.585,497.75 903.085,491.083 900.5,484.5C 891.336,487.436 882.17,490.436 873,493.5C 872.235,493.43 871.735,493.097 871.5,492.5C 880.143,489.337 888.809,486.17 897.5,483C 899.473,482.505 901.473,482.338 903.5,482.5C 905.529,490.234 907.863,497.901 910.5,505.5 Z"/></g>
<g><path style="opacity:0.308" fill="#101010" d="M 892.5,495.5 C 884.384,497.81 876.718,500.977 869.5,505C 870.687,507.724 871.353,510.557 871.5,513.5C 871.587,516.598 871.087,516.932 870,514.5C 868.316,510.284 867.149,505.951 866.5,501.5C 873.866,500.656 880.699,498.323 887,494.5C 888.909,494.673 890.743,495.007 892.5,495.5 Z"/></g>
<g><path style="opacity:0.525" fill="#151515" d="M 138.5,520.5 C 146.371,523.598 154.371,526.431 162.5,529C 163.944,529.781 165.277,529.614 166.5,528.5C 169.17,519.828 171.837,511.162 174.5,502.5C 173.777,500.218 173.443,497.884 173.5,495.5C 173.343,494.127 173.51,492.793 174,491.5C 176.371,496.939 177.037,502.606 176,508.5C 173.201,516.76 169.868,524.76 166,532.5C 155.893,528.531 145.727,524.698 135.5,521C 136.448,520.517 137.448,520.351 138.5,520.5 Z"/></g>
<g><path style="opacity:0.527" fill="#181818" d="M 873.5,518.5 C 878.798,532.933 887.798,535.933 900.5,527.5C 902.913,524.633 903.913,521.299 903.5,517.5C 902.45,511.015 900.784,504.682 898.5,498.5C 898.343,497.127 898.51,495.793 899,494.5C 902.396,502.019 904.563,509.852 905.5,518C 904.044,530.258 897.044,535.592 884.5,534C 877.191,530.714 873.024,525.214 872,517.5C 872.383,518.056 872.883,518.389 873.5,518.5 Z"/></g>
<g><path style="opacity:0.698" fill="#121212" d="M 852.5,546.5 C 856.92,539.565 861.587,532.732 866.5,526C 864.501,521.355 863.001,516.522 862,511.5C 861.451,509.24 860.284,507.574 858.5,506.5C 857.761,506.631 857.094,506.464 856.5,506C 858.146,504.599 859.813,504.432 861.5,505.5C 863.678,512.536 866.345,519.369 869.5,526C 864.613,531.886 860.113,538.053 856,544.5C 855.184,545.823 854.017,546.489 852.5,546.5 Z"/></g>
<g><path style="opacity:0.39" fill="#0e0e0e" d="M 911.5,511.5 C 915.692,526.802 910.358,536.969 895.5,542C 886.528,544.23 878.861,542.064 872.5,535.5C 866.675,541.291 861.675,547.791 857.5,555C 854.862,555.509 853.528,554.342 853.5,551.5C 853.369,550.761 853.536,550.094 854,549.5C 855.044,550.623 855.71,551.956 856,553.5C 856.667,552.833 857.333,552.167 858,551.5C 861.769,544.584 866.436,538.25 872,532.5C 875.293,535.787 879.127,538.287 883.5,540C 903.892,541.11 913.226,531.61 911.5,511.5 Z"/></g>
<g><path style="opacity:0.976" fill="#030303" d="M 908.5,566.5 C 915.619,584.097 910.286,596.264 892.5,603C 890.167,603.667 887.833,603.667 885.5,603C 884.944,602.617 884.611,602.117 884.5,601.5C 885.649,601.209 886.316,600.376 886.5,599C 886.088,595.973 885.421,593.14 884.5,590.5C 884.453,587.432 883.953,584.432 883,581.5C 882.809,583.708 882.309,585.708 881.5,587.5C 880.542,579.438 879.375,571.438 878,563.5C 873.647,565.355 870.481,568.355 868.5,572.5C 867.603,571.402 866.77,571.402 866,572.5C 863.388,582.611 865.888,591.111 873.5,598C 872.924,600.268 871.59,601.268 869.5,601C 864.683,596.849 861.517,591.682 860,585.5C 859.517,586.448 859.351,587.448 859.5,588.5C 856.905,582.51 856.905,576.51 859.5,570.5C 859.351,571.552 859.517,572.552 860,573.5C 864.189,561.887 872.522,555.554 885,554.5C 894.59,555.104 901.923,559.437 907,567.5C 907.383,566.944 907.883,566.611 908.5,566.5 Z M 899.5,568.5 C 904.066,576.707 903.066,584.207 896.5,591C 894.975,592.009 893.308,592.509 891.5,592.5C 890.167,584.833 888.833,577.167 887.5,569.5C 887.25,566.786 887.083,564.119 887,561.5C 891.847,562.672 896.014,565.006 899.5,568.5 Z"/></g>
<g><path style="opacity:0.314" fill="#191919" d="M 908.5,566.5 C 907.883,566.611 907.383,566.944 907,567.5C 901.923,559.437 894.59,555.104 885,554.5C 872.522,555.554 864.189,561.887 860,573.5C 859.517,572.552 859.351,571.552 859.5,570.5C 864.135,559.248 872.635,553.248 885,552.5C 895.481,552.831 903.314,557.497 908.5,566.5 Z"/></g>
<g><path style="opacity:0.306" fill="#131313" d="M 117.5,619.5 C 118.622,618.844 119.955,618.511 121.5,618.5C 133.177,619.834 144.843,621.168 156.5,622.5C 156.5,620.5 156.5,618.5 156.5,616.5C 153.482,616.665 150.482,616.498 147.5,616C 159.35,607.435 162.517,596.268 157,582.5C 149.791,572.204 139.958,568.37 127.5,571C 117.718,574.45 111.884,581.283 110,591.5C 109.517,590.552 109.351,589.552 109.5,588.5C 110.499,584.858 111.665,581.191 113,577.5C 122.211,568.514 133.044,566.014 145.5,570C 159.619,576.993 164.452,588.16 160,603.5C 158.628,607.862 156.128,611.362 152.5,614C 159.465,614.268 161.131,617.268 157.5,623C 144.048,623.265 130.715,622.098 117.5,619.5 Z"/></g>
<g><path style="opacity:0.976" fill="#010101" d="M 117.5,619.5 C 107.489,618.499 97.4891,617.332 87.5,616C 85.6885,614.959 85.3552,613.793 86.5,612.5C 86.56,613.043 86.8933,613.376 87.5,613.5C 88.4287,612.311 88.762,610.978 88.5,609.5C 97.9266,609.752 107.26,610.752 116.5,612.5C 117.711,611.726 117.711,610.893 116.5,610C 114.891,609.929 113.224,610.096 111.5,610.5C 109.97,610.36 108.97,609.693 108.5,608.5C 109.847,609.028 111.181,609.195 112.5,609C 108.67,602.446 107.67,595.613 109.5,588.5C 109.351,589.552 109.517,590.552 110,591.5C 111.884,581.283 117.718,574.45 127.5,571C 139.958,568.37 149.791,572.204 157,582.5C 162.517,596.268 159.35,607.435 147.5,616C 150.482,616.498 153.482,616.665 156.5,616.5C 156.5,618.5 156.5,620.5 156.5,622.5C 144.843,621.168 133.177,619.834 121.5,618.5C 119.955,618.511 118.622,618.844 117.5,619.5 Z M 152.5,593.5 C 152.339,605.994 146.006,611.994 133.5,611.5C 122.925,611.052 117.592,605.552 117.5,595C 117.961,584.502 123.461,578.668 134,577.5C 144.498,578.182 150.665,583.516 152.5,593.5 Z"/></g>
<g><path style="opacity:0.72" fill="#1b1b1b" d="M 868.5,572.5 C 865.929,581.609 868.096,589.275 875,595.5C 875.566,598.979 874.233,601.645 871,603.5C 864.757,600.349 860.924,595.349 859.5,588.5C 859.351,587.448 859.517,586.448 860,585.5C 861.517,591.682 864.683,596.849 869.5,601C 871.59,601.268 872.924,600.268 873.5,598C 865.888,591.111 863.388,582.611 866,572.5C 866.77,571.402 867.603,571.402 868.5,572.5 Z"/></g>
<g><path style="opacity:0.224" fill="#292929" d="M 884.5,590.5 C 884.631,591.239 884.464,591.906 884,592.5C 883.878,590.563 883.045,589.23 881.5,588.5C 881.5,588.167 881.5,587.833 881.5,587.5C 882.309,585.708 882.809,583.708 883,581.5C 883.953,584.432 884.453,587.432 884.5,590.5 Z"/></g>
<g><path style="opacity:0.587" fill="#171717" d="M 881.5,588.5 C 883.045,589.23 883.878,590.563 884,592.5C 884.464,591.906 884.631,591.239 884.5,590.5C 885.421,593.14 886.088,595.973 886.5,599C 886.316,600.376 885.649,601.209 884.5,601.5C 883.624,597.116 882.624,592.783 881.5,588.5 Z"/></g>
<g><path style="opacity:0.422" fill="#191919" d="M 887.5,569.5 C 888.833,577.167 890.167,584.833 891.5,592.5C 893.308,592.509 894.975,592.009 896.5,591C 903.066,584.207 904.066,576.707 899.5,568.5C 900.077,567.227 900.743,567.227 901.5,568.5C 906.316,577.65 904.983,585.817 897.5,593C 895.091,594.707 892.425,595.54 889.5,595.5C 887.567,586.239 886.4,576.905 886,567.5C 886.278,568.416 886.778,569.082 887.5,569.5 Z"/></g>
<g><path style="opacity:0.182" fill="#1d1d1d" d="M 108.5,608.5 C 108.97,609.693 109.97,610.36 111.5,610.5C 113.224,610.096 114.891,609.929 116.5,610C 117.711,610.893 117.711,611.726 116.5,612.5C 107.26,610.752 97.9266,609.752 88.5,609.5C 88.762,610.978 88.4287,612.311 87.5,613.5C 86.8933,613.376 86.56,613.043 86.5,612.5C 86.5,610.833 86.5,609.167 86.5,607.5C 93.8578,607.418 101.191,607.752 108.5,608.5 Z"/></g>
<g><path style="opacity:0.351" fill="#121212" d="M 152.5,587.5 C 152.5,589.5 152.5,591.5 152.5,593.5C 150.665,583.516 144.498,578.182 134,577.5C 123.461,578.668 117.961,584.502 117.5,595C 117.592,605.552 122.925,611.052 133.5,611.5C 133.167,612.167 132.833,612.833 132.5,613.5C 120.095,612.042 114.262,605.042 115,592.5C 118.135,580.372 125.968,574.872 138.5,576C 145.051,577.746 149.718,581.579 152.5,587.5 Z"/></g>
<g><path style="opacity:0.395" fill="#1b1b1b" d="M 890.5,616.5 C 890.631,617.239 890.464,617.906 890,618.5C 884.011,610.756 877.011,609.756 869,615.5C 868.536,614.906 868.369,614.239 868.5,613.5C 876.861,607.354 884.194,608.354 890.5,616.5 Z"/></g>
<g><path style="opacity:0.551" fill="#1c1c1c" d="M 152.5,587.5 C 156.824,602.486 151.157,611.486 135.5,614.5C 134.274,614.48 133.274,614.147 132.5,613.5C 132.833,612.833 133.167,612.167 133.5,611.5C 146.006,611.994 152.339,605.994 152.5,593.5C 152.5,591.5 152.5,589.5 152.5,587.5 Z"/></g>
<g><path style="opacity:0.977" fill="#040404" d="M 890.5,616.5 C 892.245,618.033 893.245,620.033 893.5,622.5C 892.503,622.47 891.836,622.97 891.5,624C 892.45,631.456 892.784,638.956 892.5,646.5C 899.205,647.33 904.372,644.996 908,639.5C 909.497,631.208 908.33,623.375 904.5,616C 905.333,613.5 906.833,613 909,614.5C 912.88,621.453 915.047,628.787 915.5,636.5C 914.811,646.052 909.811,651.885 900.5,654C 888.171,654.5 875.838,654.667 863.5,654.5C 863.19,651.287 863.523,648.287 864.5,645.5C 864.5,648.167 864.5,650.833 864.5,653.5C 867.85,653.665 871.183,653.498 874.5,653C 871.518,652.502 868.518,652.335 865.5,652.5C 865.5,650.833 865.5,649.167 865.5,647.5C 867.924,647.808 870.257,647.474 872.5,646.5C 870.171,645.002 868.337,643.002 867,640.5C 865.362,635.129 864.195,629.796 863.5,624.5C 863.296,619.912 864.963,616.245 868.5,613.5C 868.369,614.239 868.536,614.906 869,615.5C 877.011,609.756 884.011,610.756 890,618.5C 890.464,617.906 890.631,617.239 890.5,616.5 Z M 884.5,622.5 C 884.629,624.216 884.962,625.883 885.5,627.5C 885.76,633.172 886.093,638.839 886.5,644.5C 881.633,645.411 877.633,644.078 874.5,640.5C 872.133,638.055 871.133,635.055 871.5,631.5C 870.887,620.742 875.22,617.742 884.5,622.5 Z"/></g>
<g><path style="opacity:0.817" fill="#202020" d="M 885.5,627.5 C 884.962,625.883 884.629,624.216 884.5,622.5C 884.775,620.158 885.608,620.158 887,622.5C 888.363,630.429 888.863,638.429 888.5,646.5C 885.482,646.665 882.482,646.498 879.5,646C 882.146,645.503 884.813,645.336 887.5,645.5C 887.666,640.156 887.499,634.823 887,629.5C 886.722,628.584 886.222,627.918 885.5,627.5 Z"/></g>
<g><path style="opacity:0.945" fill="#020202" d="M 136.5,662.5 C 136.5,665.5 136.5,668.5 136.5,671.5C 138.167,671.5 139.833,671.5 141.5,671.5C 146.896,669.901 150.396,665.901 152,659.5C 152.667,656.833 152.667,654.167 152,651.5C 151.814,654.036 151.314,656.369 150.5,658.5C 151.034,650.932 148.7,644.432 143.5,639C 143.639,637.699 144.305,636.866 145.5,636.5C 145.435,636.938 145.601,637.272 146,637.5C 146.837,635.993 148.004,635.493 149.5,636C 153.778,640.391 156.611,645.557 158,651.5C 157.891,650.231 158.058,649.231 158.5,648.5C 161.408,660.342 158.074,670.175 148.5,678C 145.978,679.341 143.311,680.174 140.5,680.5C 133.026,680.101 125.692,678.934 118.5,677C 116.91,675.954 115.41,674.787 114,673.5C 111.204,669.487 108.704,665.487 106.5,661.5C 105.167,658.167 105.167,654.833 106.5,651.5C 106.335,654.518 106.502,657.518 107,660.5C 107.477,643.191 116.311,633.857 133.5,632.5C 133.5,646.51 133.834,660.51 134.5,674.5C 141.395,673.491 141.728,672.824 135.5,672.5C 135.187,668.958 135.521,665.625 136.5,662.5 Z M 127.5,641.5 C 127.649,651.841 127.982,662.174 128.5,672.5C 124.413,672.288 121.079,670.622 118.5,667.5C 118.267,665.938 117.6,664.605 116.5,663.5C 113.138,652.766 116.638,645.1 127,640.5C 127.399,640.728 127.565,641.062 127.5,641.5 Z"/></g>
<g><path style="opacity:0.356" fill="#131313" d="M 915.5,636.5 C 915.047,628.787 912.88,621.453 909,614.5C 906.833,613 905.333,613.5 904.5,616C 908.33,623.375 909.497,631.208 908,639.5C 904.372,644.996 899.205,647.33 892.5,646.5C 892.784,638.956 892.45,631.456 891.5,624C 891.836,622.97 892.503,622.47 893.5,622.5C 894.43,629.777 894.764,637.11 894.5,644.5C 900.573,644.892 904.406,642.225 906,636.5C 907.102,628.966 905.602,621.966 901.5,615.5C 903.939,610.058 907.106,609.392 911,613.5C 914.872,620.801 916.372,628.468 915.5,636.5 Z"/></g>
<g><path style="opacity:0.571" fill="#1f1f1f" d="M 871.5,631.5 C 871.133,635.055 872.133,638.055 874.5,640.5C 874.631,641.239 874.464,641.906 874,642.5C 868.722,637.048 867.389,630.715 870,623.5C 870.183,626.365 870.683,629.031 871.5,631.5 Z"/></g>
<g><path style="opacity:0.558" fill="#171717" d="M 136.5,662.5 C 135.521,665.625 135.187,668.958 135.5,672.5C 141.728,672.824 141.395,673.491 134.5,674.5C 133.834,660.51 133.5,646.51 133.5,632.5C 116.311,633.857 107.477,643.191 107,660.5C 106.502,657.518 106.335,654.518 106.5,651.5C 110.471,637.37 119.804,630.87 134.5,632C 135.353,642.101 136.02,652.268 136.5,662.5 Z"/></g>
<g><path style="opacity:0.032" fill="#000000" d="M 127.5,641.5 C 128.435,649.324 129.101,657.324 129.5,665.5C 129.497,668.025 129.163,670.359 128.5,672.5C 127.982,662.174 127.649,651.841 127.5,641.5 Z"/></g>
<g><path style="opacity:0.431" fill="#131313" d="M 158.5,648.5 C 158.058,649.231 157.891,650.231 158,651.5C 156.611,645.557 153.778,640.391 149.5,636C 148.004,635.493 146.837,635.993 146,637.5C 145.601,637.272 145.435,636.938 145.5,636.5C 146.406,634.086 148.072,633.253 150.5,634C 155.158,637.803 157.825,642.636 158.5,648.5 Z"/></g>
<g><path style="opacity:0.674" fill="#1a1a1a" d="M 863.5,624.5 C 864.195,629.796 865.362,635.129 867,640.5C 868.337,643.002 870.171,645.002 872.5,646.5C 870.257,647.474 867.924,647.808 865.5,647.5C 865.5,649.167 865.5,650.833 865.5,652.5C 868.518,652.335 871.518,652.502 874.5,653C 871.183,653.498 867.85,653.665 864.5,653.5C 864.5,650.833 864.5,648.167 864.5,645.5C 865.289,645.217 865.956,644.717 866.5,644C 863.039,637.745 862.039,631.245 863.5,624.5 Z"/></g>
<g><path style="opacity:0.235" fill="#161616" d="M 118.5,667.5 C 121.079,670.622 124.413,672.288 128.5,672.5C 129.163,670.359 129.497,668.025 129.5,665.5C 129.101,657.324 128.435,649.324 127.5,641.5C 127.565,641.062 127.399,640.728 127,640.5C 116.638,645.1 113.138,652.766 116.5,663.5C 115.175,664.953 114.342,664.619 114,662.5C 111.398,649.697 116.398,641.697 129,638.5C 129.903,650.485 130.403,662.485 130.5,674.5C 124.731,674.282 120.065,671.949 116.5,667.5C 116.97,666.537 117.637,666.537 118.5,667.5 Z"/></g>
<g><path style="opacity:0.488" fill="#131313" d="M 141.5,671.5 C 145.707,667.967 148.707,663.634 150.5,658.5C 151.314,656.369 151.814,654.036 152,651.5C 152.667,654.167 152.667,656.833 152,659.5C 150.396,665.901 146.896,669.901 141.5,671.5 Z"/></g>
<g><path style="opacity:0.985" fill="#030303" d="M 906.5,672.5 C 908.669,674.34 910.002,676.674 910.5,679.5C 909.685,678.571 908.852,677.571 908,676.5C 910.825,684.278 911.159,692.278 909,700.5C 906.718,705.116 903.384,708.783 899,711.5C 898.081,708.598 897.248,708.265 896.5,710.5C 895.596,709.791 895.263,708.791 895.5,707.5C 904.37,702.431 907.536,694.765 905,684.5C 904.817,687.365 904.317,690.031 903.5,692.5C 903.447,680.277 897.28,673.611 885,672.5C 877.123,673.678 871.956,678.011 869.5,685.5C 869.071,684.047 868.904,682.381 869,680.5C 865.35,688.378 865.85,696.044 870.5,703.5C 869.917,705.002 869.084,706.335 868,707.5C 858.155,695.642 858.322,683.809 868.5,672C 881.628,662.902 894.128,663.735 906,674.5C 906.464,673.906 906.631,673.239 906.5,672.5 Z"/></g>
<g><path style="opacity:0.554" fill="#151515" d="M 106.5,661.5 C 108.704,665.487 111.204,669.487 114,673.5C 115.41,674.787 116.91,675.954 118.5,677C 125.692,678.934 133.026,680.101 140.5,680.5C 132.321,683.315 124.321,682.482 116.5,678C 111.285,673.623 107.952,668.123 106.5,661.5 Z"/></g>
<g><path style="opacity:0.157" fill="#1d1d1d" d="M 906.5,672.5 C 906.631,673.239 906.464,673.906 906,674.5C 894.128,663.735 881.628,662.902 868.5,672C 858.322,683.809 858.155,695.642 868,707.5C 869.084,706.335 869.917,705.002 870.5,703.5C 865.85,696.044 865.35,688.378 869,680.5C 868.904,682.381 869.071,684.047 869.5,685.5C 868.532,688.445 868.366,691.445 869,694.5C 870.054,697.433 871.22,700.266 872.5,703C 869.735,711.447 866.235,711.613 862,703.5C 856.175,688.317 859.675,675.817 872.5,666C 885.408,660.974 896.741,663.141 906.5,672.5 Z"/></g>
<g><path style="opacity:0.067" fill="#121212" d="M 910.5,679.5 C 913.532,688.73 912.699,697.73 908,706.5C 905.834,709.507 903.001,711.507 899.5,712.5C 897.962,712.547 896.962,711.88 896.5,710.5C 897.248,708.265 898.081,708.598 899,711.5C 903.384,708.783 906.718,705.116 909,700.5C 911.159,692.278 910.825,684.278 908,676.5C 908.852,677.571 909.685,678.571 910.5,679.5 Z"/></g>
<g><path style="opacity:0.871" fill="#030303" d="M 163.5,704.5 C 164.814,706.895 164.814,709.395 163.5,712C 148.833,722 134.167,732 119.5,742C 136.695,743.61 154.028,744.943 171.5,746C 172.766,746.309 173.933,746.809 175,747.5C 176.124,750.442 176.458,753.442 176,756.5C 156.605,769.254 137.105,781.92 117.5,794.5C 115.329,792.517 113.995,790.017 113.5,787C 113.759,785.739 114.426,784.739 115.5,784C 130.5,774.333 145.5,764.667 160.5,755C 141.867,752.669 123.201,750.836 104.5,749.5C 102.91,745.738 103.243,742.238 105.5,739C 120.167,729.667 134.833,720.333 149.5,711C 135.178,709.644 120.844,708.477 106.5,707.5C 106.611,706.883 106.944,706.383 107.5,706C 103.128,705.579 98.7946,704.912 94.5,704C 93.6198,702.644 93.2865,701.144 93.5,699.5C 116.174,700.821 138.841,702.321 161.5,704C 162.191,705.067 162.691,706.234 163,707.5C 163.483,706.552 163.649,705.552 163.5,704.5 Z"/></g>
<g><path style="opacity:0.404" fill="#1c1c1c" d="M 895.5,707.5 C 895.351,706.448 895.517,705.448 896,704.5C 900.262,701.651 902.762,697.651 903.5,692.5C 904.317,690.031 904.817,687.365 905,684.5C 907.536,694.765 904.37,702.431 895.5,707.5 Z"/></g>
<g><path style="opacity:0.286" fill="#131313" d="M 163.5,704.5 C 163.649,705.552 163.483,706.552 163,707.5C 162.691,706.234 162.191,705.067 161.5,704C 138.841,702.321 116.174,700.821 93.5,699.5C 93.2865,701.144 93.6198,702.644 94.5,704C 98.7946,704.912 103.128,705.579 107.5,706C 106.944,706.383 106.611,706.883 106.5,707.5C 102.103,707.575 97.77,707.075 93.5,706C 92.4392,704.151 91.7725,702.151 91.5,700C 91.3875,698.338 92.0542,697.171 93.5,696.5C 116.098,698.853 138.765,700.686 161.5,702C 162.756,702.417 163.423,703.25 163.5,704.5 Z"/></g>
<g><path style="opacity:0.977" fill="#020202" d="M 905.5,722.5 C 904.076,724.515 903.41,726.848 903.5,729.5C 907.291,730.031 910.957,731.031 914.5,732.5C 913.985,734.225 913.318,735.892 912.5,737.5C 908.952,736.03 905.285,735.03 901.5,734.5C 901.007,736.806 900.674,739.139 900.5,741.5C 900.162,743.854 899.662,746.187 899,748.5C 896.959,749.423 894.792,749.756 892.5,749.5C 891.957,749.44 891.624,749.107 891.5,748.5C 892.74,744.281 894.073,740.114 895.5,736C 885.54,733.069 875.54,730.236 865.5,727.5C 863.199,727.984 861.199,728.984 859.5,730.5C 859.19,729.262 858.69,729.262 858,730.5C 856.436,733.462 856.269,736.462 857.5,739.5C 856.264,740.357 854.931,741.023 853.5,741.5C 851.961,735.637 852.461,729.97 855,724.5C 859.173,720.809 864.007,719.642 869.5,721C 878.759,723.311 887.925,725.811 897,728.5C 898.749,728.252 899.582,727.252 899.5,725.5C 899.857,723.411 900.523,721.411 901.5,719.5C 903.483,719.815 904.816,720.815 905.5,722.5 Z"/></g>
<g><path style="opacity:0.173" fill="#1a1a1a" d="M 897.5,723.5 C 898.167,724.167 898.833,724.833 899.5,725.5C 899.582,727.252 898.749,728.252 897,728.5C 887.925,725.811 878.759,723.311 869.5,721C 864.007,719.642 859.173,720.809 855,724.5C 852.461,729.97 851.961,735.637 853.5,741.5C 854.931,741.023 856.264,740.357 857.5,739.5C 856.269,736.462 856.436,733.462 858,730.5C 858.69,729.262 859.19,729.262 859.5,730.5C 858.3,733.833 858.3,737.167 859.5,740.5C 859.182,741.647 858.516,742.481 857.5,743C 855.5,743.667 853.5,743.667 851.5,743C 847.61,733.784 849.61,726.118 857.5,720C 860.075,719.042 862.741,718.542 865.5,718.5C 875.922,719.696 886.088,722.029 896,725.5C 897.03,725.164 897.53,724.497 897.5,723.5 Z"/></g>
<g><path style="opacity:0.476" fill="#242424" d="M 907.5,723.5 C 906.508,723.672 905.842,723.338 905.5,722.5C 904.816,720.815 903.483,719.815 901.5,719.5C 900.523,721.411 899.857,723.411 899.5,725.5C 898.833,724.833 898.167,724.167 897.5,723.5C 897.621,719.911 899.454,718.244 903,718.5C 906.759,718.093 908.259,719.76 907.5,723.5 Z"/></g>
<g><path style="opacity:0.27" fill="#131313" d="M 905.5,722.5 C 905.842,723.338 906.508,723.672 907.5,723.5C 906.972,724.721 906.305,725.887 905.5,727C 905.833,727.333 906.167,727.667 906.5,728C 909.506,728.332 912.34,729.166 915,730.5C 915.301,733.507 915.135,736.507 914.5,739.5C 911.041,739.469 907.708,738.802 904.5,737.5C 903.523,739.411 902.857,741.411 902.5,743.5C 901.833,742.833 901.167,742.167 900.5,741.5C 900.674,739.139 901.007,736.806 901.5,734.5C 905.285,735.03 908.952,736.03 912.5,737.5C 913.318,735.892 913.985,734.225 914.5,732.5C 910.957,731.031 907.291,730.031 903.5,729.5C 903.41,726.848 904.076,724.515 905.5,722.5 Z"/></g>
<g><path style="opacity:0.969" fill="#020202" d="M 832.5,744.5 C 832.369,745.239 832.536,745.906 833,746.5C 833.739,745.426 834.739,744.759 836,744.5C 839.834,745.501 843.334,747.167 846.5,749.5C 849.634,746.803 852.467,747.136 855,750.5C 855.651,752.235 855.485,753.902 854.5,755.5C 849.702,757.218 845.535,756.218 842,752.5C 841.536,753.094 841.369,753.761 841.5,754.5C 838.351,752.261 835.184,749.928 832,747.5C 831.26,746.251 831.427,745.251 832.5,744.5 Z"/></g>
<g><path style="opacity:0.365" fill="#252525" d="M 900.5,741.5 C 901.167,742.167 901.833,742.833 902.5,743.5C 901.992,745.865 901.325,748.199 900.5,750.5C 897.524,751.89 894.857,751.557 892.5,749.5C 894.792,749.756 896.959,749.423 899,748.5C 899.662,746.187 900.162,743.854 900.5,741.5 Z"/></g>
<g><path style="opacity:0.067" fill="#151515" d="M 841.5,754.5 C 841.369,753.761 841.536,753.094 842,752.5C 845.535,756.218 849.702,757.218 854.5,755.5C 855.485,753.902 855.651,752.235 855,750.5C 852.467,747.136 849.634,746.803 846.5,749.5C 843.334,747.167 839.834,745.501 836,744.5C 834.739,744.759 833.739,745.426 833,746.5C 832.536,745.906 832.369,745.239 832.5,744.5C 832.484,742.516 833.484,741.516 835.5,741.5C 839.29,743.229 842.956,745.229 846.5,747.5C 854.838,744.791 858.005,747.791 856,756.5C 853.79,759.29 850.956,760.123 847.5,759C 845.34,757.668 843.34,756.168 841.5,754.5 Z"/></g>
<g><path style="opacity:0.966" fill="#030303" d="M 853.5,798.5 C 860.542,802.568 867.542,806.568 874.5,810.5C 873.761,810.369 873.094,810.536 872.5,811C 877.804,814.801 883.47,817.967 889.5,820.5C 890.107,820.376 890.44,820.043 890.5,819.5C 891.573,820.251 891.74,821.251 891,822.5C 885.572,832.363 879.905,842.03 874,851.5C 863.829,863.49 851.329,867.157 836.5,862.5C 837.239,862.631 837.906,862.464 838.5,862C 817.747,853.924 810.58,839.091 817,817.5C 817.45,815.481 818.283,813.648 819.5,812C 818.906,811.536 818.239,811.369 817.5,811.5C 817.427,809.973 818.094,808.973 819.5,808.5C 819.369,809.239 819.536,809.906 820,810.5C 824.347,803.134 828.68,795.801 833,788.5C 839.372,792.367 845.872,796.034 852.5,799.5C 853.107,799.376 853.44,799.043 853.5,798.5 Z M 879.5,823.5 C 874.927,831.643 870.094,839.643 865,847.5C 850.907,858.883 837.907,857.549 826,843.5C 824.249,841.51 823.249,839.177 823,836.5C 822.501,831.845 822.334,827.179 822.5,822.5C 826.191,816.126 829.691,809.459 833,802.5C 833.779,801.272 834.779,800.272 836,799.5C 849.858,808.679 864.358,816.679 879.5,823.5 Z"/></g>
<g><path style="opacity:0.407" fill="#141414" d="M 853.5,798.5 C 853.44,799.043 853.107,799.376 852.5,799.5C 845.872,796.034 839.372,792.367 833,788.5C 828.68,795.801 824.347,803.134 820,810.5C 819.536,809.906 819.369,809.239 819.5,808.5C 823.096,801.48 827.096,794.647 831.5,788C 839.342,790.085 846.676,793.585 853.5,798.5 Z"/></g>
<g><path style="opacity:0.4" fill="#313131" d="M 195.5,797.5 C 195.672,798.492 195.338,799.158 194.5,799.5C 194.092,798.357 193.425,797.357 192.5,796.5C 191.239,798.453 190.073,800.453 189,802.5C 188.517,801.552 188.351,800.552 188.5,799.5C 188.812,796.727 189.978,794.393 192,792.5C 194.158,793.489 195.325,795.156 195.5,797.5 Z"/></g>
<g><path style="opacity:0.975" fill="#010101" d="M 194.5,799.5 C 194.923,800.265 195.257,801.098 195.5,802C 193.5,807 191.5,812 189.5,817C 189.836,818.03 190.503,818.53 191.5,818.5C 191.204,820.403 190.537,822.07 189.5,823.5C 189.34,819.764 188.507,819.764 187,823.5C 186.731,826.352 185.897,829.018 184.5,831.5C 194.033,837.421 203.033,836.755 211.5,829.5C 212.941,830.865 214.274,832.365 215.5,834C 195.654,846.09 175.654,857.923 155.5,869.5C 154.757,868.092 153.923,866.759 153,865.5C 152.536,866.094 152.369,866.761 152.5,867.5C 151.596,866.791 151.263,865.791 151.5,864.5C 165.609,856.609 179.609,848.442 193.5,840C 191.782,839.654 190.115,839.154 188.5,838.5C 187.893,838.624 187.56,838.957 187.5,839.5C 185.901,839.768 184.568,839.434 183.5,838.5C 184.552,838.649 185.552,838.483 186.5,838C 176.458,834.93 166.458,831.764 156.5,828.5C 154.378,826.95 152.711,824.95 151.5,822.5C 159.83,824.202 168.33,826.536 177,829.5C 179.428,828.711 179.928,827.377 178.5,825.5C 181.843,816.754 185.177,808.087 188.5,799.5C 188.351,800.552 188.517,801.552 189,802.5C 190.073,800.453 191.239,798.453 192.5,796.5C 193.425,797.357 194.092,798.357 194.5,799.5 Z"/></g>
<g><path style="opacity:0.073" fill="#161616" d="M 195.5,797.5 C 196.117,797.611 196.617,797.944 197,798.5C 197.667,800.833 197.667,803.167 197,805.5C 195.063,809.817 193.23,814.15 191.5,818.5C 190.503,818.53 189.836,818.03 189.5,817C 191.5,812 193.5,807 195.5,802C 195.257,801.098 194.923,800.265 194.5,799.5C 195.338,799.158 195.672,798.492 195.5,797.5 Z"/></g>
<g><path style="opacity:0.243" fill="#151515" d="M 874.5,810.5 C 879.878,813.507 885.212,816.507 890.5,819.5C 890.44,820.043 890.107,820.376 889.5,820.5C 883.47,817.967 877.804,814.801 872.5,811C 873.094,810.536 873.761,810.369 874.5,810.5 Z"/></g>
<g><path style="opacity:0.165" fill="#111111" d="M 178.5,825.5 C 179.928,827.377 179.428,828.711 177,829.5C 168.33,826.536 159.83,824.202 151.5,822.5C 152.711,824.95 154.378,826.95 156.5,828.5C 166.458,831.764 176.458,834.93 186.5,838C 185.552,838.483 184.552,838.649 183.5,838.5C 173.491,835.776 163.491,832.942 153.5,830C 151.467,827.104 150.134,823.937 149.5,820.5C 158.809,822.236 167.976,824.569 177,827.5C 177.278,826.584 177.778,825.918 178.5,825.5 Z"/></g>
<g><path style="opacity:0.979" fill="#020202" d="M 790.5,836.5 C 790.068,837.71 789.401,838.71 788.5,839.5C 787.367,840.312 787.2,841.979 788,844.5C 791.829,849.496 796.662,853.163 802.5,855.5C 812.028,863.851 821.861,871.851 832,879.5C 832.779,881.906 831.946,883.573 829.5,884.5C 827.275,882.89 824.941,881.557 822.5,880.5C 819.151,879.831 816.484,878.164 814.5,875.5C 813.457,872.944 811.79,870.777 809.5,869C 800.431,863.267 791.931,856.767 784,849.5C 781.784,845.417 781.117,841.083 782,836.5C 784.69,832.31 788.19,828.976 792.5,826.5C 793.553,827.438 794.22,828.605 794.5,830C 793.022,831.478 791.522,832.978 790,834.5C 789.308,835.437 789.475,836.103 790.5,836.5 Z"/></g>
<g><path style="opacity:0.479" fill="#181818" d="M 817.5,811.5 C 818.239,811.369 818.906,811.536 819.5,812C 818.283,813.648 817.45,815.481 817,817.5C 810.58,839.091 817.747,853.924 838.5,862C 837.906,862.464 837.239,862.631 836.5,862.5C 817.978,856.147 810.145,843.147 813,823.5C 814.234,819.285 815.734,815.285 817.5,811.5 Z"/></g>
<g><path style="opacity:0.725" fill="#222222" d="M 230.5,852.5 C 230.44,853.043 230.107,853.376 229.5,853.5C 224.805,849.824 219.472,848.157 213.5,848.5C 213.5,850.167 213.5,851.833 213.5,853.5C 212.833,853.5 212.167,853.5 211.5,853.5C 211.338,851.473 211.505,849.473 212,847.5C 217.26,846.218 222.426,846.718 227.5,849C 228.71,850.039 229.71,851.206 230.5,852.5 Z"/></g>
<g><path style="opacity:0.971" fill="#030303" d="M 230.5,852.5 C 237.252,857.703 240.586,864.703 240.5,873.5C 238.902,885.936 232.235,894.436 220.5,899C 212.027,900.701 204.36,899.201 197.5,894.5C 198.239,894.631 198.906,894.464 199.5,894C 194.908,889.443 191.241,884.276 188.5,878.5C 188.085,874.625 188.585,870.958 190,867.5C 192.087,868.397 194.254,869.064 196.5,869.5C 195.31,873.279 195.643,876.946 197.5,880.5C 196.624,880.369 195.957,880.702 195.5,881.5C 202.533,892.277 211.866,894.777 223.5,889C 232.521,882.586 235.021,874.086 231,863.5C 226.985,856.985 221.152,853.652 213.5,853.5C 213.5,851.833 213.5,850.167 213.5,848.5C 219.472,848.157 224.805,849.824 229.5,853.5C 230.107,853.376 230.44,853.043 230.5,852.5 Z"/></g>
<g><path style="opacity:0.171" fill="#151515" d="M 788.5,839.5 C 789.045,841.593 789.878,843.593 791,845.5C 795.618,847.952 799.451,851.286 802.5,855.5C 796.662,853.163 791.829,849.496 788,844.5C 787.2,841.979 787.367,840.312 788.5,839.5 Z"/></g>
<g><path style="opacity:0.408" fill="#131313" d="M 187.5,839.5 C 187.56,838.957 187.893,838.624 188.5,838.5C 190.115,839.154 191.782,839.654 193.5,840C 179.609,848.442 165.609,856.609 151.5,864.5C 151.414,863.504 151.748,862.671 152.5,862C 162.737,856.766 172.737,851.1 182.5,845C 184.5,843.333 186.5,841.667 188.5,840C 188.272,839.601 187.938,839.435 187.5,839.5 Z"/></g>
<g><path style="opacity:0.427" fill="#171717" d="M 822.5,822.5 C 822.334,827.179 822.501,831.845 823,836.5C 823.249,839.177 824.249,841.51 826,843.5C 837.907,857.549 850.907,858.883 865,847.5C 870.094,839.643 874.927,831.643 879.5,823.5C 880.239,823.369 880.906,823.536 881.5,824C 877.113,831.947 872.613,839.78 868,847.5C 859.244,855.909 848.744,858.409 836.5,855C 822.381,846.474 817.715,835.641 822.5,822.5 Z"/></g>
<g><path style="opacity:0.281" fill="#101010" d="M 189.5,823.5 C 189.039,825.55 188.372,827.55 187.5,829.5C 187.709,830.086 188.043,830.586 188.5,831C 192.202,831.676 195.869,832.509 199.5,833.5C 204.044,832.439 208.044,830.439 211.5,827.5C 214.769,828.56 216.435,830.893 216.5,834.5C 216.167,835.167 215.833,835.833 215.5,836.5C 196.299,848.265 176.966,859.765 157.5,871C 154.632,871.64 152.965,870.473 152.5,867.5C 152.369,866.761 152.536,866.094 153,865.5C 153.923,866.759 154.757,868.092 155.5,869.5C 175.654,857.923 195.654,846.09 215.5,834C 214.274,832.365 212.941,830.865 211.5,829.5C 203.033,836.755 194.033,837.421 184.5,831.5C 185.897,829.018 186.731,826.352 187,823.5C 188.507,819.764 189.34,819.764 189.5,823.5 Z"/></g>
<g><path style="opacity:0.323" fill="#111111" d="M 790.5,836.5 C 789.475,836.103 789.308,835.437 790,834.5C 791.522,832.978 793.022,831.478 794.5,830C 794.22,828.605 793.553,827.438 792.5,826.5C 788.19,828.976 784.69,832.31 782,836.5C 781.117,841.083 781.784,845.417 784,849.5C 791.931,856.767 800.431,863.267 809.5,869C 811.79,870.777 813.457,872.944 814.5,875.5C 805.304,868.469 795.971,861.636 786.5,855C 775.768,842.491 777.768,832.324 792.5,824.5C 795.098,825.68 796.764,827.68 797.5,830.5C 794.909,832.281 792.575,834.281 790.5,836.5 Z"/></g>
<g><path style="opacity:0.258" fill="#161616" d="M 211.5,853.5 C 212.167,853.5 212.833,853.5 213.5,853.5C 221.152,853.652 226.985,856.985 231,863.5C 235.021,874.086 232.521,882.586 223.5,889C 211.866,894.777 202.533,892.277 195.5,881.5C 195.957,880.702 196.624,880.369 197.5,880.5C 204.146,890.933 212.813,892.933 223.5,886.5C 234.133,876.429 233.8,866.596 222.5,857C 219.289,855.847 215.956,855.18 212.5,855C 211.944,854.617 211.611,854.117 211.5,853.5 Z"/></g>
<g><path style="opacity:0.626" fill="#262626" d="M 196.5,869.5 C 194.254,869.064 192.087,868.397 190,867.5C 188.585,870.958 188.085,874.625 188.5,878.5C 187.833,875.167 187.167,871.833 186.5,868.5C 186.926,866.715 188.092,865.715 190,865.5C 191.888,865.796 193.722,866.296 195.5,867C 196.252,867.671 196.586,868.504 196.5,869.5 Z"/></g>
<g><path style="opacity:0.973" fill="#010101" d="M 772.5,912.5 C 765.737,907.241 759.403,901.407 753.5,895C 753.728,894.601 754.062,894.435 754.5,894.5C 756.607,894.278 758.274,893.278 759.5,891.5C 761.422,892.711 763.255,894.044 765,895.5C 765.157,882.014 771.824,874.014 785,871.5C 797.659,874.498 800.826,881.832 794.5,893.5C 790.498,898.999 785.998,903.999 781,908.5C 780.493,909.996 780.993,911.163 782.5,912C 787.654,915.998 793.154,916.498 799,913.5C 804.463,908.244 808.13,901.911 810,894.5C 811.011,895.337 812.178,895.67 813.5,895.5C 812.038,912.815 803.038,921.315 786.5,921C 781.036,919.186 776.536,916.02 773,911.5C 772.601,911.728 772.435,912.062 772.5,912.5 Z M 787.5,879.5 C 789.306,881.089 790.639,883.089 791.5,885.5C 789.249,889.916 786.416,893.916 783,897.5C 780.963,899.706 778.797,901.706 776.5,903.5C 775.833,903.167 775.167,902.833 774.5,902.5C 768.832,893.453 770.499,885.787 779.5,879.5C 782.197,878.37 784.863,878.37 787.5,879.5 Z"/></g>
<g><path style="opacity:0.42" fill="#161616" d="M 772.5,912.5 C 772.435,912.062 772.601,911.728 773,911.5C 776.536,916.02 781.036,919.186 786.5,921C 803.038,921.315 812.038,912.815 813.5,895.5C 812.178,895.67 811.011,895.337 810,894.5C 808.13,901.911 804.463,908.244 799,913.5C 793.154,916.498 787.654,915.998 782.5,912C 780.993,911.163 780.493,909.996 781,908.5C 785.998,903.999 790.498,898.999 794.5,893.5C 800.826,881.832 797.659,874.498 785,871.5C 771.824,874.014 765.157,882.014 765,895.5C 763.255,894.044 761.422,892.711 759.5,891.5C 758.274,893.278 756.607,894.278 754.5,894.5C 756.001,889.421 758.835,888.421 763,891.5C 765.663,876.488 774.496,869.321 789.5,870C 796.669,872.168 800.003,877.002 799.5,884.5C 799.547,887.295 799.047,889.961 798,892.5C 793.728,897.775 789.062,902.775 784,907.5C 783.219,908.944 783.386,910.277 784.5,911.5C 786.722,912.778 789.056,913.778 791.5,914.5C 800.918,910.685 806.251,903.685 807.5,893.5C 810.119,893.232 812.619,893.565 815,894.5C 815.667,897.5 815.667,900.5 815,903.5C 812.394,908.435 809.394,913.102 806,917.5C 793.216,927.287 782.049,925.62 772.5,912.5 Z"/></g>
<g><path style="opacity:0.376" fill="#161616" d="M 186.5,868.5 C 187.167,871.833 187.833,875.167 188.5,878.5C 191.241,884.276 194.908,889.443 199.5,894C 198.906,894.464 198.239,894.631 197.5,894.5C 188.909,887.978 185.243,879.312 186.5,868.5 Z"/></g>
<g><path style="opacity:0.945" fill="#030303" d="M 259.5,886.5 C 260.833,887.5 260.833,888.5 259.5,889.5C 257.456,890.031 255.789,891.198 254.5,893C 265.854,893.341 273.854,898.675 278.5,909C 279.883,919.408 275.383,925.242 265,926.5C 258.871,924.511 253.371,921.511 248.5,917.5C 246.135,915.14 243.468,913.14 240.5,911.5C 234.014,917.162 234.014,922.996 240.5,929C 245.096,932.715 250.262,935.215 256,936.5C 256.334,938.847 256.167,941.181 255.5,943.5C 250.36,944.09 245.693,943.09 241.5,940.5C 238.615,937.109 235.448,933.776 232,930.5C 226.835,921.657 227.501,913.323 234,905.5C 240.865,898.969 247.365,892.136 253.5,885C 255.417,885.027 257.084,885.861 258.5,887.5C 259.107,887.376 259.44,887.043 259.5,886.5 Z M 271.5,912.5 C 267.748,920.581 262.748,921.414 256.5,915C 253.297,911.629 249.964,908.462 246.5,905.5C 248.204,901.379 251.371,899.045 256,898.5C 263.928,900.268 269.095,904.934 271.5,912.5 Z"/></g>
<g><path style="opacity:0.247" fill="#1e1e1e" d="M 802.5,855.5 C 811.328,861.082 819.995,866.915 828.5,873C 830.667,875.167 832.833,877.333 835,879.5C 832.13,889.611 827.963,889.944 822.5,880.5C 824.941,881.557 827.275,882.89 829.5,884.5C 831.946,883.573 832.779,881.906 832,879.5C 821.861,871.851 812.028,863.851 802.5,855.5 Z"/></g>
<g><path style="opacity:0.42" fill="#2f2f2f" d="M 850.5,889.5 C 849.833,889.5 849.167,889.5 848.5,889.5C 846.262,888.463 843.929,888.297 841.5,889C 840.748,889.671 840.414,890.504 840.5,891.5C 839.662,891.158 839.328,890.492 839.5,889.5C 839.874,887.05 841.374,886.05 844,886.5C 846.802,886.32 848.969,887.32 850.5,889.5 Z"/></g>
<g><path style="opacity:0.983" fill="#010101" d="M 848.5,889.5 C 849.226,893.271 847.893,895.937 844.5,897.5C 841.167,896.833 839.833,894.833 840.5,891.5C 840.414,890.504 840.748,889.671 841.5,889C 843.929,888.297 846.262,888.463 848.5,889.5 Z"/></g>
<g><path style="opacity:0.2" fill="#181818" d="M 787.5,879.5 C 787.56,878.957 787.893,878.624 788.5,878.5C 792.314,881.187 793.48,884.853 792,889.5C 787.167,895 782.333,900.5 777.5,906C 775.239,906.207 774.905,905.374 776.5,903.5C 778.797,901.706 780.963,899.706 783,897.5C 786.416,893.916 789.249,889.916 791.5,885.5C 790.639,883.089 789.306,881.089 787.5,879.5 Z"/></g>
<g><path style="opacity:0.236" fill="#1a1a1a" d="M 779.5,879.5 C 770.499,885.787 768.832,893.453 774.5,902.5C 774.44,903.043 774.107,903.376 773.5,903.5C 767.775,895.239 768.441,887.406 775.5,880C 776.946,878.702 778.279,878.535 779.5,879.5 Z"/></g>
<g><path style="opacity:0.114" fill="#141414" d="M 839.5,889.5 C 839.328,890.492 839.662,891.158 840.5,891.5C 839.833,894.833 841.167,896.833 844.5,897.5C 847.893,895.937 849.226,893.271 848.5,889.5C 849.167,889.5 849.833,889.5 850.5,889.5C 850.655,898.024 846.989,900.358 839.5,896.5C 838.234,894.028 838.234,891.694 839.5,889.5 Z"/></g>
<g><path style="opacity:0.408" fill="#131313" d="M 259.5,886.5 C 259.44,887.043 259.107,887.376 258.5,887.5C 257.084,885.861 255.417,885.027 253.5,885C 247.365,892.136 240.865,898.969 234,905.5C 227.501,913.323 226.835,921.657 232,930.5C 235.448,933.776 238.615,937.109 241.5,940.5C 235.214,937.382 230.381,932.715 227,926.5C 224.486,919.609 225.486,913.275 230,907.5C 237.5,899.333 245,891.167 252.5,883C 255.813,882.136 258.146,883.302 259.5,886.5 Z"/></g>
<g><path style="opacity:0.966" fill="#010101" d="M 775.5,941.5 C 776.93,943.455 776.597,945.121 774.5,946.5C 773.207,945.355 772.041,945.689 771,947.5C 769.333,945.167 767.667,942.833 766,940.5C 764.197,953.804 756.697,961.804 743.5,964.5C 738.69,963.761 734.356,961.927 730.5,959C 724.518,950.861 718.185,943.028 711.5,935.5C 708.028,934.423 707.695,932.756 710.5,930.5C 710.435,930.938 710.601,931.272 711,931.5C 712.154,930.257 713.488,929.257 715,928.5C 717.181,931.375 719.181,934.375 721,937.5C 722.011,938.337 723.178,938.67 724.5,938.5C 727.802,942.809 731.136,947.143 734.5,951.5C 733.475,951.897 733.308,952.563 734,953.5C 740.658,959.972 747.492,960.138 754.5,954C 761.43,948.536 763.263,941.703 760,933.5C 753.632,925.301 747.466,916.968 741.5,908.5C 742.833,907.5 744.167,906.5 745.5,905.5C 755.185,917.19 764.518,929.19 773.5,941.5C 774.257,942.773 774.923,942.773 775.5,941.5 Z"/></g>
<g><path style="opacity:0.399" fill="#101010" d="M 259.5,889.5 C 259.389,890.117 259.056,890.617 258.5,891C 266.621,892.801 273.121,896.967 278,903.5C 281.893,911.29 281.06,918.457 275.5,925C 264.292,930.267 255.292,927.767 248.5,917.5C 253.371,921.511 258.871,924.511 265,926.5C 275.383,925.242 279.883,919.408 278.5,909C 273.854,898.675 265.854,893.341 254.5,893C 255.789,891.198 257.456,890.031 259.5,889.5 Z"/></g>
<g><path style="opacity:0.043" fill="#181818" d="M 246.5,905.5 C 249.964,908.462 253.297,911.629 256.5,915C 262.748,921.414 267.748,920.581 271.5,912.5C 272.457,915.47 271.457,917.97 268.5,920C 265.833,920.667 263.167,920.667 260.5,920C 254.833,915.167 249.167,910.333 243.5,905.5C 244.425,904.438 245.425,904.438 246.5,905.5 Z"/></g>
<g><path style="opacity:0.971" fill="#050505" d="M 270.5,968.5 C 270.81,969.738 271.31,969.738 272,968.5C 272.982,967.241 273.315,965.908 273,964.5C 269.5,961.667 266,958.833 262.5,956C 263.618,954.926 264.618,953.76 265.5,952.5C 269.5,955.5 273.5,958.5 277.5,961.5C 279.412,959.343 281.079,957.009 282.5,954.5C 282.03,953.537 281.363,953.537 280.5,954.5C 284.703,947.45 289.536,940.784 295,934.5C 296.123,931.044 295.29,928.21 292.5,926C 289.78,925.203 287.28,924.037 285,922.5C 283.974,917.024 286.141,914.857 291.5,916C 303.772,920.134 307.606,928.301 303,940.5C 296.922,948.323 291.089,956.323 285.5,964.5C 286.738,966.637 288.571,967.971 291,968.5C 289.67,976.588 286.003,977.588 280,971.5C 277.968,974.525 275.635,977.192 273,979.5C 270.208,978.047 268.041,976.047 266.5,973.5C 267.095,971.239 268.429,969.572 270.5,968.5 Z"/></g>
<g><path style="opacity:0.306" fill="#161616" d="M 695.5,931.5 C 686.296,927.317 677.463,928.317 669,934.5C 668.601,934.272 668.435,933.938 668.5,933.5C 671.32,930.919 674.654,929.086 678.5,928C 684.167,927.333 689.833,927.333 695.5,928C 696.791,929.292 696.791,930.458 695.5,931.5 Z"/></g>
<g><path style="opacity:0.963" fill="#030303" d="M 695.5,931.5 C 695.5,932.833 695.5,934.167 695.5,935.5C 686.24,934.397 677.907,936.564 670.5,942C 667.605,944.322 665.605,947.155 664.5,950.5C 663.362,952.717 663.195,955.717 664,959.5C 665.833,962.5 667.667,965.5 669.5,968.5C 672.638,955.366 680.971,948.366 694.5,947.5C 698.627,947.49 702.46,948.49 706,950.5C 706.399,950.272 706.565,949.938 706.5,949.5C 707.492,949.328 708.158,949.662 708.5,950.5C 708.062,950.435 707.728,950.601 707.5,951C 716.273,958.009 719.273,966.343 716.5,976C 716.735,976.873 717.069,977.707 717.5,978.5C 714.022,987.808 707.355,993.308 697.5,995C 692.673,995.884 688.006,995.384 683.5,993.5C 683.167,993.833 682.833,994.167 682.5,994.5C 684.131,996.22 685.297,998.22 686,1000.5C 686.083,998.494 686.583,997.494 687.5,997.5C 689.026,1002.03 687.359,1005.03 682.5,1006.5C 681.833,1006.17 681.167,1005.83 680.5,1005.5C 671.544,990.589 663.378,975.255 656,959.5C 653.024,947.211 657.19,938.544 668.5,933.5C 668.435,933.938 668.601,934.272 669,934.5C 677.463,928.317 686.296,927.317 695.5,931.5 Z M 710.5,971.5 C 710.5,971.833 710.5,972.167 710.5,972.5C 708.338,982.495 702.171,988.162 692,989.5C 679.991,987.179 674.491,979.846 675.5,967.5C 676.488,966.205 677.488,964.872 678.5,963.5C 683.463,956.865 690.13,954.365 698.5,956C 705.331,958.995 709.331,964.162 710.5,971.5 Z"/></g>
<g><path style="opacity:0.31" fill="#191919" d="M 724.5,938.5 C 723.178,938.67 722.011,938.337 721,937.5C 719.181,934.375 717.181,931.375 715,928.5C 713.488,929.257 712.154,930.257 711,931.5C 710.601,931.272 710.435,930.938 710.5,930.5C 711.706,927.861 713.706,927.028 716.5,928C 719.054,931.62 721.721,935.12 724.5,938.5 Z"/></g>
<g><path style="opacity:0.697" fill="#111111" d="M 775.5,941.5 C 774.923,942.773 774.257,942.773 773.5,941.5C 764.518,929.19 755.185,917.19 745.5,905.5C 744.167,906.5 742.833,907.5 741.5,908.5C 747.466,916.968 753.632,925.301 760,933.5C 763.263,941.703 761.43,948.536 754.5,954C 747.492,960.138 740.658,959.972 734,953.5C 733.308,952.563 733.475,951.897 734.5,951.5C 744.963,958.503 753.13,956.17 759,944.5C 759.667,941.833 759.667,939.167 759,936.5C 752.455,927.301 745.955,918.134 739.5,909C 741.808,903.048 745.308,902.215 750,906.5C 758.531,918.263 767.031,929.93 775.5,941.5 Z"/></g>
<g><path style="opacity:0.953" fill="#010101" d="M 338.5,945.5 C 340.914,946.911 342.581,948.911 343.5,951.5C 345.113,954.132 346.78,956.798 348.5,959.5C 345.553,963.797 343.219,963.464 341.5,958.5C 340.893,958.624 340.56,958.957 340.5,959.5C 337.677,957.177 335.01,954.677 332.5,952C 328.514,949.335 324.181,948.335 319.5,949C 318.29,950.039 317.29,951.206 316.5,952.5C 315.624,952.369 314.957,952.702 314.5,953.5C 315.871,959.038 319.204,962.871 324.5,965C 333.268,971.567 335.268,979.401 330.5,988.5C 330.624,989.107 330.957,989.44 331.5,989.5C 331.027,990.906 330.027,991.573 328.5,991.5C 328.217,990.711 327.717,990.044 327,989.5C 313.642,992.577 303.475,988.077 296.5,976C 297.653,974.117 299.319,973.284 301.5,973.5C 305.341,980.861 311.508,985.195 320,986.5C 325.919,985.592 328.253,982.258 327,976.5C 322.333,970.5 317,965.167 311,960.5C 306.147,949.538 309.647,943.205 321.5,941.5C 327.364,942.516 332.864,944.516 338,947.5C 338.464,946.906 338.631,946.239 338.5,945.5 Z"/></g>
<g><path style="opacity:0.384" fill="#171717" d="M 706.5,949.5 C 706.565,949.938 706.399,950.272 706,950.5C 702.46,948.49 698.627,947.49 694.5,947.5C 680.971,948.366 672.638,955.366 669.5,968.5C 667.667,965.5 665.833,962.5 664,959.5C 663.195,955.717 663.362,952.717 664.5,950.5C 664.939,955.183 666.439,959.516 669,963.5C 671.435,956.066 676.268,950.899 683.5,948C 691.561,944.363 699.228,944.863 706.5,949.5 Z"/></g>
<g><path style="opacity:0.351" fill="#131313" d="M 280.5,954.5 C 281.363,953.537 282.03,953.537 282.5,954.5C 281.079,957.009 279.412,959.343 277.5,961.5C 273.5,958.5 269.5,955.5 265.5,952.5C 264.618,953.76 263.618,954.926 262.5,956C 266,958.833 269.5,961.667 273,964.5C 273.315,965.908 272.982,967.241 272,968.5C 271.31,969.738 270.81,969.738 270.5,968.5C 271.303,967.577 271.47,966.577 271,965.5C 267.667,962.833 264.333,960.167 261,957.5C 261.176,952.67 263.676,950.836 268.5,952C 271.312,953.977 273.978,956.144 276.5,958.5C 278.216,957.451 279.549,956.118 280.5,954.5 Z"/></g>
<g><path style="opacity:0.975" fill="#040404" d="M 366.5,960.5 C 367.613,961.946 367.78,963.613 367,965.5C 357.511,984.142 348.845,1003.14 341,1022.5C 338.317,1027.33 334.817,1027.83 330.5,1024C 329.226,1023.02 329.226,1022.19 330.5,1021.5C 330.81,1022.74 331.31,1022.74 332,1021.5C 336.381,1013.41 340.214,1005.07 343.5,996.5C 343.376,995.893 343.043,995.56 342.5,995.5C 343.223,991.299 344.89,987.632 347.5,984.5C 347.369,985.239 347.536,985.906 348,986.5C 352.676,978.154 356.509,969.487 359.5,960.5C 362.005,961.417 364.338,961.417 366.5,960.5 Z"/></g>
<g><path style="opacity:0.275" fill="#111111" d="M 316.5,952.5 C 320.694,959.534 326.194,965.534 333,970.5C 335.374,974.894 336.041,979.56 335,984.5C 334.777,986.881 333.61,988.547 331.5,989.5C 330.957,989.44 330.624,989.107 330.5,988.5C 335.268,979.401 333.268,971.567 324.5,965C 319.204,962.871 315.871,959.038 314.5,953.5C 314.957,952.702 315.624,952.369 316.5,952.5 Z"/></g>
<g><path style="opacity:0.135" fill="#131313" d="M 343.5,951.5 C 352.34,956.111 352.507,960.778 344,965.5C 342.053,963.937 340.886,961.937 340.5,959.5C 340.56,958.957 340.893,958.624 341.5,958.5C 343.219,963.464 345.553,963.797 348.5,959.5C 346.78,956.798 345.113,954.132 343.5,951.5 Z"/></g>
<g><path style="opacity:0.197" fill="#101010" d="M 710.5,971.5 C 709.331,964.162 705.331,958.995 698.5,956C 690.13,954.365 683.463,956.865 678.5,963.5C 677.761,963.631 677.094,963.464 676.5,963C 681.642,955.935 688.642,952.935 697.5,954C 704.237,955.736 708.737,959.903 711,966.5C 711.78,968.387 711.613,970.054 710.5,971.5 Z"/></g>
<g><path style="opacity:0.118" fill="#111111" d="M 711.5,935.5 C 718.185,943.028 724.518,950.861 730.5,959C 734.356,961.927 738.69,963.761 743.5,964.5C 756.697,961.804 764.197,953.804 766,940.5C 767.667,942.833 769.333,945.167 771,947.5C 772.041,945.689 773.207,945.355 774.5,946.5C 771.762,949.3 769.262,948.966 767,945.5C 763.348,959.163 754.515,965.996 740.5,966C 734.634,964.479 729.8,961.312 726,956.5C 722.24,951.317 718.24,946.317 714,941.5C 712.441,939.783 711.608,937.783 711.5,935.5 Z"/></g>
<g><path style="opacity:0.969" fill="#060606" d="M 362.5,1037.5 C 361.781,1035.11 360.115,1033.61 357.5,1033C 359.816,1029.96 360.483,1026.79 359.5,1023.5C 363.329,1012.67 367.329,1002 371.5,991.5C 370.653,994.16 370.153,996.826 370,999.5C 374.2,990.6 377.7,981.433 380.5,972C 380.43,971.235 380.097,970.735 379.5,970.5C 379.414,969.504 379.748,968.671 380.5,968C 383.534,967.34 386.367,967.84 389,969.5C 389.667,970.833 389.667,972.167 389,973.5C 380.735,994.37 372.735,1015.37 365,1036.5C 364.329,1037.25 363.496,1037.59 362.5,1037.5 Z"/></g>
<g><path style="opacity:0.376" fill="#1a1a1a" d="M 366.5,960.5 C 364.338,961.417 362.005,961.417 359.5,960.5C 356.509,969.487 352.676,978.154 348,986.5C 347.536,985.906 347.369,985.239 347.5,984.5C 350.157,976.18 353.657,968.18 358,960.5C 360.831,958.082 363.665,958.082 366.5,960.5 Z"/></g>
<g><path style="opacity:0.663" fill="#1c1c1c" d="M 658.5,986.5 C 658.631,987.239 658.464,987.906 658,988.5C 648.258,970.815 634.758,967.315 617.5,978C 614.129,981.236 611.629,985.069 610,989.5C 609.51,988.207 609.343,986.873 609.5,985.5C 612.813,978.028 618.48,973.194 626.5,971C 641.636,967.403 652.303,972.57 658.5,986.5 Z"/></g>
<g><path style="opacity:0.959" fill="#020202" d="M 658.5,986.5 C 659.738,988.214 660.405,990.214 660.5,992.5C 659.167,995.833 659.167,999.167 660.5,1002.5C 658.599,1011.79 653.266,1018.29 644.5,1022C 635.9,1024.44 627.567,1023.77 619.5,1020C 617.959,1018.63 616.625,1017.13 615.5,1015.5C 616.043,1015.44 616.376,1015.11 616.5,1014.5C 611.099,1007.46 608.599,999.46 609,990.5C 608.617,991.056 608.117,991.389 607.5,991.5C 607.595,989.214 608.262,987.214 609.5,985.5C 609.343,986.873 609.51,988.207 610,989.5C 611.629,985.069 614.129,981.236 617.5,978C 634.758,967.315 648.258,970.815 658,988.5C 658.464,987.906 658.631,987.239 658.5,986.5 Z M 641.5,980.5 C 642.795,981.488 644.128,982.488 645.5,983.5C 653.436,992.639 653.436,1001.81 645.5,1011C 639.446,1015.44 633.113,1016.11 626.5,1013C 624.383,1011.23 622.383,1009.4 620.5,1007.5C 620.011,1006 619.345,1004.67 618.5,1003.5C 615.478,985.188 623.145,977.522 641.5,980.5 Z"/></g>
<g><path style="opacity:0.975" fill="#050505" d="M 408.5,976.5 C 406.801,976.34 405.134,976.506 403.5,977C 405.044,977.29 406.377,977.956 407.5,979C 405.157,986.216 406.491,987.55 411.5,983C 413.5,982.333 415.5,981.667 417.5,981C 416.944,980.617 416.611,980.117 416.5,979.5C 423.797,979.157 430.464,980.99 436.5,985C 442.474,990.591 444.641,997.425 443,1005.5C 440.405,1014.41 438.238,1023.41 436.5,1032.5C 435.778,1032.08 435.278,1031.42 435,1030.5C 434.671,1034.04 432.838,1035.21 429.5,1034C 428.941,1033.28 428.608,1032.44 428.5,1031.5C 430.974,1023.27 432.974,1014.94 434.5,1006.5C 434.253,1005.29 433.586,1004.62 432.5,1004.5C 433.657,1000.11 432.991,995.941 430.5,992C 423.138,987.402 415.804,987.402 408.5,992C 403.985,1002.59 400.651,1013.42 398.5,1024.5C 398.252,1016.93 397.585,1017.27 396.5,1025.5C 394.304,1025.43 392.304,1024.77 390.5,1023.5C 393.223,1016.71 394.723,1009.71 395,1002.5C 394.623,1003.94 393.79,1004.94 392.5,1005.5C 396.102,995.759 398.769,985.759 400.5,975.5C 403.385,975.194 406.052,975.527 408.5,976.5 Z"/></g>
<g><path style="opacity:0.606" fill="#1a1a1a" d="M 379.5,970.5 C 380.097,970.735 380.43,971.235 380.5,972C 377.7,981.433 374.2,990.6 370,999.5C 370.153,996.826 370.653,994.16 371.5,991.5C 374.019,984.406 376.686,977.406 379.5,970.5 Z"/></g>
<g><path style="opacity:0.384" fill="#191919" d="M 408.5,976.5 C 409.451,977.919 409.784,979.585 409.5,981.5C 411.965,981.233 414.299,980.566 416.5,979.5C 416.611,980.117 416.944,980.617 417.5,981C 415.5,981.667 413.5,982.333 411.5,983C 406.491,987.55 405.157,986.216 407.5,979C 406.377,977.956 405.044,977.29 403.5,977C 405.134,976.506 406.801,976.34 408.5,976.5 Z"/></g>
<g><path style="opacity:0.275" fill="#161616" d="M 675.5,967.5 C 674.491,979.846 679.991,987.179 692,989.5C 702.171,988.162 708.338,982.495 710.5,972.5C 711.613,973.946 711.78,975.613 711,977.5C 705.163,989.334 695.996,993.167 683.5,989C 677.616,984.908 674.283,979.241 673.5,972C 673.256,969.343 673.922,967.843 675.5,967.5 Z"/></g>
<g><path style="opacity:0.399" fill="#131313" d="M 338.5,945.5 C 338.631,946.239 338.464,946.906 338,947.5C 332.864,944.516 327.364,942.516 321.5,941.5C 309.647,943.205 306.147,949.538 311,960.5C 317,965.167 322.333,970.5 327,976.5C 328.253,982.258 325.919,985.592 320,986.5C 311.508,985.195 305.341,980.861 301.5,973.5C 299.319,973.284 297.653,974.117 296.5,976C 303.475,988.077 313.642,992.577 327,989.5C 327.717,990.044 328.217,990.711 328.5,991.5C 322.196,994.048 315.862,993.882 309.5,991C 302.892,987.228 297.892,982.062 294.5,975.5C 296.123,971.942 298.79,970.776 302.5,972C 306.462,979.132 312.462,983.299 320.5,984.5C 325.46,983.572 326.96,980.906 325,976.5C 321.293,971.792 316.96,967.792 312,964.5C 304.412,956.182 304.912,948.349 313.5,941C 322.657,938.226 330.99,939.726 338.5,945.5 Z"/></g>
<g><path style="opacity:0.366" fill="#1b1b1b" d="M 500.5,993.5 C 499.778,993.918 499.278,994.584 499,995.5C 497.203,993.844 495.036,992.844 492.5,992.5C 491.172,999.435 490.339,1006.44 490,1013.5C 489.617,1014.06 489.117,1014.39 488.5,1014.5C 488.384,1007.13 488.884,999.792 490,992.5C 493.073,991.383 496.24,991.216 499.5,992C 500.056,992.383 500.389,992.883 500.5,993.5 Z"/></g>
<g><path style="opacity:0.944" fill="#030303" d="M 500.5,993.5 C 497.872,1015.45 495.705,1037.45 494,1059.5C 493.586,1059.96 493.086,1060.29 492.5,1060.5C 478.558,1058.67 464.558,1057.17 450.5,1056C 448.563,1055.88 447.23,1055.05 446.5,1053.5C 448.176,1052.82 448.843,1051.48 448.5,1049.5C 450.833,1049.5 453.167,1049.5 455.5,1049.5C 465.993,1050.81 476.66,1051.81 487.5,1052.5C 488.283,1043.87 488.95,1035.37 489.5,1027C 485.408,1025.37 481.408,1025.2 477.5,1026.5C 469.827,1025.8 462.16,1024.97 454.5,1024C 453.189,1021.73 453.189,1019.56 454.5,1017.5C 454.682,1022.79 455.182,1022.79 456,1017.5C 466.635,1018.38 477.301,1019.38 488,1020.5C 489.872,1019.51 489.705,1018.85 487.5,1018.5C 487.232,1016.9 487.566,1015.57 488.5,1014.5C 489.117,1014.39 489.617,1014.06 490,1013.5C 490.339,1006.44 491.172,999.435 492.5,992.5C 495.036,992.844 497.203,993.844 499,995.5C 499.278,994.584 499.778,993.918 500.5,993.5 Z"/></g>
<g><path style="opacity:0.39" fill="#111111" d="M 641.5,980.5 C 623.145,977.522 615.478,985.188 618.5,1003.5C 618.631,1004.24 618.464,1004.91 618,1005.5C 612.457,992.787 615.957,983.621 628.5,978C 632.5,977.333 636.5,977.333 640.5,978C 643.402,978.919 643.735,979.752 641.5,980.5 Z"/></g>
<g><path style="opacity:0.291" fill="#101010" d="M 708.5,950.5 C 719.158,958.318 722.324,968.651 718,981.5C 711.086,993.04 700.92,998.373 687.5,997.5C 686.583,997.494 686.083,998.494 686,1000.5C 685.297,998.22 684.131,996.22 682.5,994.5C 682.833,994.167 683.167,993.833 683.5,993.5C 688.006,995.384 692.673,995.884 697.5,995C 707.355,993.308 714.022,987.808 717.5,978.5C 717.069,977.707 716.735,976.873 716.5,976C 719.273,966.343 716.273,958.009 707.5,951C 707.728,950.601 708.062,950.435 708.5,950.5 Z"/></g>
<g><path style="opacity:0.299" fill="#151515" d="M 568.5,985.5 C 571.198,985.45 573.364,986.45 575,988.5C 575.667,991.5 575.667,994.5 575,997.5C 566.664,1001.17 562.997,998.502 564,989.5C 564.907,987.391 566.407,986.058 568.5,985.5 Z"/></g>
<g><path style="opacity:0.969" fill="#000000" d="M 567.5,987.5 C 571.211,986.846 573.211,988.346 573.5,992C 573.31,997.199 570.976,998.533 566.5,996C 564.079,992.952 564.412,990.119 567.5,987.5 Z"/></g>
<g><path style="opacity:0.324" fill="#141414" d="M 620.5,1007.5 C 622.383,1009.4 624.383,1011.23 626.5,1013C 633.113,1016.11 639.446,1015.44 645.5,1011C 653.436,1001.81 653.436,992.639 645.5,983.5C 645.369,982.761 645.536,982.094 646,981.5C 655.027,990.563 655.86,1000.4 648.5,1011C 642.777,1016.15 636.11,1017.82 628.5,1016C 625.098,1014.6 622.264,1012.43 620,1009.5C 619.308,1008.56 619.475,1007.9 620.5,1007.5 Z"/></g>
<g><path style="opacity:0.316" fill="#292929" d="M 660.5,992.5 C 661.833,995.833 661.833,999.167 660.5,1002.5C 659.167,999.167 659.167,995.833 660.5,992.5 Z"/></g>
<g><path style="opacity:0.241" fill="#1a1a1a" d="M 615.5,1015.5 C 608.676,1009.03 606.009,1001.03 607.5,991.5C 608.117,991.389 608.617,991.056 609,990.5C 608.599,999.46 611.099,1007.46 616.5,1014.5C 616.376,1015.11 616.043,1015.44 615.5,1015.5 Z"/></g>
<g><path style="opacity:0.597" fill="#181818" d="M 342.5,995.5 C 343.043,995.56 343.376,995.893 343.5,996.5C 340.214,1005.07 336.381,1013.41 332,1021.5C 331.31,1022.74 330.81,1022.74 330.5,1021.5C 333.547,1012.34 337.547,1003.68 342.5,995.5 Z"/></g>
<g><path style="opacity:0.72" fill="#1e1e1e" d="M 398.5,1024.5 C 398.516,1026.48 397.516,1027.48 395.5,1027.5C 392.19,1027.36 389.857,1025.86 388.5,1023C 390.709,1017.37 392.043,1011.54 392.5,1005.5C 393.79,1004.94 394.623,1003.94 395,1002.5C 394.723,1009.71 393.223,1016.71 390.5,1023.5C 392.304,1024.77 394.304,1025.43 396.5,1025.5C 397.585,1017.27 398.252,1016.93 398.5,1024.5 Z"/></g>
<g><path style="opacity:0.591" fill="#171717" d="M 487.5,1018.5 C 489.705,1018.85 489.872,1019.51 488,1020.5C 477.301,1019.38 466.635,1018.38 456,1017.5C 455.182,1022.79 454.682,1022.79 454.5,1017.5C 455.694,1016.22 457.36,1015.56 459.5,1015.5C 468.869,1016.26 478.203,1017.26 487.5,1018.5 Z"/></g>
<g><path style="opacity:0.808" fill="#1f1f1f" d="M 359.5,1023.5 C 360.483,1026.79 359.816,1029.96 357.5,1033C 360.115,1033.61 361.781,1035.11 362.5,1037.5C 359.212,1037.36 356.878,1035.86 355.5,1033C 356.472,1029.57 357.805,1026.4 359.5,1023.5 Z"/></g>
<g><path style="opacity:0.647" fill="#212121" d="M 432.5,1004.5 C 433.586,1004.62 434.253,1005.29 434.5,1006.5C 432.974,1014.94 430.974,1023.27 428.5,1031.5C 428.608,1032.44 428.941,1033.28 429.5,1034C 432.838,1035.21 434.671,1034.04 435,1030.5C 435.278,1031.42 435.778,1032.08 436.5,1032.5C 436.305,1034.9 435.138,1036.57 433,1037.5C 430.804,1036.91 428.638,1036.24 426.5,1035.5C 426.167,1034.67 425.833,1033.83 425.5,1033C 428.144,1023.57 430.477,1014.07 432.5,1004.5 Z"/></g>
<g><path style="opacity:0.529" fill="#131313" d="M 477.5,1026.5 C 481.408,1025.2 485.408,1025.37 489.5,1027C 488.95,1035.37 488.283,1043.87 487.5,1052.5C 476.66,1051.81 465.993,1050.81 455.5,1049.5C 457.993,1049.87 458.66,1049.2 457.5,1047.5C 466.851,1048.38 476.184,1049.38 485.5,1050.5C 485.755,1042.79 486.422,1035.13 487.5,1027.5C 484.167,1027.17 480.833,1026.83 477.5,1026.5 Z"/></g>
<g><path style="opacity:0.25" fill="#262626" d="M 457.5,1047.5 C 458.66,1049.2 457.993,1049.87 455.5,1049.5C 453.167,1049.5 450.833,1049.5 448.5,1049.5C 448.843,1051.48 448.176,1052.82 446.5,1053.5C 446.261,1051.53 446.594,1049.7 447.5,1048C 450.817,1047.5 454.15,1047.33 457.5,1047.5 Z"/></g>
</svg>
