<?xml version="1.0" encoding="UTF-8"?>
<!DOCTYPE svg PUBLIC "-//W3C//DTD SVG 1.1//EN" "http://www.w3.org/Graphics/SVG/1.1/DTD/svg11.dtd">
<svg xmlns="http://www.w3.org/2000/svg" version="1.1" width="1024px" height="1280px" style="shape-rendering:geometricPrecision; text-rendering:geometricPrecision; image-rendering:optimizeQuality; fill-rule:evenodd; clip-rule:evenodd" xmlns:xlink="http://www.w3.org/1999/xlink">
<g><path style="opacity:0.774" fill="#010101" d="M 579.5,223.5 C 582.685,223.02 585.519,223.686 588,225.5C 595.226,239.949 601.893,254.616 608,269.5C 610.333,273.5 612.667,277.5 615,281.5C 618.826,265.862 622.493,250.195 626,234.5C 626.561,233.978 627.228,233.645 628,233.5C 630.433,234.479 632.933,235.145 635.5,235.5C 630.972,257.944 625.972,280.277 620.5,302.5C 616.69,302.621 613.523,301.288 611,298.5C 602.81,279.966 594.143,261.633 585,243.5C 581.037,258.69 577.37,274.023 574,289.5C 570.882,290.748 567.882,290.414 565,288.5C 568.475,266.564 573.308,244.897 579.5,223.5 Z"/></g>
<g><path style="opacity:0.796" fill="#010101" d="M 465.5,286.5 C 466.497,286.53 467.164,286.03 467.5,285C 466.503,278.198 465.67,271.364 465,264.5C 464.617,263.944 464.117,263.611 463.5,263.5C 462.261,255.185 461.428,246.852 461,238.5C 465.912,234.94 469.245,235.94 471,241.5C 475.643,237.094 481.143,234.76 487.5,234.5C 487.75,237.214 487.917,239.881 488,242.5C 479.906,243.607 474.573,247.94 472,255.5C 472.799,266.154 473.465,276.82 474,287.5C 472.6,288.116 471.1,288.449 469.5,288.5C 467.667,288.415 466.334,287.748 465.5,286.5 Z"/></g>
<g><path style="opacity:0.838" fill="#020202" d="M 414.5,276.5 C 413.399,275.402 412.066,275.235 410.5,276C 416.079,287.96 425.079,291.96 437.5,288C 441.579,285.925 445.079,283.092 448,279.5C 449.84,281.49 451.007,281.49 451.5,279.5C 453.942,281.139 454.109,283.139 452,285.5C 443.409,294.611 432.909,297.778 420.5,295C 411.626,291.791 405.793,285.624 403,276.5C 400.174,257.128 408.341,245.795 427.5,242.5C 441.735,243.728 450.402,251.395 453.5,265.5C 453.023,266.478 452.357,267.311 451.5,268C 438.96,270.105 426.626,272.939 414.5,276.5 Z M 439.5,263.5 C 429.991,264.211 420.658,265.878 411.5,268.5C 411.892,264.658 412.892,260.991 414.5,257.5C 422.514,250.072 430.847,249.739 439.5,256.5C 441.85,259.059 441.85,261.393 439.5,263.5 Z"/></g>
<g><path style="opacity:0.795" fill="#020202" d="M 368.5,259.5 C 388.166,258.34 398.499,267.506 399.5,287C 399.852,298.67 394.519,306.67 383.5,311C 377.481,312.413 371.481,312.913 365.5,312.5C 368.066,319.362 370.732,326.195 373.5,333C 371.61,334.904 369.276,336.07 366.5,336.5C 364.803,335.636 363.637,334.303 363,332.5C 355.317,312.763 347.484,293.097 339.5,273.5C 343.322,268.386 346.988,268.386 350.5,273.5C 352.043,270.914 353.709,268.414 355.5,266C 359.771,263.533 364.104,261.366 368.5,259.5 Z M 369.5,268.5 C 382.321,268.313 389.655,274.647 391.5,287.5C 387.815,302.342 378.815,307.175 364.5,302C 355.865,293.608 354.365,284.108 360,273.5C 363.181,271.662 366.347,269.995 369.5,268.5 Z"/></g>
<g><path style="opacity:0.394" fill="#141414" d="M 414.5,257.5 C 412.892,260.991 411.892,264.658 411.5,268.5C 420.658,265.878 429.991,264.211 439.5,263.5C 441.39,263.703 442.89,263.037 444,261.5C 444.617,262.449 444.451,263.282 443.5,264C 432.056,266.436 420.722,268.936 409.5,271.5C 408.524,265.695 410.024,260.695 414,256.5C 414.399,256.728 414.565,257.062 414.5,257.5 Z"/></g>
<g><path style="opacity:0.824" fill="#010101" d="M 682.5,275.5 C 681.957,275.56 681.624,275.893 681.5,276.5C 685.38,284.111 686.547,292.111 685,300.5C 685.608,298.934 686.442,297.6 687.5,296.5C 681.293,315.437 668.627,321.937 649.5,316C 632.744,304.775 629.911,290.608 641,273.5C 655.456,261.062 669.29,261.729 682.5,275.5 Z M 678.5,286.5 C 679.132,297.596 674.465,305.263 664.5,309.5C 652.581,310.272 645.581,304.606 643.5,292.5C 646.458,276.7 655.458,271.2 670.5,276C 674.211,278.855 676.877,282.355 678.5,286.5 Z"/></g>
<g><path style="opacity:0.593" fill="#0e0e0e" d="M 463.5,263.5 C 464.117,263.611 464.617,263.944 465,264.5C 465.67,271.364 466.503,278.198 467.5,285C 467.164,286.03 466.497,286.53 465.5,286.5C 463.868,279.063 463.201,271.396 463.5,263.5 Z"/></g>
<g><path style="opacity:0.651" fill="#010101" d="M 522.5,274.5 C 527.806,273.641 531.14,275.807 532.5,281C 530.4,287.138 526.566,288.638 521,285.5C 518.689,281.374 519.189,277.707 522.5,274.5 Z"/></g>
<g><path style="opacity:0.43" fill="#0d0d0d" d="M 682.5,275.5 C 684.746,277.649 686.246,280.316 687,283.5C 687.499,287.821 687.666,292.154 687.5,296.5C 686.442,297.6 685.608,298.934 685,300.5C 686.547,292.111 685.38,284.111 681.5,276.5C 681.624,275.893 681.957,275.56 682.5,275.5 Z"/></g>
<g><path style="opacity:0.509" fill="#0f0f0f" d="M 414.5,276.5 C 414.478,279.28 415.811,281.78 418.5,284C 425.804,288.598 433.138,288.598 440.5,284C 442.683,281.65 445.016,279.483 447.5,277.5C 448.86,278.18 450.193,278.847 451.5,279.5C 451.007,281.49 449.84,281.49 448,279.5C 445.079,283.092 441.579,285.925 437.5,288C 425.079,291.96 416.079,287.96 410.5,276C 412.066,275.235 413.399,275.402 414.5,276.5 Z"/></g>
<g><path style="opacity:0.799" fill="#020202" d="M 309.5,287.5 C 326.3,284.814 337.467,291.481 343,307.5C 345.594,318.719 342.428,327.886 333.5,335C 314.43,345.529 300.264,341.029 291,321.5C 288.006,305.154 294.172,293.821 309.5,287.5 Z M 312.5,295.5 C 325.578,295.407 332.911,301.907 334.5,315C 331.917,327.947 324.25,333.28 311.5,331C 299.961,324.054 297.128,314.554 303,302.5C 305.79,299.535 308.957,297.202 312.5,295.5 Z"/></g>
<g><path style="opacity:0.767" fill="#000000" d="M 686.5,324.5 C 687.117,324.611 687.617,324.944 688,325.5C 686.867,305.012 696.367,294.012 716.5,292.5C 727.197,294.197 734.197,300.197 737.5,310.5C 741.784,303.44 746.451,296.607 751.5,290C 754.793,290.152 757.46,291.652 759.5,294.5C 747.653,314.205 735.32,333.539 722.5,352.5C 718.722,353.62 715.722,352.453 713.5,349C 714.293,347.915 714.96,346.748 715.5,345.5C 709.749,344.732 704.083,343.565 698.5,342C 695.963,339.128 693.13,336.628 690,334.5C 688.218,331.368 687.052,328.035 686.5,324.5 Z M 730.5,315.5 C 728.992,331.691 720.325,338.357 704.5,335.5C 701.196,333.027 698.362,330.027 696,326.5C 693.346,317.157 695.846,309.657 703.5,304C 712.216,299.818 720.049,300.985 727,307.5C 728.478,310.158 729.645,312.825 730.5,315.5 Z"/></g>
<g><path style="opacity:0.743" fill="#010101" d="M 256.5,297.5 C 258.716,298.203 260.549,299.536 262,301.5C 274.281,318.782 286.948,335.782 300,352.5C 299.009,360.419 295.676,361.419 290,355.5C 277.565,338.283 264.899,321.283 252,304.5C 251.333,303.833 251.333,303.167 252,302.5C 253.707,300.963 255.207,299.296 256.5,297.5 Z"/></g>
<g><path style="opacity:0.306" fill="#090909" d="M 716.5,292.5 C 696.367,294.012 686.867,305.012 688,325.5C 687.617,324.944 687.117,324.611 686.5,324.5C 684.849,305.848 693.349,294.848 712,291.5C 713.44,292.148 714.94,292.481 716.5,292.5 Z"/></g>
<g><path style="opacity:0.289" fill="#0e0e0e" d="M 664.5,309.5 C 674.465,305.263 679.132,297.596 678.5,286.5C 678.369,285.761 678.536,285.094 679,284.5C 681.625,296.583 677.292,305.249 666,310.5C 665.235,310.43 664.735,310.097 664.5,309.5 Z"/></g>
<g><path style="opacity:0.212" fill="#0c0c0c" d="M 704.5,335.5 C 720.325,338.357 728.992,331.691 730.5,315.5C 730.369,314.761 730.536,314.094 731,313.5C 731.611,332.894 722.444,340.727 703.5,337C 702.288,335.893 702.621,335.393 704.5,335.5 Z"/></g>
<g><path style="opacity:0.757" fill="#020202" d="M 761.5,375.5 C 763.002,378.022 764.335,378.022 765.5,375.5C 766.117,375.611 766.617,375.944 767,376.5C 767.497,378.81 767.663,381.143 767.5,383.5C 757.197,384.765 748.697,381.432 742,373.5C 732.603,360.068 733.77,347.568 745.5,336C 763.211,324.8 777.045,328.3 787,346.5C 789.783,356.821 787.616,365.988 780.5,374C 779.167,374.667 777.833,374.667 776.5,374C 767.349,365.187 757.849,356.687 748,348.5C 743.506,354.418 743.506,360.418 748,366.5C 751.342,371.359 755.842,374.359 761.5,375.5 Z M 758.5,338.5 C 770.503,337.329 777.503,342.663 779.5,354.5C 779.617,357.597 778.617,360.264 776.5,362.5C 769.061,355.607 761.394,348.941 753.5,342.5C 755.21,341.113 756.877,339.779 758.5,338.5 Z"/></g>
<g><path style="opacity:0.528" fill="#0d0d0d" d="M 269.5,345.5 C 269.631,346.239 269.464,346.906 269,347.5C 262.246,340.583 254.08,338.083 244.5,340C 240.938,340.739 237.772,342.239 235,344.5C 234.601,344.272 234.435,343.938 234.5,343.5C 246.679,333.85 258.346,334.517 269.5,345.5 Z"/></g>
<g><path style="opacity:0.805" fill="#020202" d="M 269.5,345.5 C 271.273,346.314 271.773,347.648 271,349.5C 261.322,358.345 251.822,367.345 242.5,376.5C 248.934,381.63 255.6,381.797 262.5,377C 268.395,373.041 271.561,367.541 272,360.5C 274.333,359.167 276.667,359.167 279,360.5C 279.172,373.292 273.339,382.459 261.5,388C 251.568,391.093 242.568,389.427 234.5,383C 221.26,369.683 221.26,356.516 234.5,343.5C 234.435,343.938 234.601,344.272 235,344.5C 237.772,342.239 240.938,340.739 244.5,340C 254.08,338.083 262.246,340.583 269,347.5C 269.464,346.906 269.631,346.239 269.5,345.5 Z M 246.5,345.5 C 251.603,344.664 255.937,345.998 259.5,349.5C 252.177,356.655 244.677,363.655 237,370.5C 231.694,359.092 234.86,350.759 246.5,345.5 Z"/></g>
<g><path style="opacity:0.699" fill="#000000" d="M 815.5,351.5 C 816.873,351.343 818.207,351.51 819.5,352C 826.7,359.367 833.366,367.201 839.5,375.5C 828.29,385.88 816.957,396.047 805.5,406C 792.262,417.241 780.762,415.741 771,401.5C 767.935,395.759 767.435,389.926 769.5,384C 772.146,383.503 774.813,383.336 777.5,383.5C 775.109,393.718 778.775,400.718 788.5,404.5C 791.962,402.935 795.295,401.102 798.5,399C 807.646,390.598 816.979,382.431 826.5,374.5C 825.081,372.664 823.914,370.664 823,368.5C 819.219,365.597 815.886,362.263 813,358.5C 812.333,357.167 812.333,355.833 813,354.5C 814.045,353.627 814.878,352.627 815.5,351.5 Z"/></g>
<g><path style="opacity:0.771" fill="#010101" d="M 209.5,367.5 C 211.288,367.215 212.955,367.548 214.5,368.5C 222.298,384.124 230.298,399.624 238.5,415C 236.904,418.048 234.737,420.548 232,422.5C 219.147,417.995 205.981,414.495 192.5,412C 187.775,410.823 183.441,408.989 179.5,406.5C 180.585,403.245 182.752,401.245 186,400.5C 199.1,404.401 212.267,407.568 225.5,410C 219.809,398.786 213.976,387.619 208,376.5C 207.068,373.177 207.568,370.177 209.5,367.5 Z"/></g>
<g><path style="opacity:0.3" fill="#1b1b1b" d="M 761.5,375.5 C 762.833,375.5 764.167,375.5 765.5,375.5C 764.335,378.022 763.002,378.022 761.5,375.5 Z"/></g>
<g><path style="opacity:0.742" fill="#010101" d="M 829.5,403.5 C 835.377,403.689 840.544,405.689 845,409.5C 849.654,415.642 852.821,422.475 854.5,430C 854.441,431.436 854.108,432.769 853.5,434C 851.098,434.814 848.765,434.647 846.5,433.5C 845.453,426.743 842.786,420.743 838.5,415.5C 830.195,411.093 826.695,413.426 828,422.5C 831.066,428.865 833.233,435.532 834.5,442.5C 833.722,450.779 829.222,455.113 821,455.5C 816.692,455.176 812.859,453.676 809.5,451C 800.945,443.052 796.945,433.219 797.5,421.5C 799.869,421.149 802.203,420.982 804.5,421C 805.131,431.262 809.464,439.596 817.5,446C 822.008,446.996 824.341,445.163 824.5,440.5C 822.941,434.03 820.775,427.696 818,421.5C 816.411,411.939 820.244,405.939 829.5,403.5 Z"/></g>
<g><path style="opacity:0.762" fill="#020202" d="M 177.5,420.5 C 184.844,419.768 191.844,420.934 198.5,424C 199.708,428.147 198.874,431.98 196,435.5C 190.595,443.969 185.428,452.636 180.5,461.5C 188.449,464.687 194.949,462.687 200,455.5C 204.094,450.019 205.427,444.019 204,437.5C 211.087,433.566 214.253,435.733 213.5,444C 210.187,464.651 198.187,473.651 177.5,471C 159.974,463.117 154.807,450.283 162,432.5C 163.812,429.72 165.979,427.22 168.5,425C 171.648,423.576 174.648,422.076 177.5,420.5 Z M 182.5,428.5 C 185.022,428.878 187.355,429.711 189.5,431C 184.527,439.117 179.694,447.283 175,455.5C 173.951,456.517 172.784,456.684 171.5,456C 165.671,447.457 166.337,439.457 173.5,432C 176.459,430.396 179.459,429.229 182.5,428.5 Z"/></g>
<g><path style="opacity:0.689" fill="#010101" d="M 822.5,460.5 C 829.327,459.825 832.16,462.825 831,469.5C 829.2,471.317 827.034,472.484 824.5,473C 819.169,474.4 813.836,475.4 808.5,476C 806.964,474.401 806.464,472.567 807,470.5C 810.388,468.942 813.888,467.608 817.5,466.5C 818.72,464.019 820.386,462.019 822.5,460.5 Z"/></g>
<g><path style="opacity:0.729" fill="#010101" d="M 142.5,467.5 C 161.016,466.331 174.182,473.997 182,490.5C 183.935,497.507 183.935,504.507 182,511.5C 178.677,520.8 175.344,530.133 172,539.5C 171.632,540.91 170.799,541.91 169.5,542.5C 153.833,536.667 138.167,530.833 122.5,525C 116.799,522.95 111.466,520.45 106.5,517.5C 110.063,504.974 114.897,492.974 121,481.5C 124.21,478.991 127.043,476.158 129.5,473C 133.933,471.109 138.266,469.276 142.5,467.5 Z M 142.5,477.5 C 163.476,475.981 173.976,485.648 174,506.5C 171.065,514.472 168.232,522.472 165.5,530.5C 150,524.324 134.334,518.658 118.5,513.5C 120.575,504.442 123.742,495.775 128,487.5C 131.959,482.677 136.792,479.343 142.5,477.5 Z"/></g>
<g><path style="opacity:0.772" fill="#010101" d="M 897.5,482.5 C 899.467,482.261 901.301,482.594 903,483.5C 905.375,491.253 908.041,498.92 911,506.5C 917.205,531.274 907.705,543.108 882.5,542C 878.56,540.114 875.06,537.614 872,534.5C 866.488,541.398 861.154,548.398 856,555.5C 853.242,552.662 852.242,549.329 853,545.5C 857.297,539.034 861.797,532.7 866.5,526.5C 864.479,520.561 862.645,514.561 861,508.5C 860.612,507.572 859.945,506.905 859,506.5C 852.82,509.506 846.32,511.173 839.5,511.5C 839.489,509.453 839.156,507.453 838.5,505.5C 838.818,504.353 839.484,503.519 840.5,503C 859.15,496.669 877.817,490.336 896.5,484C 897.056,483.617 897.389,483.117 897.5,482.5 Z M 900.5,503.5 C 903.681,511.017 904.181,518.684 902,526.5C 895.111,533.615 887.611,534.615 879.5,529.5C 877.495,526.649 875.662,523.649 874,520.5C 872.539,514.841 870.706,509.341 868.5,504C 878.005,500.243 887.672,497.076 897.5,494.5C 897.905,497.715 898.905,500.715 900.5,503.5 Z"/></g>
<g><path style="opacity:0.607" fill="#0a0a0a" d="M 900.5,503.5 C 901.376,503.369 902.043,503.702 902.5,504.5C 910.594,520.848 905.927,530.848 888.5,534.5C 884.552,534.359 881.219,532.859 878.5,530C 878.728,529.601 879.062,529.435 879.5,529.5C 887.611,534.615 895.111,533.615 902,526.5C 904.181,518.684 903.681,511.017 900.5,503.5 Z"/></g>
<g><path style="opacity:0.783" fill="#030303" d="M 881.5,552.5 C 901.821,552.986 911.655,563.319 911,583.5C 907.94,593.465 901.44,599.965 891.5,603C 889.231,603.758 887.064,603.591 885,602.5C 882.134,589.969 880.134,577.302 879,564.5C 875.409,564.472 872.409,566.139 870,569.5C 865.216,579.586 866.883,588.586 875,596.5C 875.017,600.812 872.85,602.645 868.5,602C 855.519,588.816 854.519,574.816 865.5,560C 870.286,556.104 875.619,553.604 881.5,552.5 Z M 890.5,590.5 C 889.931,584.418 888.931,578.418 887.5,572.5C 887.091,568.736 887.091,565.07 887.5,561.5C 901.763,566.132 905.596,575.132 899,588.5C 897.499,590.584 895.499,591.917 893,592.5C 891.699,592.361 890.866,591.695 890.5,590.5 Z"/></g>
<g><path style="opacity:0.75" fill="#010101" d="M 128.5,568.5 C 156.577,568.408 166.411,581.741 158,608.5C 156.167,610.333 154.333,612.167 152.5,614C 154.345,615.128 156.345,615.628 158.5,615.5C 160.238,621.916 157.904,624.583 151.5,623.5C 130.086,621.323 108.753,618.657 87.5,615.5C 86.2234,612.966 86.2234,610.466 87.5,608C 95.4042,607.377 103.238,607.877 111,609.5C 111.5,609.167 112,608.833 112.5,608.5C 106.293,596.393 107.627,585.226 116.5,575C 120.157,572.008 124.157,569.841 128.5,568.5 Z M 129.5,577.5 C 137.53,576.544 144.363,578.877 150,584.5C 156.228,599.568 151.561,608.901 136,612.5C 119.138,609.986 113.805,600.653 120,584.5C 123.068,581.917 126.235,579.584 129.5,577.5 Z"/></g>
<g><path style="opacity:0.312" fill="#111111" d="M 887.5,572.5 C 888.931,578.418 889.931,584.418 890.5,590.5C 889.414,590.38 888.747,589.713 888.5,588.5C 886.79,582.245 885.956,575.912 886,569.5C 886.232,570.737 886.732,571.737 887.5,572.5 Z"/></g>
<g><path style="opacity:0.798" fill="#020202" d="M 874.5,609.5 C 886.067,609.227 892.567,614.894 894,626.5C 894.499,632.491 894.666,638.491 894.5,644.5C 903.01,644.551 907.343,640.218 907.5,631.5C 906.237,626.044 904.57,620.711 902.5,615.5C 903.767,611.605 906.267,610.605 910,612.5C 917.455,625.213 917.289,637.713 909.5,650C 906.326,651.725 902.993,653.058 899.5,654C 887.833,654.667 876.167,654.667 864.5,654C 863.556,651.281 863.223,648.448 863.5,645.5C 864.978,645.762 866.311,645.429 867.5,644.5C 866.139,642.972 864.972,641.305 864,639.5C 863.718,635.961 863.218,632.461 862.5,629C 863.204,625.872 863.704,622.706 864,619.5C 866.738,615.26 870.238,611.926 874.5,609.5 Z M 874.5,640.5 C 872.461,639.089 871.461,637.089 871.5,634.5C 871.335,630.818 871.501,627.152 872,623.5C 876.333,618.167 880.667,618.167 885,623.5C 886.623,630.469 886.79,637.469 885.5,644.5C 880.944,645.726 877.278,644.393 874.5,640.5 Z"/></g>
<g><path style="opacity:0.531" fill="#111111" d="M 871.5,634.5 C 871.461,637.089 872.461,639.089 874.5,640.5C 874.631,641.239 874.464,641.906 874,642.5C 868.719,637.039 867.386,630.705 870,623.5C 870.177,627.356 870.677,631.023 871.5,634.5 Z"/></g>
<g><path style="opacity:0.53" fill="#0b0b0b" d="M 135.5,663.5 C 134.971,667.351 135.638,670.851 137.5,674C 136.552,674.483 135.552,674.649 134.5,674.5C 134.102,662.318 133.436,650.151 132.5,638C 132.559,636.564 132.892,635.231 133.5,634C 124.622,632.523 117.455,635.356 112,642.5C 110.245,645.985 108.412,649.319 106.5,652.5C 110.076,637.753 119.409,630.92 134.5,632C 135.487,642.418 135.82,652.918 135.5,663.5 Z"/></g>
<g><path style="opacity:0.764" fill="#010101" d="M 135.5,663.5 C 136.473,665.948 136.806,668.615 136.5,671.5C 138.527,671.662 140.527,671.495 142.5,671C 152.824,660.56 153.158,649.727 143.5,638.5C 145.019,635.44 147.352,633.94 150.5,634C 160.147,644.557 161.981,656.39 156,669.5C 153.158,673.043 149.991,676.21 146.5,679C 133.771,684.438 122.271,682.604 112,673.5C 106.865,667.291 105.032,660.291 106.5,652.5C 108.412,649.319 110.245,645.985 112,642.5C 117.455,635.356 124.622,632.523 133.5,634C 132.892,635.231 132.559,636.564 132.5,638C 133.436,650.151 134.102,662.318 134.5,674.5C 135.552,674.649 136.552,674.483 137.5,674C 135.638,670.851 134.971,667.351 135.5,663.5 Z M 126.5,640.5 C 128.231,650.99 128.564,661.657 127.5,672.5C 114.896,667.467 111.73,658.8 118,646.5C 120.671,644.098 123.505,642.098 126.5,640.5 Z"/></g>
<g><path style="opacity:0.813" fill="#030303" d="M 878.5,663.5 C 905.858,663.016 916.358,676.016 910,702.5C 907.921,707.579 904.254,710.912 899,712.5C 895.899,710.723 894.899,708.057 896,704.5C 899.393,702.773 901.726,700.106 903,696.5C 905.964,683.806 901.13,675.973 888.5,673C 876.206,672.623 869.54,678.623 868.5,691C 869.104,695.38 870.437,699.547 872.5,703.5C 872.105,708.013 869.771,709.513 865.5,708C 857.591,696.081 857.591,684.081 865.5,672C 869.59,668.633 873.924,665.8 878.5,663.5 Z"/></g>
<g><path style="opacity:0.737" fill="#000000" d="M 91.5,697.5 C 115.225,698.748 138.892,700.581 162.5,703C 164.585,705.837 164.919,708.837 163.5,712C 148.672,722.248 133.672,732.248 118.5,742C 137.073,743.437 155.739,745.104 174.5,747C 175.65,749.746 176.15,752.579 176,755.5C 159.167,767 142.333,778.5 125.5,790C 122.493,791.447 119.493,792.447 116.5,793C 114.476,790.36 114.143,787.527 115.5,784.5C 130.38,774.448 145.38,764.615 160.5,755C 141.925,752.593 123.258,750.76 104.5,749.5C 103.425,746.562 103.259,743.562 104,740.5C 119.436,731.06 134.603,721.227 149.5,711C 130.879,708.938 112.213,707.271 93.5,706C 92.0085,703.379 91.3418,700.545 91.5,697.5 Z"/></g>
<g><path style="opacity:0.83" fill="#020202" d="M 907.5,720.5 C 907.335,722.827 906.669,724.993 905.5,727C 908.395,728.313 911.395,729.48 914.5,730.5C 915.631,732.074 915.798,733.741 915,735.5C 914.882,737.573 913.882,738.907 912,739.5C 909.209,738.594 906.376,737.927 903.5,737.5C 902.803,741.956 901.636,746.29 900,750.5C 897.568,751.45 895.068,751.45 892.5,750.5C 892.667,745.664 893.667,740.997 895.5,736.5C 886.798,733.213 877.798,730.38 868.5,728C 865.044,726.877 862.21,727.71 860,730.5C 858.583,734.343 858.083,738.176 858.5,742C 852.171,744.819 849.171,742.653 849.5,735.5C 849.669,730.761 851.336,726.761 854.5,723.5C 859.125,720.816 864.125,719.983 869.5,721C 877.798,722.897 885.631,725.064 893,727.5C 894.646,725.859 895.646,726.193 896,728.5C 897,727.833 898,727.167 899,726.5C 899.681,724.105 900.515,721.772 901.5,719.5C 903.409,720.348 905.409,720.682 907.5,720.5 Z"/></g>
<g><path style="opacity:0.672" fill="#0f0f0f" d="M 907.5,720.5 C 905.409,720.682 903.409,720.348 901.5,719.5C 900.515,721.772 899.681,724.105 899,726.5C 898,727.167 897,727.833 896,728.5C 895.646,726.193 894.646,725.859 893,727.5C 885.631,725.064 877.798,722.897 869.5,721C 864.125,719.983 859.125,720.816 854.5,723.5C 856.982,719.982 860.482,718.315 865,718.5C 875.994,719.944 886.66,722.611 897,726.5C 897.265,718.439 900.765,716.439 907.5,720.5 Z"/></g>
<g><path style="opacity:0.726" fill="#010101" d="M 833.5,741.5 C 838.191,742.678 842.524,744.678 846.5,747.5C 852.574,744.782 855.907,746.615 856.5,753C 855.994,757.917 853.327,759.917 848.5,759C 843.772,755.274 838.772,751.941 833.5,749C 832.221,746.502 832.221,744.002 833.5,741.5 Z"/></g>
<g><path style="opacity:0.807" fill="#020202" d="M 831.5,787.5 C 836.576,789.388 841.576,791.555 846.5,794C 856.263,800.1 866.263,805.766 876.5,811C 880.506,814.005 884.84,816.505 889.5,818.5C 890.415,819.328 891.081,820.328 891.5,821.5C 885.251,832.333 878.751,843 872,853.5C 855.383,867.879 838.55,868.046 821.5,854C 810.479,839.54 809.645,824.373 819,808.5C 823.178,801.472 827.345,794.472 831.5,787.5 Z M 834.5,799.5 C 836.308,799.491 837.975,799.991 839.5,801C 852.701,809.099 866.034,816.932 879.5,824.5C 875.333,831.5 871.167,838.5 867,845.5C 850.951,859.953 836.618,858.287 824,840.5C 821.075,832.889 821.075,825.223 824,817.5C 828.269,811.965 831.769,805.965 834.5,799.5 Z"/></g>
<g><path style="opacity:0.752" fill="#010101" d="M 191.5,793.5 C 192.496,793.414 193.329,793.748 194,794.5C 195.326,796.983 196.493,799.483 197.5,802C 193.201,811.222 190.034,820.722 188,830.5C 191.978,831.326 195.811,832.66 199.5,834.5C 203.84,832.445 208.007,830.112 212,827.5C 214.93,829.36 216.263,832.027 216,835.5C 196.465,848.268 176.465,860.268 156,871.5C 152.031,869.566 150.864,866.566 152.5,862.5C 164.5,855.167 176.5,847.833 188.5,840.5C 177.269,836.701 165.936,833.201 154.5,830C 152.383,827.844 150.716,825.344 149.5,822.5C 149.833,821.5 150.5,820.833 151.5,820.5C 160.229,822.781 168.896,824.948 177.5,827C 181.727,815.705 186.394,804.538 191.5,793.5 Z"/></g>
<g><path style="opacity:0.871" fill="#020202" d="M 811.5,861.5 C 809.158,861.775 809.158,862.608 811.5,864C 818.654,869.743 825.988,875.243 833.5,880.5C 831.841,881.817 830.674,883.483 830,885.5C 827.721,883.711 825.721,881.711 824,879.5C 823.617,880.056 823.117,880.389 822.5,880.5C 810.067,871.915 797.733,863.081 785.5,854C 776.744,843.391 778.078,834.057 789.5,826C 793.771,824.487 796.105,825.987 796.5,830.5C 793.535,832.635 791.035,835.302 789,838.5C 788.333,839.833 788.333,841.167 789,842.5C 796.023,849.353 803.523,855.686 811.5,861.5 Z"/></g>
<g><path style="opacity:0.787" fill="#020202" d="M 212.5,846.5 C 218.142,846.328 223.476,847.495 228.5,850C 239.433,859.27 242.6,870.77 238,884.5C 227.23,900.639 213.397,903.806 196.5,894C 187.704,886.293 185.037,876.959 188.5,866C 190.471,865.986 192.471,866.319 194.5,867C 194.25,874.584 196.583,881.25 201.5,887C 214.677,892.998 224.51,889.498 231,876.5C 231.823,872.262 231.156,868.262 229,864.5C 226.872,861.37 224.372,858.537 221.5,856C 213.298,857.306 210.298,854.139 212.5,846.5 Z"/></g>
<g><path style="opacity:0.521" fill="#111111" d="M 811.5,861.5 C 819.683,867.454 827.683,873.621 835.5,880C 831.613,888.458 827.28,888.625 822.5,880.5C 823.117,880.389 823.617,880.056 824,879.5C 825.721,881.711 827.721,883.711 830,885.5C 830.674,883.483 831.841,881.817 833.5,880.5C 825.988,875.243 818.654,869.743 811.5,864C 809.158,862.608 809.158,861.775 811.5,861.5 Z"/></g>
<g><path style="opacity:0.852" fill="#020202" d="M 792.5,897.5 C 789.566,901.773 786.233,905.773 782.5,909.5C 790.278,916.528 797.112,915.528 803,906.5C 805.992,902.69 807.492,898.357 807.5,893.5C 814.537,892.528 817.037,895.528 815,902.5C 810.894,914.453 802.727,921.453 790.5,923.5C 785.98,923.407 781.98,921.907 778.5,919C 770.488,910.988 762.488,902.988 754.5,895C 755.439,893.056 756.773,891.389 758.5,890C 760.367,889.289 761.867,889.789 763,891.5C 764.113,883.574 767.946,877.574 774.5,873.5C 774.435,873.938 774.601,874.272 775,874.5C 778.352,873.166 781.685,871.833 785,870.5C 788.439,871.978 791.772,873.645 795,875.5C 797.34,879.555 798.007,883.889 797,888.5C 795.192,891.438 793.692,894.438 792.5,897.5 Z M 781.5,878.5 C 786.671,877.915 790.004,880.082 791.5,885C 788.052,892.379 783.052,898.546 776.5,903.5C 769.004,897.475 768.504,890.809 775,883.5C 776.805,881.174 778.972,879.508 781.5,878.5 Z"/></g>
<g><path style="opacity:0.507" fill="#0d0d0d" d="M 792.5,897.5 C 793.692,894.438 795.192,891.438 797,888.5C 798.007,883.889 797.34,879.555 795,875.5C 791.772,873.645 788.439,871.978 785,870.5C 781.685,871.833 778.352,873.166 775,874.5C 774.601,874.272 774.435,873.938 774.5,873.5C 783.133,867.518 790.966,868.518 798,876.5C 801.352,885.022 799.519,892.022 792.5,897.5 Z"/></g>
<g><path style="opacity:0.776" fill="#010101" d="M 253.5,882.5 C 259.088,883.532 260.754,886.366 258.5,891C 271.063,893.892 278.396,901.558 280.5,914C 277.551,926.644 269.884,930.644 257.5,926C 251.667,920.833 245.833,915.667 240,910.5C 233.67,917.52 234.17,924.02 241.5,930C 245.679,933.674 250.512,935.84 256,936.5C 255.793,938.751 255.627,941.085 255.5,943.5C 243.532,943.042 234.366,937.709 228,927.5C 224.145,919.816 225.145,912.816 231,906.5C 238.739,898.658 246.239,890.658 253.5,882.5 Z M 253.5,898.5 C 260.686,898.508 266.186,901.508 270,907.5C 272.607,912.456 271.44,916.289 266.5,919C 264.365,919.635 262.365,919.301 260.5,918C 256.333,914.5 252.167,911 248,907.5C 247.018,906.241 246.685,904.908 247,903.5C 248.805,901.174 250.972,899.508 253.5,898.5 Z"/></g>
<g><path style="opacity:0.451" fill="#1a1a1a" d="M 847.5,887.5 C 844.728,888.082 842.061,889.082 839.5,890.5C 839.511,888.983 840.177,887.816 841.5,887C 843.712,886.211 845.712,886.378 847.5,887.5 Z"/></g>
<g><path style="opacity:0.78" fill="#020202" d="M 847.5,887.5 C 851.634,891.104 851.301,894.604 846.5,898C 840.435,898.772 838.101,896.272 839.5,890.5C 842.061,889.082 844.728,888.082 847.5,887.5 Z"/></g>
<g><path style="opacity:0.767" fill="#010101" d="M 743.5,903.5 C 745.484,903.383 747.15,904.05 748.5,905.5C 758.001,917.84 767.334,930.34 776.5,943C 774.092,949.567 770.925,950.067 767,944.5C 764.214,957.144 756.38,964.144 743.5,965.5C 738.578,965.706 734.245,964.206 730.5,961C 722.792,951.732 715.459,942.232 708.5,932.5C 710.218,929.144 712.885,927.644 716.5,928C 722.051,934.55 727.217,941.383 732,948.5C 742.704,959.724 751.704,958.391 759,944.5C 759.667,941.833 759.667,939.167 759,936.5C 753.156,927.479 746.822,918.812 740,910.5C 739.333,909.167 739.333,907.833 740,906.5C 741.518,905.837 742.685,904.837 743.5,903.5 Z"/></g>
<g><path style="opacity:0.728" fill="#010101" d="M 286.5,915.5 C 303.106,917.283 308.273,925.949 302,941.5C 296.01,948.814 290.51,956.481 285.5,964.5C 286.528,966.361 288.028,967.695 290,968.5C 289.098,976.466 285.764,977.466 280,971.5C 278.039,974.463 275.706,977.129 273,979.5C 270.52,978.018 268.353,976.185 266.5,974C 267.771,971.067 269.438,968.401 271.5,966C 268.456,963.388 265.289,960.888 262,958.5C 260.67,953.502 262.504,951.336 267.5,952C 270.167,954 272.833,956 275.5,958C 276.167,958.667 276.833,958.667 277.5,958C 283.333,950.167 289.167,942.333 295,934.5C 295.814,932.098 295.647,929.765 294.5,927.5C 291.539,925.436 288.372,923.769 285,922.5C 284.761,920.041 285.261,917.707 286.5,915.5 Z"/></g>
<g><path style="opacity:0.837" fill="#020202" d="M 664.5,949.5 C 663.883,949.389 663.383,949.056 663,948.5C 662.333,951.167 662.333,953.833 663,956.5C 664.898,960.628 667.065,964.628 669.5,968.5C 671.492,965.587 672.159,962.587 671.5,959.5C 671.933,956.805 673.266,954.638 675.5,953C 692.651,941.23 706.818,944.064 718,961.5C 722.436,977.736 716.936,989.236 701.5,996C 696.934,997.309 692.267,997.809 687.5,997.5C 688.526,1003.98 686.026,1006.31 680,1004.5C 671.16,989.645 663.16,974.311 656,958.5C 654.791,952.114 655.791,946.114 659,940.5C 668.745,929.552 680.911,925.218 695.5,927.5C 695.5,930.167 695.5,932.833 695.5,935.5C 682.189,933.995 671.856,938.661 664.5,949.5 Z M 695.5,989.5 C 692.833,989.5 690.167,989.5 687.5,989.5C 674.555,982.129 672.222,972.295 680.5,960C 695.866,950.685 705.866,954.685 710.5,972C 708.891,980.773 703.891,986.607 695.5,989.5 Z"/></g>
<g><path style="opacity:0.778" fill="#020202" d="M 316.5,939.5 C 332.085,939.453 343.419,946.286 350.5,960C 349.091,962.213 347.091,963.713 344.5,964.5C 341.038,960.865 337.705,957.032 334.5,953C 330,949.572 325,948.238 319.5,949C 315.859,951.845 315.692,955.012 319,958.5C 324.38,962.884 329.38,967.551 334,972.5C 338.048,984.743 333.715,991.743 321,993.5C 315.476,992.936 310.309,991.27 305.5,988.5C 302.662,985.162 299.495,982.162 296,979.5C 294.35,974.932 295.85,972.266 300.5,971.5C 304.532,975.347 308.866,979.181 313.5,983C 318.096,985.476 322.263,984.976 326,981.5C 326.651,979.765 326.485,978.098 325.5,976.5C 322.312,974.146 319.645,971.312 317.5,968C 307.805,963.005 304.971,955.505 309,945.5C 311.114,942.879 313.614,940.879 316.5,939.5 Z"/></g>
<g><path style="opacity:0.771" fill="#010101" d="M 359.5,958.5 C 361.564,958.687 363.564,959.187 365.5,960C 367.211,961.133 367.711,962.633 367,964.5C 357.415,984.673 348.082,1005.01 339,1025.5C 336.094,1026.41 333.427,1025.75 331,1023.5C 330.333,1022.17 330.333,1020.83 331,1019.5C 340,998.838 349.5,978.505 359.5,958.5 Z"/></g>
<g><path style="opacity:0.445" fill="#101010" d="M 664.5,949.5 C 664.689,954.567 666.189,959.234 669,963.5C 669.2,961.68 670.034,960.347 671.5,959.5C 672.159,962.587 671.492,965.587 669.5,968.5C 667.065,964.628 664.898,960.628 663,956.5C 662.333,953.833 662.333,951.167 663,948.5C 663.383,949.056 663.883,949.389 664.5,949.5 Z"/></g>
<g><path style="opacity:0.794" fill="#020202" d="M 380.5,967.5 C 383.271,967.421 385.937,967.921 388.5,969C 389.059,969.725 389.392,970.558 389.5,971.5C 381.045,992.694 372.878,1014.03 365,1035.5C 364.612,1036.43 363.945,1037.09 363,1037.5C 359.782,1037.1 357.282,1035.6 355.5,1033C 363.611,1011.04 371.944,989.203 380.5,967.5 Z"/></g>
<g><path style="opacity:0.82" fill="#010101" d="M 658.5,986.5 C 664.216,1002.59 659.216,1014.43 643.5,1022C 626.117,1026.31 614.45,1020.14 608.5,1003.5C 609.222,1003.92 609.722,1004.58 610,1005.5C 606.63,985.234 615.13,973.9 635.5,971.5C 638.956,971.818 642.289,972.652 645.5,974C 646.977,976.148 648.977,977.482 651.5,978C 653.727,980.564 655.561,983.397 657,986.5C 657.69,987.738 658.19,987.738 658.5,986.5 Z M 632.5,978.5 C 644.626,979.25 650.959,985.75 651.5,998C 650.399,1008.27 644.732,1014.1 634.5,1015.5C 627.11,1014.89 621.943,1011.23 619,1004.5C 614.269,990.96 618.769,982.293 632.5,978.5 Z"/></g>
<g><path style="opacity:0.766" fill="#020202" d="M 401.5,975.5 C 403.857,975.337 406.19,975.503 408.5,976C 409.32,978.333 409.653,980.5 409.5,982.5C 418.879,978.536 427.879,979.37 436.5,985C 440.578,989.327 442.911,994.493 443.5,1000.5C 441.191,1012.54 438.191,1024.37 434.5,1036C 432.287,1036.63 430.12,1036.46 428,1035.5C 426.5,1035.33 425.667,1034.5 425.5,1033C 429.092,1022.39 431.759,1011.56 433.5,1000.5C 433.485,994.294 430.485,990.461 424.5,989C 418.439,987.653 412.939,988.82 408,992.5C 403.306,1003.41 400.139,1014.75 398.5,1026.5C 394.36,1027.29 391.027,1026.12 388.5,1023C 392.119,1006.98 396.452,991.142 401.5,975.5 Z"/></g>
<g><path style="opacity:0.464" fill="#0c0c0c" d="M 658.5,986.5 C 658.19,987.738 657.69,987.738 657,986.5C 655.561,983.397 653.727,980.564 651.5,978C 648.977,977.482 646.977,976.148 645.5,974C 642.289,972.652 638.956,971.818 635.5,971.5C 615.13,973.9 606.63,985.234 610,1005.5C 609.722,1004.58 609.222,1003.92 608.5,1003.5C 605.097,988.697 610.431,978.197 624.5,972C 640.119,967.319 651.452,972.153 658.5,986.5 Z"/></g>
<g><path style="opacity:0.682" fill="#010101" d="M 566.5,986.5 C 574.505,985.342 577.339,988.675 575,996.5C 571.545,1000.41 568.045,1000.41 564.5,996.5C 562.81,992.631 563.476,989.298 566.5,986.5 Z"/></g>
<g><path style="opacity:0.436" fill="#191919" d="M 687.5,989.5 C 690.167,989.5 692.833,989.5 695.5,989.5C 694.376,990.809 692.876,991.475 691,991.5C 688.686,991.497 687.519,990.831 687.5,989.5 Z"/></g>
<g><path style="opacity:0.766" fill="#010101" d="M 490.5,991.5 C 493.518,991.335 496.518,991.502 499.5,992C 500.022,992.561 500.355,993.228 500.5,994C 497.543,1015.74 495.543,1037.57 494.5,1059.5C 478.761,1058.79 463.094,1057.29 447.5,1055C 446.864,1052.61 446.864,1050.11 447.5,1047.5C 460.21,1048.02 472.877,1049.02 485.5,1050.5C 486.02,1042.82 486.687,1035.15 487.5,1027.5C 477.165,1026.44 466.831,1025.28 456.5,1024C 454.59,1023.59 453.59,1022.43 453.5,1020.5C 454.046,1018.87 454.38,1017.2 454.5,1015.5C 465.508,1016.43 476.508,1017.43 487.5,1018.5C 488.335,1009.48 489.335,1000.48 490.5,991.5 Z"/></g>
</svg>
