<?xml version="1.0" encoding="UTF-8"?>
<!DOCTYPE svg PUBLIC "-//W3C//DTD SVG 1.1//EN" "http://www.w3.org/Graphics/SVG/1.1/DTD/svg11.dtd">
<svg xmlns="http://www.w3.org/2000/svg" version="1.1" width="874px" height="880px" style="shape-rendering:geometricPrecision; text-rendering:geometricPrecision; image-rendering:optimizeQuality; fill-rule:evenodd; clip-rule:evenodd" xmlns:xlink="http://www.w3.org/1999/xlink">
<g><path style="opacity:0.995" fill="#1c1c1c" d="M 519.5,-0.5 C 521.5,-0.5 523.5,-0.5 525.5,-0.5C 535.808,20.7849 546.142,42.1182 556.5,63.5C 560.854,46.5663 565.021,29.5663 569,12.5C 569.308,11.6919 569.808,11.0253 570.5,10.5C 573.056,11.0512 575.389,12.0512 577.5,13.5C 571.911,35.778 566.578,58.1113 561.5,80.5C 558.728,80.78 556.228,80.1134 554,78.5C 544.215,57.9312 534.715,37.2646 525.5,16.5C 525.631,15.6236 525.298,14.9569 524.5,14.5C 523.614,15.325 523.281,16.325 523.5,17.5C 520.264,35.1083 516.097,52.4416 511,69.5C 508.553,68.5944 506.053,67.7611 503.5,67C 509.222,44.6122 514.555,22.1122 519.5,-0.5 Z"/></g>
<g><path style="opacity:0.996" fill="#1e1e1e" d="M 406.5,57.5 C 406.5,60.1667 406.5,62.8333 406.5,65.5C 404.901,65.2322 403.568,65.5655 402.5,66.5C 401.5,66.5 400.5,66.5 399.5,66.5C 398.328,49.612 396.661,32.7787 394.5,16C 394.57,15.2352 394.903,14.7352 395.5,14.5C 397.5,14.5 399.5,14.5 401.5,14.5C 401.263,15.791 401.596,16.791 402.5,17.5C 402.5,18.5 402.5,19.5 402.5,20.5C 402.638,24.2861 403.305,24.2861 404.5,20.5C 408.337,13.9966 414.004,11.3299 421.5,12.5C 422.348,14.4086 422.682,16.4086 422.5,18.5C 414.708,18.8075 409.208,22.4741 406,29.5C 405.537,38.8421 405.704,48.1754 406.5,57.5 Z"/></g>
<g><path style="opacity:0.514" fill="#838383" d="M 395.5,14.5 C 397.607,13.5318 399.941,13.1984 402.5,13.5C 402.5,14.8333 402.5,16.1667 402.5,17.5C 401.596,16.791 401.263,15.791 401.5,14.5C 399.5,14.5 397.5,14.5 395.5,14.5 Z"/></g>
<g><path style="opacity:1" fill="#989898" d="M 525.5,16.5 C 524.833,16.8333 524.167,17.1667 523.5,17.5C 523.281,16.325 523.614,15.325 524.5,14.5C 525.298,14.9569 525.631,15.6236 525.5,16.5 Z"/></g>
<g><path style="opacity:0.141" fill="#c2c2c2" d="M 402.5,20.5 C 403.167,20.5 403.833,20.5 404.5,20.5C 403.305,24.2861 402.638,24.2861 402.5,20.5 Z"/></g>
<g><path style="opacity:0.994" fill="#212121" d="M 353.5,20.5 C 370.102,18.7902 380.435,25.9569 384.5,42C 384.245,43.3261 383.578,44.3261 382.5,45C 369.042,47.7242 355.709,50.8909 342.5,54.5C 348.571,66.1407 357.904,69.6407 370.5,65C 374.146,63.0181 377.146,60.3515 379.5,57C 380.167,56.3333 380.833,56.3333 381.5,57C 383.061,57.941 384.395,59.1076 385.5,60.5C 379.624,69.6925 371.124,74.3592 360,74.5C 343.149,72.8146 334.316,63.4813 333.5,46.5C 333.939,32.9216 340.606,24.2549 353.5,20.5 Z M 354.5,27.5 C 365,26.2466 372.334,30.4132 376.5,40C 364.864,42.829 353.197,45.1623 341.5,47C 340.924,37.3386 345.257,30.8386 354.5,27.5 Z"/></g>
<g><path style="opacity:0.994" fill="#1f1f1f" d="M 276.5,54.5 C 277.596,58.2887 278.263,58.2887 278.5,54.5C 278.491,52.6916 278.991,51.0249 280,49.5C 290.978,36.549 303.812,34.3824 318.5,43C 332.952,57.8213 332.952,72.488 318.5,87C 310.219,91.8805 301.552,92.7139 292.5,89.5C 292.167,89.8333 291.833,90.1667 291.5,90.5C 295.107,98.6574 298.107,106.991 300.5,115.5C 298.323,115.586 296.323,116.253 294.5,117.5C 284.391,95.2809 275.391,72.6142 267.5,49.5C 269.677,49.4139 271.677,48.7472 273.5,47.5C 275.082,49.5771 276.082,51.9104 276.5,54.5 Z M 296.5,45.5 C 311.402,44.288 319.735,51.1213 321.5,66C 319.919,77.6382 313.252,84.1382 301.5,85.5C 287.741,82.3356 281.574,73.6689 283,59.5C 285.017,52.3185 289.517,47.6518 296.5,45.5 Z"/></g>
<g><path style="opacity:0.994" fill="#1e1e1e" d="M 599.5,43.5 C 621.861,42.7229 632.695,53.3896 632,75.5C 627.286,92.6121 616.119,99.7788 598.5,97C 579.071,89.028 573.571,75.528 582,56.5C 586.049,49.5993 591.882,45.266 599.5,43.5 Z M 601.5,50.5 C 622.164,51.9887 628.664,62.322 621,81.5C 613.557,91.2707 604.391,93.104 593.5,87C 584.041,77.9362 583.208,68.1029 591,57.5C 594.154,54.4884 597.654,52.1551 601.5,50.5 Z"/></g>
<g><path style="opacity:0.991" fill="#242424" d="M 459.5,53.5 C 465.784,52.6189 468.617,55.2856 468,61.5C 462.99,66.9342 459.157,66.1009 456.5,59C 457.124,56.9149 458.124,55.0816 459.5,53.5 Z"/></g>
<g><path style="opacity:1" fill="#939393" d="M 276.5,54.5 C 277.167,54.5 277.833,54.5 278.5,54.5C 278.263,58.2887 277.596,58.2887 276.5,54.5 Z"/></g>
<g><path style="opacity:0.71" fill="#787878" d="M 406.5,57.5 C 407.477,60.2869 407.81,63.2869 407.5,66.5C 405.833,66.5 404.167,66.5 402.5,66.5C 403.568,65.5655 404.901,65.2322 406.5,65.5C 406.5,62.8333 406.5,60.1667 406.5,57.5 Z"/></g>
<g><path style="opacity:0.995" fill="#212121" d="M 239.5,66.5 C 257.522,67.1871 267.522,76.5205 269.5,94.5C 267.479,110.687 258.312,119.687 242,121.5C 225.316,119.649 216.149,110.315 214.5,93.5C 216.342,78.3294 224.675,69.3294 239.5,66.5 Z M 236.5,74.5 C 249.014,73.181 257.181,78.5144 261,90.5C 262.651,104.188 256.651,112.188 243,114.5C 225.877,110.585 219.877,100.251 225,83.5C 228.183,79.4622 232.016,76.4622 236.5,74.5 Z"/></g>
<g><path style="opacity:0.994" fill="#1f1f1f" d="M 700.5,69.5 C 702.783,69.6079 704.783,70.4412 706.5,72C 707.517,73.0495 707.684,74.2161 707,75.5C 694.042,95.2482 681.209,115.082 668.5,135C 665.902,134.874 663.569,133.874 661.5,132C 663.146,129.551 664.313,127.051 665,124.5C 642.281,126.783 631.615,116.45 633,93.5C 638.95,75.2757 651.117,68.7757 669.5,74C 678.656,77.8111 683.823,84.6444 685,94.5C 690.189,86.1107 695.355,77.7774 700.5,69.5 Z M 655.5,79.5 C 669.199,78.373 677.199,84.5397 679.5,98C 675.967,116.256 665.633,122.256 648.5,116C 638.177,105.765 637.843,95.0981 647.5,84C 650.099,82.205 652.766,80.705 655.5,79.5 Z"/></g>
<g><path style="opacity:0.992" fill="#1f1f1f" d="M 178.5,78.5 C 179.239,78.369 179.906,78.5357 180.5,79C 195.121,97.7431 209.621,116.576 224,135.5C 224.684,136.784 224.517,137.951 223.5,139C 221.99,139.85 220.49,140.683 219,141.5C 203.41,122.577 188.577,103.077 174.5,83C 175.604,81.2847 176.938,79.7847 178.5,78.5 Z"/></g>
<g><path style="opacity:0.993" fill="#212121" d="M 707.5,111.5 C 722.899,110.278 733.066,116.944 738,131.5C 739.902,141.904 736.902,150.571 729,157.5C 718.144,148.067 707.478,138.4 697,128.5C 689.57,143.839 694.07,154.339 710.5,160C 712.473,160.495 714.473,160.662 716.5,160.5C 716.5,162.833 716.5,165.167 716.5,167.5C 701.185,167.358 691.019,160.025 686,145.5C 684.334,128.484 691.501,117.151 707.5,111.5 Z M 710.5,118.5 C 722.688,118.858 729.688,125.025 731.5,137C 731.246,140.93 729.913,144.43 727.5,147.5C 718.851,140.018 710.351,132.352 702,124.5C 701.911,122.887 702.745,121.72 704.5,121C 706.611,120.155 708.611,119.322 710.5,118.5 Z"/></g>
<g><path style="opacity:0.993" fill="#212121" d="M 167.5,119.5 C 178.219,118.512 186.886,122.179 193.5,130.5C 183.511,140.322 173.344,149.988 163,159.5C 162.383,160.449 162.549,161.282 163.5,162C 174.768,167.916 184.268,165.75 192,155.5C 194.099,151.769 195.266,147.769 195.5,143.5C 197.792,143.244 199.959,143.577 202,144.5C 200.911,158.272 193.744,167.439 180.5,172C 165.255,174.432 154.422,168.599 148,154.5C 144.122,136.913 150.622,125.247 167.5,119.5 Z M 168.5,126.5 C 174.303,125.99 179.303,127.656 183.5,131.5C 175.177,139.655 166.677,147.655 158,155.5C 151.374,146.072 152.54,137.572 161.5,130C 163.925,128.787 166.259,127.621 168.5,126.5 Z"/></g>
<g><path style="opacity:0.994" fill="#1f1f1f" d="M 769.5,134.5 C 771.716,135.203 773.549,136.536 775,138.5C 780.459,145.627 786.292,152.461 792.5,159C 779.687,170.569 766.687,181.903 753.5,193C 737.812,201.761 726.646,197.594 720,180.5C 719.501,176.514 719.334,172.514 719.5,168.5C 722.247,168.187 724.914,168.52 727.5,169.5C 724.88,180.273 728.88,186.94 739.5,189.5C 742.433,189.534 745.1,188.701 747.5,187C 758.833,177.333 770.167,167.667 781.5,158C 776.214,151.926 771.048,145.759 766,139.5C 766.112,137.203 767.278,135.536 769.5,134.5 Z"/></g>
<g><path style="opacity:0.993" fill="#212121" d="M 130.5,150.5 C 132.433,151.642 133.933,153.308 135,155.5C 142.45,170.902 150.284,186.069 158.5,201C 157.023,203.445 155.19,205.612 153,207.5C 134.45,202.57 115.95,197.404 97.5,192C 98.7818,189.046 100.948,187.213 104,186.5C 118.736,190.35 133.403,194.35 148,198.5C 141.56,184.121 134.393,169.955 126.5,156C 127.665,154.008 128.998,152.175 130.5,150.5 Z"/></g>
<g><path style="opacity:0.994" fill="#202020" d="M 807.5,219.5 C 805.5,219.5 803.5,219.5 801.5,219.5C 801.784,217.585 801.451,215.919 800.5,214.5C 798.672,206.179 793.839,200.512 786,197.5C 779.851,198.694 777.851,202.361 780,208.5C 782,213.833 784,219.167 786,224.5C 786.971,239.855 780.138,245.022 765.5,240C 755.281,232.062 749.947,221.562 749.5,208.5C 751.806,208.007 754.139,207.674 756.5,207.5C 756.726,218.452 761.06,227.285 769.5,234C 774.797,235.521 778.131,233.688 779.5,228.5C 777.104,221.479 774.604,214.479 772,207.5C 770.393,197.592 774.56,191.592 784.5,189.5C 796.497,192.665 803.997,200.331 807,212.5C 807.422,214.355 807.922,216.189 808.5,218C 808.43,218.765 808.097,219.265 807.5,219.5 Z"/></g>
<g><path style="opacity:0.993" fill="#202020" d="M 94.5,207.5 C 99.1785,207.334 103.845,207.501 108.5,208C 112.342,208.721 115.676,210.387 118.5,213C 111.167,225.333 103.833,237.667 96.5,250C 109.923,254.54 119.089,250.04 124,236.5C 124.793,232.577 124.626,228.744 123.5,225C 126.002,223.568 128.502,223.402 131,224.5C 133.371,239.591 127.871,250.758 114.5,258C 98.2297,262.277 86.0631,257.11 78,242.5C 73.8692,226.101 79.3692,214.434 94.5,207.5 Z M 96.5,214.5 C 100.936,214.21 105.27,214.71 109.5,216C 103.779,226.623 97.4452,236.789 90.5,246.5C 82.709,239.181 81.5423,230.847 87,221.5C 89.8249,218.524 92.9915,216.191 96.5,214.5 Z"/></g>
<g><path style="opacity:0.259" fill="#aeaeae" d="M 800.5,214.5 C 801.451,215.919 801.784,217.585 801.5,219.5C 803.5,219.5 805.5,219.5 807.5,219.5C 805.393,220.468 803.059,220.802 800.5,220.5C 800.5,218.5 800.5,216.5 800.5,214.5 Z"/></g>
<g><path style="opacity:0.992" fill="#262626" d="M 775.5,249.5 C 780.414,248.782 783.414,250.782 784.5,255.5C 783.872,257.258 782.872,258.758 781.5,260C 775.262,261.815 768.928,263.315 762.5,264.5C 759.629,263.742 758.629,262.075 759.5,259.5C 763.494,258.335 767.494,257.168 771.5,256C 772.234,253.439 773.567,251.273 775.5,249.5 Z"/></g>
<g><path style="opacity:0.994" fill="#1f1f1f" d="M 56.5,257.5 C 75.0777,255.372 88.9111,262.372 98,278.5C 100.168,284.679 100.834,291.012 100,297.5C 96.6252,309.625 92.4585,321.458 87.5,333C 86.1667,333.667 84.8333,333.667 83.5,333C 64.9109,325.803 46.2442,318.803 27.5,312C 25.1526,311.288 23.1526,310.121 21.5,308.5C 25.7973,295.767 30.964,283.434 37,271.5C 42.1006,264.716 48.6006,260.049 56.5,257.5 Z M 58.5,265.5 C 82.3733,264.539 93.54,275.872 92,299.5C 89.5588,307.492 86.7254,315.325 83.5,323C 66.1346,317.654 48.9679,311.487 32,304.5C 34.29,293.905 38.29,283.905 44,274.5C 48.0527,270.066 52.886,267.066 58.5,265.5 Z"/></g>
<g><path style="opacity:0.994" fill="#202020" d="M 811.5,347.5 C 810.833,347.167 810.167,346.833 809.5,346.5C 808.838,344.53 808.172,342.53 807.5,340.5C 812.833,332.833 818.167,325.167 823.5,317.5C 820.562,310.686 818.229,303.686 816.5,296.5C 809.543,297.985 802.71,299.985 796,302.5C 794.124,301.381 793.291,299.714 793.5,297.5C 793.557,296.391 793.89,295.391 794.5,294.5C 815.73,286.978 837.064,279.645 858.5,272.5C 862.296,282.389 865.796,292.389 869,302.5C 872.11,321.3 864.276,331.967 845.5,334.5C 838.222,334.245 832.388,331.245 828,325.5C 822.248,332.684 816.748,340.018 811.5,347.5 Z M 851.5,283.5 C 852.833,283.5 854.167,283.5 855.5,283.5C 857.559,290.845 859.725,298.178 862,305.5C 863.059,317.787 857.392,324.787 845,326.5C 839.422,325.877 835.088,323.21 832,318.5C 828.436,310.474 825.27,302.307 822.5,294C 832.303,290.568 841.97,287.068 851.5,283.5 Z"/></g>
<g><path style="opacity:0.369" fill="#a4a4a4" d="M 794.5,294.5 C 793.89,295.391 793.557,296.391 793.5,297.5C 792.115,296.053 792.448,295.053 794.5,294.5 Z"/></g>
<g><path style="opacity:0.008" fill="#dfdfdf" d="M 809.5,346.5 C 810.167,346.833 810.833,347.167 811.5,347.5C 810.377,348.757 809.711,348.424 809.5,346.5 Z"/></g>
<g><path style="opacity:0.996" fill="#1c1c1c" d="M 836.5,359.5 C 836.5,358.167 836.5,356.833 836.5,355.5C 835.209,355.263 834.209,355.596 833.5,356.5C 822.263,362.33 818.763,371.33 823,383.5C 824.923,387.258 827.423,390.591 830.5,393.5C 829.396,395.389 828.063,397.055 826.5,398.5C 815.829,390.321 811.995,379.654 815,366.5C 820.88,351.137 832.047,344.97 848.5,348C 864.845,354.524 870.678,366.357 866,383.5C 861.113,392.781 853.447,398.114 843,399.5C 840.076,386.29 837.909,372.957 836.5,359.5 Z"/></g>
<g><path style="opacity:1" fill="#f9f9f9" d="M 841.5,354.5 C 855.591,355.092 862.091,362.425 861,376.5C 859.563,384.771 854.73,389.438 846.5,390.5C 844.997,378.474 843.33,366.474 841.5,354.5 Z"/></g>
<g><path style="opacity:0.439" fill="#9f9f9f" d="M 833.5,356.5 C 834.209,355.596 835.209,355.263 836.5,355.5C 836.5,356.833 836.5,358.167 836.5,359.5C 835.9,358.1 834.9,357.1 833.5,356.5 Z"/></g>
<g><path style="opacity:0.995" fill="#1d1d1d" d="M 66.5,410.5 C 65.6236,410.369 64.9569,410.702 64.5,411.5C 66.0453,412.452 67.712,412.785 69.5,412.5C 70.1667,412.5 70.8333,412.5 71.5,412.5C 72.968,413.779 73.6347,415.446 73.5,417.5C 73.719,418.675 73.3857,419.675 72.5,420.5C 49.5478,417.542 26.5478,414.876 3.5,412.5C 2.79105,411.596 1.79105,411.263 0.5,411.5C 0.5,410.167 0.5,408.833 0.5,407.5C 0.5,406.5 0.5,405.5 0.5,404.5C 10.537,405.376 20.537,406.209 30.5,407C 23.9577,400.463 21.791,392.629 24,383.5C 27.6138,370.351 36.2804,363.684 50,363.5C 71.2909,365.791 79.9576,377.457 76,398.5C 74.486,403.888 71.3193,407.888 66.5,410.5 Z M 44.5,371.5 C 63.3185,370.478 71.4851,379.145 69,397.5C 63.2841,408.631 54.4508,412.131 42.5,408C 31.612,402.692 28.112,394.192 32,382.5C 34.708,377.079 38.8747,373.413 44.5,371.5 Z"/></g>
<g><path style="opacity:0.996" fill="#181818" d="M 849.5,439.5 C 849.5,441.167 849.5,442.833 849.5,444.5C 852.059,444.802 854.393,444.468 856.5,443.5C 860.779,442.388 863.613,439.721 865,435.5C 866.897,426.741 865.064,418.907 859.5,412C 861.265,410.702 863.099,409.536 865,408.5C 870.25,414.203 873.084,420.87 873.5,428.5C 873.5,429.833 873.5,431.167 873.5,432.5C 872.824,441.677 868.158,447.844 859.5,451C 853.509,451.499 847.509,451.666 841.5,451.5C 834.5,451.5 827.5,451.5 820.5,451.5C 820.5,449.5 820.5,447.5 820.5,445.5C 822.924,445.808 825.257,445.474 827.5,444.5C 827.043,443.702 826.376,443.369 825.5,443.5C 816.234,432.374 816.234,421.207 825.5,410C 836.947,404.479 844.781,407.645 849,419.5C 849.5,426.158 849.666,432.825 849.5,439.5 Z"/></g>
<g><path style="opacity:0.431" fill="#ababab" d="M -0.5,407.5 C -0.166667,407.5 0.166667,407.5 0.5,407.5C 0.5,408.833 0.5,410.167 0.5,411.5C 1.79105,411.263 2.79105,411.596 3.5,412.5C 2.16667,412.5 0.833333,412.5 -0.5,412.5C -0.5,410.833 -0.5,409.167 -0.5,407.5 Z"/></g>
<g><path style="opacity:0.376" fill="#a9a9a9" d="M 66.5,410.5 C 67.5,411.167 68.5,411.833 69.5,412.5C 67.712,412.785 66.0453,412.452 64.5,411.5C 64.9569,410.702 65.6236,410.369 66.5,410.5 Z"/></g>
<g><path style="opacity:0.424" fill="#969696" d="M 71.5,412.5 C 72.5,412.5 73.5,412.5 74.5,412.5C 74.7845,414.415 74.4511,416.081 73.5,417.5C 73.6347,415.446 72.968,413.779 71.5,412.5 Z"/></g>
<g><path style="opacity:1" fill="#f8f8f8" d="M 831.5,414.5 C 836.814,413.74 840.647,415.74 843,420.5C 844.401,428.415 844.901,436.415 844.5,444.5C 835.538,446.27 829.371,442.936 826,434.5C 825.333,429.833 825.333,425.167 826,420.5C 827.36,417.977 829.193,415.977 831.5,414.5 Z"/></g>
<g><path style="opacity:0.994" fill="#202020" d="M 45.5,430.5 C 46.5,430.5 47.5,430.5 48.5,430.5C 48.2322,432.099 48.5655,433.432 49.5,434.5C 49.8992,447.553 50.8992,460.553 52.5,473.5C 64.8321,469.18 69.6654,460.514 67,447.5C 65.4631,443.463 63.2964,439.796 60.5,436.5C 61.5794,434.457 63.246,433.124 65.5,432.5C 70.1072,436.041 72.9405,440.707 74,446.5C 76.8396,470.992 66.0062,482.492 41.5,481C 25.0901,476.002 18.5901,465.169 22,448.5C 25.6681,437.081 33.5014,431.081 45.5,430.5 Z M 42.5,437.5 C 44.0423,449.31 45.0423,461.31 45.5,473.5C 30.0236,470.557 24.8569,461.557 30,446.5C 33.2599,442.049 37.4265,439.049 42.5,437.5 Z"/></g>
<g><path style="opacity:0.592" fill="#8e8e8e" d="M 45.5,430.5 C 46.5676,429.566 47.901,429.232 49.5,429.5C 49.5,431.167 49.5,432.833 49.5,434.5C 48.5655,433.432 48.2322,432.099 48.5,430.5C 47.5,430.5 46.5,430.5 45.5,430.5 Z"/></g>
<g><path style="opacity:0.125" fill="#cccccc" d="M 849.5,439.5 C 850.434,440.568 850.768,441.901 850.5,443.5C 852.5,443.5 854.5,443.5 856.5,443.5C 854.393,444.468 852.059,444.802 849.5,444.5C 849.5,442.833 849.5,441.167 849.5,439.5 Z"/></g>
<g><path style="opacity:0.098" fill="#c7c7c7" d="M 825.5,443.5 C 826.376,443.369 827.043,443.702 827.5,444.5C 825.257,445.474 822.924,445.808 820.5,445.5C 820.5,447.5 820.5,449.5 820.5,451.5C 827.5,451.5 834.5,451.5 841.5,451.5C 834.352,452.492 827.019,452.825 819.5,452.5C 819.5,449.833 819.5,447.167 819.5,444.5C 821.735,444.795 823.735,444.461 825.5,443.5 Z"/></g>
<g><path style="opacity:0.994" fill="#212121" d="M 840.5,463.5 C 858.415,464.103 868.082,473.269 869.5,491C 869.233,501.38 864.733,509.213 856,514.5C 854.581,512.664 853.414,510.664 852.5,508.5C 863.983,499.284 865.317,488.784 856.5,477C 845.748,469.648 835.581,470.481 826,479.5C 820.757,488.641 821.59,497.141 828.5,505C 826.92,507.295 824.92,508.628 822.5,509C 815.958,502.463 813.791,494.629 816,485.5C 819.034,472.293 827.2,464.96 840.5,463.5 Z"/></g>
<g><path style="opacity:0.102" fill="#b2b2b2" d="M 14.5,500.5 C 11.8333,500.5 9.16667,500.5 6.5,500.5C 6.5,501.5 6.5,502.5 6.5,503.5C 5.56552,502.432 5.23219,501.099 5.5,499.5C 8.7131,499.19 11.7131,499.523 14.5,500.5 Z"/></g>
<g><path style="opacity:0.995" fill="#1d1d1d" d="M 14.5,500.5 C 36.1909,501.479 57.8576,502.813 79.5,504.5C 79.7792,507.118 80.4459,509.618 81.5,512C 64.977,523.425 48.3103,534.591 31.5,545.5C 28.8136,546.988 29.1469,547.655 32.5,547.5C 51.2058,548.272 69.8725,549.606 88.5,551.5C 89.9945,551.709 91.1612,552.376 92,553.5C 93.5822,556.315 93.4155,558.815 91.5,561C 71.8333,573.833 52.1667,586.667 32.5,599.5C 30.8352,597.744 29.8352,595.577 29.5,593C 29.6448,592.228 29.9781,591.561 30.5,591C 47.4377,580.393 64.1044,569.393 80.5,558C 60.1487,556.537 39.8154,554.87 19.5,553C 17.9626,550.687 17.4626,548.187 18,545.5C 34.6339,534.106 51.4673,523.106 68.5,512.5C 69.2891,512.217 69.9558,511.717 70.5,511C 67.854,510.503 65.1873,510.336 62.5,510.5C 46.4716,509.879 30.4716,508.879 14.5,507.5C 11.695,506.935 9.0283,505.935 6.5,504.5C 6.5,504.167 6.5,503.833 6.5,503.5C 6.5,502.5 6.5,501.5 6.5,500.5C 9.16667,500.5 11.8333,500.5 14.5,500.5 Z"/></g>
<g><path style="opacity:0.608" fill="#878787" d="M 6.5,504.5 C 9.0283,505.935 11.695,506.935 14.5,507.5C 11.8333,507.5 9.16667,507.5 6.5,507.5C 6.5,506.5 6.5,505.5 6.5,504.5 Z"/></g>
<g><path style="opacity:0.361" fill="#a5a5a5" d="M 62.5,510.5 C 65.1873,510.336 67.854,510.503 70.5,511C 69.9558,511.717 69.2891,512.217 68.5,512.5C 66.5,511.833 64.5,511.167 62.5,510.5 Z"/></g>
<g><path style="opacity:0.995" fill="#1f1f1f" d="M 852.5,529.5 C 853.568,530.434 854.901,530.768 856.5,530.5C 856.5,529.5 856.5,528.5 856.5,527.5C 855.848,522.673 857.848,520.84 862.5,522C 863.308,522.308 863.975,522.808 864.5,523.5C 863.828,525.53 863.162,527.53 862.5,529.5C 861.115,530.947 861.448,531.947 863.5,532.5C 866.216,532.678 868.883,533.178 871.5,534C 873.28,537.471 872.447,539.971 869,541.5C 865.837,540.75 862.67,540.084 859.5,539.5C 858.659,544.532 857.659,549.532 856.5,554.5C 854.04,554.301 851.707,553.635 849.5,552.5C 850.833,547.833 852.167,543.167 853.5,538.5C 842.658,535.039 831.658,532.039 820.5,529.5C 816.736,529.96 814.236,531.96 813,535.5C 812.686,538.865 812.519,542.031 812.5,545C 809.937,545.918 807.77,545.418 806,543.5C 804.838,536.66 806.338,530.493 810.5,525C 814.35,521.973 818.684,520.973 823.5,522C 833.244,524.352 842.911,526.852 852.5,529.5 Z"/></g>
<g><path style="opacity:0.4" fill="#909090" d="M 856.5,527.5 C 856.5,528.5 856.5,529.5 856.5,530.5C 854.901,530.768 853.568,530.434 852.5,529.5C 854.199,529.473 855.533,528.806 856.5,527.5 Z"/></g>
<g><path style="opacity:0.235" fill="#a8a8a8" d="M 862.5,529.5 C 862.557,530.609 862.89,531.609 863.5,532.5C 861.448,531.947 861.115,530.947 862.5,529.5 Z"/></g>
<g><path style="opacity:0.204" fill="#c3c3c3" d="M 789.5,546.5 C 788.833,546.833 788.167,547.167 787.5,547.5C 787.711,545.576 788.377,545.243 789.5,546.5 Z"/></g>
<g><path style="opacity:0.118" fill="#dcdcdc" d="M 31.5,545.5 C 31.8333,546.167 32.1667,546.833 32.5,547.5C 29.1469,547.655 28.8136,546.988 31.5,545.5 Z"/></g>
<g><path style="opacity:0.992" fill="#242424" d="M 789.5,546.5 C 793.185,548.661 797.018,550.661 801,552.5C 806.297,550.115 809.797,551.615 811.5,557C 809.53,562.621 805.863,563.954 800.5,561C 796.167,557.833 791.833,554.667 787.5,551.5C 786.374,550.192 786.374,548.858 787.5,547.5C 788.167,547.167 788.833,546.833 789.5,546.5 Z"/></g>
<g><path style="opacity:0.994" fill="#1e1e1e" d="M 785.5,594.5 C 806.553,605.196 827.22,616.696 847.5,629C 841.377,640.082 834.877,650.915 828,661.5C 816.689,673.686 803.189,676.852 787.5,671C 770.485,662.805 763.652,649.305 767,630.5C 772.383,618.066 778.55,606.066 785.5,594.5 Z M 788.5,604.5 C 804.764,613.442 820.764,622.776 836.5,632.5C 831.876,642.613 825.876,651.779 818.5,660C 801.064,669.856 786.898,666.356 776,649.5C 773.181,642.952 772.848,636.285 775,629.5C 778.989,620.852 783.489,612.519 788.5,604.5 Z"/></g>
<g><path style="opacity:0.994" fill="#202020" d="M 110.5,600.5 C 112.142,603.102 113.808,605.769 115.5,608.5C 111.593,618.723 107.593,628.89 103.5,639C 108.619,641.039 113.785,642.872 119,644.5C 123.333,641.833 127.667,639.167 132,636.5C 133.555,638.443 134.722,640.61 135.5,643C 114.821,656.007 93.8214,668.507 72.5,680.5C 70.5022,679.033 68.8355,677.2 67.5,675C 81.3684,666.301 95.3684,657.801 109.5,649.5C 96.5417,645.236 83.5417,641.07 70.5,637C 68.585,634.355 67.4183,631.521 67,628.5C 76.6667,631.5 86.3333,634.5 96,637.5C 100.743,625.098 105.577,612.765 110.5,600.5 Z"/></g>
<g><path style="opacity:0.992" fill="#1f1f1f" d="M 746.5,637.5 C 746.443,638.609 746.11,639.609 745.5,640.5C 741.862,642.647 739.528,645.814 738.5,650C 738.862,651.225 739.362,652.391 740,653.5C 754.262,665.765 769.095,677.265 784.5,688C 788.413,690.785 788.413,693.618 784.5,696.5C 783.998,697.521 783.332,697.688 782.5,697C 766.048,684.883 749.881,672.383 734,659.5C 728.768,647.965 731.935,639.631 743.5,634.5C 745.175,634.868 746.175,635.868 746.5,637.5 Z"/></g>
<g><path style="opacity:0.22" fill="#a0a0a0" d="M 746.5,637.5 C 747.885,638.947 747.552,639.947 745.5,640.5C 746.11,639.609 746.443,638.609 746.5,637.5 Z"/></g>
<g><path style="opacity:0.994" fill="#222222" d="M 139.5,657.5 C 156.376,663.243 162.876,674.91 159,692.5C 151.57,708.465 139.404,713.965 122.5,709C 109.57,702.307 104.237,691.807 106.5,677.5C 108.861,677.674 111.194,678.007 113.5,678.5C 111.894,692.632 118.061,700.966 132,703.5C 147.017,701.159 153.684,692.493 152,677.5C 148.751,668.727 142.585,664.06 133.5,663.5C 133.5,661.5 133.5,659.5 133.5,657.5C 135.5,657.5 137.5,657.5 139.5,657.5 Z"/></g>
<g><path style="opacity:0.345" fill="#a3a3a3" d="M 139.5,657.5 C 137.5,657.5 135.5,657.5 133.5,657.5C 133.5,659.5 133.5,661.5 133.5,663.5C 132.532,661.393 132.198,659.059 132.5,656.5C 135.059,656.198 137.393,656.532 139.5,657.5 Z"/></g>
<g><path style="opacity:0.994" fill="#1c1c1c" d="M 760.5,708.5 C 761.167,707.833 761.833,707.167 762.5,706.5C 765.261,705.915 766.927,706.915 767.5,709.5C 764.732,722.244 757.399,731.077 745.5,736C 742.101,736.546 738.768,736.213 735.5,735C 724.398,726.733 714.065,717.567 704.5,707.5C 705.757,705.321 707.257,703.321 709,701.5C 710.351,703.019 711.851,704.352 713.5,705.5C 715.235,691.934 722.735,683.601 736,680.5C 752.12,686.251 754.787,695.918 744,709.5C 739.833,713.667 735.667,717.833 731.5,722C 740.581,731.123 748.747,730.29 756,719.5C 758.066,716.039 759.566,712.373 760.5,708.5 Z"/></g>
<g><path style="opacity:1" fill="#fafafa" d="M 730.5,688.5 C 740.158,686.993 744.325,690.993 743,700.5C 738.409,707.095 733.076,713.095 727,718.5C 719.193,712.577 717.526,705.244 722,696.5C 724.729,693.601 727.562,690.934 730.5,688.5 Z"/></g>
<g><path style="opacity:0.898" fill="#6e6e6e" d="M 178.5,696.5 C 176.784,696.629 175.117,696.962 173.5,697.5C 174.877,694.274 176.543,693.941 178.5,696.5 Z"/></g>
<g><path style="opacity:0.993" fill="#202020" d="M 178.5,696.5 C 182.29,698.662 182.29,700.995 178.5,703.5C 177.711,703.783 177.044,704.283 176.5,705C 179.146,705.497 181.813,705.664 184.5,705.5C 198.625,709.784 204.125,719.118 201,733.5C 193.657,741.797 185.49,742.63 176.5,736C 171.351,731.685 166.351,727.185 161.5,722.5C 153.332,730.223 153.665,737.723 162.5,745C 166.886,748.518 171.886,750.351 177.5,750.5C 178.21,753.93 177.043,756.263 174,757.5C 159.757,754.754 150.924,746.42 147.5,732.5C 147.761,728.55 148.928,724.883 151,721.5C 158.338,713.329 165.838,705.329 173.5,697.5C 175.117,696.962 176.784,696.629 178.5,696.5 Z M 172.5,710.5 C 183.045,708.855 190.545,712.855 195,722.5C 194.567,732.637 189.734,735.47 180.5,731C 175.351,727.018 170.685,722.518 166.5,717.5C 168.291,714.868 170.291,712.535 172.5,710.5 Z"/></g>
<g><path style="opacity:0.992" fill="#252525" d="M 796.5,698.5 C 804.294,699.252 805.961,702.752 801.5,709C 795,710.5 792.5,708 794,701.5C 795.045,700.627 795.878,699.627 796.5,698.5 Z"/></g>
<g><path style="opacity:0.514" fill="#999999" d="M 178.5,703.5 C 180.5,704.167 182.5,704.833 184.5,705.5C 181.813,705.664 179.146,705.497 176.5,705C 177.044,704.283 177.711,703.783 178.5,703.5 Z"/></g>
<g><path style="opacity:0.6" fill="#8e8e8e" d="M 762.5,706.5 C 761.833,707.167 761.167,707.833 760.5,708.5C 760.281,707.325 760.614,706.325 761.5,705.5C 762.107,705.624 762.44,705.957 762.5,706.5 Z"/></g>
<g><path style="opacity:0.993" fill="#202020" d="M 693.5,716.5 C 704.976,729.826 715.976,743.659 726.5,758C 725.312,759.944 723.646,761.444 721.5,762.5C 719.142,760.976 717.309,758.976 716,756.5C 715.438,766.12 710.938,773.287 702.5,778C 695.005,781.518 687.672,781.184 680.5,777C 671.774,767.53 663.774,757.53 656.5,747C 657.744,744.618 659.577,742.785 662,741.5C 669.819,751.65 677.986,761.483 686.5,771C 696.91,773.957 704.41,770.457 709,760.5C 709.667,756.833 709.667,753.167 709,749.5C 702.411,739.989 695.578,730.656 688.5,721.5C 690.394,720.055 692.06,718.388 693.5,716.5 Z"/></g>
<g><path style="opacity:0.993" fill="#212121" d="M 210.5,729.5 C 225.973,731.756 231.14,740.09 226,754.5C 219.588,762.991 213.421,771.657 207.5,780.5C 209.666,782.493 211.999,784.327 214.5,786C 213.12,787.925 211.62,789.759 210,791.5C 207.743,789.954 205.576,788.288 203.5,786.5C 200.8,788.234 198.8,790.568 197.5,793.5C 194.174,794.348 191.507,793.181 189.5,790C 192.35,787.214 194.184,784.047 195,780.5C 191.434,777.301 187.6,774.467 183.5,772C 184.622,769.876 186.122,768.043 188,766.5C 191.821,769.743 195.821,772.743 200,775.5C 207.052,766.782 213.719,757.782 220,748.5C 221.023,740.683 217.523,736.683 209.5,736.5C 209.298,734.05 209.631,731.717 210.5,729.5 Z"/></g>
<g><path style="opacity:0.994" fill="#202020" d="M 628.5,741.5 C 632.514,741.334 636.514,741.501 640.5,742C 641.591,744.064 641.758,746.231 641,748.5C 628.824,747.562 618.49,751.562 610,760.5C 607.273,768.534 608.606,775.867 614,782.5C 617.903,769.446 626.737,762.446 640.5,761.5C 656.121,763.12 664.787,771.787 666.5,787.5C 664.356,803.514 655.189,812.514 639,814.5C 629.59,810.058 627.757,811.724 633.5,819.5C 631.417,820.959 629.25,822.292 627,823.5C 619.333,809.5 611.667,795.5 604,781.5C 596.472,764.416 601.306,752.249 618.5,745C 621.98,743.897 625.313,742.731 628.5,741.5 Z M 634.5,769.5 C 648.145,768.309 656.145,774.476 658.5,788C 655.854,801.823 647.52,808.156 633.5,807C 621.165,802.16 616.999,793.327 621,780.5C 624.336,775.269 628.836,771.602 634.5,769.5 Z"/></g>
<g><path style="opacity:0.992" fill="#202020" d="M 246.5,754.5 C 259.939,756.555 269.939,763.555 276.5,775.5C 275.421,777.543 273.754,778.876 271.5,779.5C 268.049,774.215 263.716,769.715 258.5,766C 253.36,762.188 248.027,761.688 242.5,764.5C 240.047,766.996 239.88,769.662 242,772.5C 247.143,777.732 252.476,782.732 258,787.5C 263.16,795.368 261.994,802.201 254.5,808C 239.311,811.077 227.645,805.911 219.5,792.5C 220.692,790.317 222.525,788.984 225,788.5C 230.45,797.309 238.283,801.809 248.5,802C 252.679,799.789 253.845,796.623 252,792.5C 246.387,786.887 240.721,781.221 235,775.5C 231.296,769.021 232.129,763.187 237.5,758C 240.459,756.396 243.459,755.229 246.5,754.5 Z"/></g>
<g><path style="opacity:0.993" fill="#202020" d="M 287.5,774.5 C 289.55,774.961 291.55,775.628 293.5,776.5C 294.614,777.723 294.781,779.056 294,780.5C 283.726,802.047 273.726,823.714 264,845.5C 262.352,844.283 260.519,843.45 258.5,843C 257.978,842.439 257.645,841.772 257.5,841C 267.375,818.752 277.375,796.586 287.5,774.5 Z"/></g>
<g><path style="opacity:0.994" fill="#212121" d="M 310.5,783.5 C 313.285,784.09 315.619,785.424 317.5,787.5C 308.667,810.5 299.833,833.5 291,856.5C 289.184,855.671 287.351,854.837 285.5,854C 284.978,853.439 284.645,852.772 284.5,852C 293.044,829.086 301.711,806.253 310.5,783.5 Z"/></g>
<g><path style="opacity:0.994" fill="#1f1f1f" d="M 570.5,787.5 C 595.529,786.696 606.363,798.696 603,823.5C 594.687,839.61 581.853,844.776 564.5,839C 549.989,828.786 546.489,815.619 554,799.5C 558.256,793.737 563.756,789.737 570.5,787.5 Z M 572.5,794.5 C 586.9,794.395 594.9,801.562 596.5,816C 593.735,830.715 585.068,836.382 570.5,833C 558.169,825.676 555.003,815.509 561,802.5C 564.15,798.689 567.983,796.023 572.5,794.5 Z"/></g>
<g><path style="opacity:0.522" fill="#9b9b9b" d="M 335.5,793.5 C 334.041,793.433 332.708,793.766 331.5,794.5C 331.62,793.414 332.287,792.747 333.5,792.5C 334.416,792.543 335.083,792.876 335.5,793.5 Z"/></g>
<g><path style="opacity:0.995" fill="#1e1e1e" d="M 335.5,793.5 C 337.103,793.312 338.437,793.812 339.5,795C 338.756,796.815 338.089,798.648 337.5,800.5C 336.427,801.251 336.26,802.251 337,803.5C 337.717,802.956 338.217,802.289 338.5,801.5C 350.449,795.062 361.283,796.729 371,806.5C 373.282,810.179 374.449,814.179 374.5,818.5C 372.456,830.006 369.79,841.339 366.5,852.5C 365.778,853.551 364.778,854.218 363.5,854.5C 361.052,854.99 359.385,854.157 358.5,852C 362.208,840.014 364.708,827.847 366,815.5C 364.421,809.59 360.588,806.09 354.5,805C 344.377,802.978 337.544,806.811 334,816.5C 331.667,825.833 329.333,835.167 327,844.5C 324.606,845.136 322.106,845.136 319.5,844.5C 322.875,827.667 326.875,811 331.5,794.5C 332.708,793.766 334.041,793.433 335.5,793.5 Z"/></g>
<g><path style="opacity:0.361" fill="#919191" d="M 337.5,800.5 C 337.5,801.167 337.833,801.5 338.5,801.5C 338.217,802.289 337.717,802.956 337,803.5C 336.26,802.251 336.427,801.251 337.5,800.5 Z"/></g>
<g><path style="opacity:0.993" fill="#222222" d="M 508.5,803.5 C 513.863,804.892 515.53,808.226 513.5,813.5C 510.665,815.963 507.665,816.13 504.5,814C 502.266,808.934 503.599,805.434 508.5,803.5 Z"/></g>
<g><path style="opacity:0.997" fill="#1d1d1d" d="M 430.5,809.5 C 431.209,810.404 432.209,810.737 433.5,810.5C 433.5,812.167 433.5,813.833 433.5,815.5C 432.054,836.851 430.387,858.184 428.5,879.5C 424.167,879.5 419.833,879.5 415.5,879.5C 404.684,878.014 393.684,876.848 382.5,876C 381.376,875.751 380.376,875.251 379.5,874.5C 380.348,872.591 380.682,870.591 380.5,868.5C 393.737,869.588 406.904,870.922 420,872.5C 421.549,863.575 422.383,854.575 422.5,845.5C 410.804,844.775 399.138,843.775 387.5,842.5C 387.5,840.833 387.5,839.167 387.5,837.5C 389.717,836.631 392.05,836.298 394.5,836.5C 402.903,836.567 411.237,837.234 419.5,838.5C 420.919,839.451 422.585,839.784 424.5,839.5C 424.5,837.833 424.5,836.167 424.5,834.5C 424.723,826.819 425.223,819.153 426,811.5C 427.049,809.893 428.549,809.227 430.5,809.5 Z"/></g>
<g><path style="opacity:0.361" fill="#b6b6b6" d="M 430.5,809.5 C 431.833,809.5 433.167,809.5 434.5,809.5C 434.795,811.735 434.461,813.735 433.5,815.5C 433.5,813.833 433.5,812.167 433.5,810.5C 432.209,810.737 431.209,810.404 430.5,809.5 Z"/></g>
<g><path style="opacity:0.376" fill="#a9a9a9" d="M 394.5,836.5 C 392.05,836.298 389.717,836.631 387.5,837.5C 388.152,836.275 389.319,835.608 391,835.5C 392.385,835.514 393.551,835.848 394.5,836.5 Z"/></g>
<g><path style="opacity:0.522" fill="#727272" d="M 424.5,834.5 C 424.5,836.167 424.5,837.833 424.5,839.5C 422.585,839.784 420.919,839.451 419.5,838.5C 420.833,838.5 422.167,838.5 423.5,838.5C 423.232,836.901 423.566,835.568 424.5,834.5 Z"/></g>
<g><path style="opacity:0.478" fill="#9e9e9e" d="M 366.5,852.5 C 366.5,853.5 366.5,854.5 366.5,855.5C 365.209,855.737 364.209,855.404 363.5,854.5C 364.778,854.218 365.778,853.551 366.5,852.5 Z"/></g>
</svg>
